<svg version="1.2" xmlns="http://www.w3.org/2000/svg" viewBox="0 0 1320 800" width="1320" height="800">
	<title>3339-ai</title>
	<style>
		.s0 { fill: #a8cff0 } 
		.s1 { fill: #240e3f } 
		.s2 { fill: #d1ebff } 
		.s3 { opacity: .5;fill: #ffffff } 
		.s4 { fill: #28107e } 
		.s5 { fill: #7696c2 } 
		.s6 { fill: #72b5e8 } 
		.s7 { fill: #ffffff } 
		.s8 { mix-blend-mode: color-dodge;fill: #ffffff } 
		.s9 { fill: #eb4680 } 
		.s10 { fill: #d62d69 } 
		.s11 { opacity: .7;fill: #ffffff } 
		.s12 { fill: #3f92d1 } 
		.s13 { fill: #4f9fdb } 
		.s14 { mix-blend-mode: screen;fill: #ffffff } 
		.s15 { fill: #03336e } 
		.s16 { fill: #001a46 } 
		.s17 { fill: #ffcc00 } 
		.s18 { fill: #0fbab8 } 
		.s19 { fill: #2672ab } 
		.s20 { fill: #084c94 } 
		.s21 { fill: #0ba19f } 
		.s22 { fill: #ffd70f } 
		.s23 { fill: #d99f00 } 
		.s24 { fill: #b08100 } 
		.s25 { fill: #3f91d1 } 
		.s26 { fill: #ffde17 } 
		.s27 { fill: #3ecfcd } 
		.s28 { fill: #f76195 } 
		.s29 { opacity: .2;fill: #fdfdfd } 
	</style>
	<g id="Layer 1">
		<g id="&lt;Group&gt;">
			<path id="&lt;Path&gt;" class="s0" d="m1320 659.1v-17.3z"/>
			<path id="&lt;Path&gt;" class="s1" d="m0 420l170.5 97.5-170.5 97.7z"/>
			<path id="&lt;Path&gt;" class="s1" d="m1073.7 0l-83.3 47.7-83.3-47.7z"/>
			<path id="&lt;Path&gt;" class="s2" d="m1320 0v641.8-641.8z"/>
			<path id="&lt;Path&gt;" class="s1" d="m170.5 517.5l493.7 282.5h-664.2v-184.8z"/>
			<path id="&lt;Path&gt;" class="s1" d="m1320 0v236.3l-329.6-188.6 83.3-47.7z"/>
			<path id="&lt;Path&gt;" class="s3" d="m1320 800v-140.9z"/>
			<path id="&lt;Path&gt;" class="s1" d="m907.1 0l83.3 47.7-819.9 469.8-170.5-97.5v-420z"/>
			<path id="&lt;Path&gt;" class="s1" d="m1320 641.8v158.2h-275.1z"/>
			<path id="&lt;Path&gt;" class="s4" d="m1320 641.8l-275.1 158.2h-380.7l-493.7-282.5 819.9-469.8 329.6 188.6z"/>
			<path id="&lt;Path&gt;" class="s1" d="m1320 641.8l-275.1 158.2h-380.7l-493.7-282.5 819.9-469.8 329.6 188.6z"/>
		</g>
		<g id="&lt;Group&gt;">
			<g id="&lt;Group&gt;">
				<path id="&lt;Compound Path&gt;" class="s5" d="m187.8 520.5h-1.2v-1.5h1.2z"/>
			</g>
		</g>
		<g id="&lt;Group&gt;">
			<g id="&lt;Group&gt;">
			</g>
		</g>
		<g id="&lt;Group&gt;">
			<g id="&lt;Group&gt;">
			</g>
		</g>
		<g id="&lt;Group&gt;">
			<g id="&lt;Group&gt;">
			</g>
		</g>
		<g id="&lt;Group&gt;">
		</g>
		<g id="&lt;Group&gt;">
		</g>
		<g id="&lt;Group&gt;">
			<g id="&lt;Group&gt;">
			</g>
		</g>
		<g id="&lt;Group&gt;">
		</g>
		<g id="&lt;Group&gt;">
			<g id="&lt;Group&gt;">
			</g>
		</g>
		<g id="&lt;Group&gt;">
			<g id="&lt;Group&gt;">
				<path id="&lt;Path&gt;" class="s6" d="m1191.2 514.1c-4.9 5.7-13.4 6.5-23 0.9-15.4-8.9-27.8-30.3-27.8-47.9 0-11.9 5.7-18.9 14.1-19.5-2.9 3.3-4.7 8.4-4.7 14.9 0 17.6 12.5 39 27.8 47.9 5 2.8 9.6 4 13.6 3.7z"/>
				<path id="&lt;Compound Path&gt;" fill-rule="evenodd" class="s0" d="m1204.1 510.8l11.3 14.3c-1.2 4.4-2.9 8.1-5.1 11.2l-12.8-10.9c-2.3 2.2-4.9 3.7-8 4.5l3.1 16.4c-3.8 0.4-7.9 0-12.3-1.2l-6.9-16.8c-1.8-0.8-3.7-1.6-5.6-2.7-1.9-1.2-3.8-2.5-5.6-3.8l-6.9 8.9c-4.4-3.9-8.5-8.2-12.3-12.9l3.1-13c-3-4.3-5.7-8.9-7.9-13.7l-12.8-3.9c-2.3-5.6-4-11.3-5.1-17l11.2-1.4c-0.3-2.2-0.5-4.5-0.5-6.7 0-2.2 0.2-4.2 0.5-6.2l-11.2-14.4c1.1-4.3 2.8-8 5.1-11.1l12.8 10.9c2.2-2.2 4.9-3.7 7.9-4.5l-3.1-16.5c3.8-0.3 7.9 0.1 12.3 1.3l6.9 16.8c1.8 0.8 3.7 1.6 5.6 2.7 1.9 1.1 3.8 2.4 5.6 3.8l6.9-8.9c4.4 3.8 8.5 8.2 12.3 12.9l-3.1 12.9c3.1 4.3 5.7 9 8 13.8l12.8 3.8c2.2 5.7 3.9 11.4 5.1 17l-11.3 1.4c0.3 2.3 0.5 4.6 0.5 6.8 0 2.2-0.2 4.2-0.5 6.2zm-8.2-11.6c0-17.6-12.4-39.1-27.7-47.9-15.4-8.9-27.8-1.8-27.8 15.8 0 17.6 12.4 39 27.8 47.9 15.3 8.9 27.7 1.8 27.7-15.8z"/>
				<path id="&lt;Path&gt;" class="s6" d="m1162.2 438.4l-6.9-16.8 10.8-6.2 6.8 16.8z"/>
				<path id="&lt;Path&gt;" class="s2" d="m1172.9 432.2c1.9 0.8 3.8 1.6 5.7 2.7 0.6 0.4 1.7 1.1 1.7 1.1l-6.9 8.9c-1.8-1.4-3.7-2.7-5.6-3.8-1.9-1.1-3.8-1.9-5.6-2.7z"/>
				<path id="&lt;Path&gt;" class="s2" d="m1155.3 421.6c-4.4-1.2-8.5-1.6-12.3-1.3l10.8-6.2c3.8-0.3 7.9 0.1 12.3 1.3z"/>
				<path id="&lt;Path&gt;" class="s2" d="m1192.6 448.9c-3.8-4.7-7.9-9.1-12.3-12.9l10.8-6.2c4.3 3.8 8.4 8.2 12.2 12.9z"/>
				<path id="&lt;Path&gt;" class="s6" d="m1203.3 442.7l-3 12.9-10.8 6.2 3.1-12.9z"/>
				<path id="&lt;Path&gt;" class="s6" d="m1200.3 455.6c3 4.4 5.7 9 7.9 13.8l-10.7 6.2c-2.3-4.8-4.9-9.5-8-13.8z"/>
				<path id="&lt;Path&gt;" class="s2" d="m1208.2 469.4l12.8 3.8-10.7 6.2-12.8-3.8z"/>
				<path id="&lt;Path&gt;" class="s6" d="m1221 473.2c2.2 5.7 4 11.4 5.1 17l-10.7 6.2c-1.2-5.6-2.9-11.3-5.1-17z"/>
				<path id="&lt;Path&gt;" class="s6" d="m1138.2 441.3l-12.8-10.9 10.7-6.2 9.1 7.8 0.9 4.8c-3 0.8-5.7 2.3-7.9 4.5z"/>
				<path id="&lt;Path&gt;" class="s6" d="m1226.1 519c-1.1 4.3-2.9 8-5.1 11.1l-10.7 6.2c2.2-3.1 3.9-6.8 5.1-11.2z"/>
				<path id="&lt;Path&gt;" class="s6" d="m1204.1 510.8c0.3-2 0.5-4 0.5-6.2 0-2.2-0.2-4.5-0.5-6.8l11.2-1.4q0 1 0.1 2c0 2.2-0.2 4.2-0.5 6.2z"/>
				<path id="&lt;Path&gt;" class="s2" d="m1214.9 504.6l11.2 14.4-10.7 6.1-11.3-14.3z"/>
				<path id="&lt;Path&gt;" class="s6" d="m1201.2 528.5l2.1 11.7-10.7 6.1-3.1-16.4c3.1-0.8 5.7-2.3 8-4.5z"/>
				<path id="&lt;Path&gt;" class="s2" d="m1131.5 468.8l-11.2 1.4 10.8-6.3q0.1 2.4 0.4 4.9z"/>
				<path id="&lt;Path&gt;" class="s6" d="m1166.1 524.5l-10.8 6.2 6.9-8.9q1.9 1.4 3.9 2.7z"/>
				<g id="&lt;Group&gt;" style="mix-blend-mode: color-dodge">
					<path id="&lt;Path&gt;" class="s7" d="m1143.3 438q0.7-0.4 1.5-0.7v0.2c-0.5 0.1-1 0.3-1.5 0.5z"/>
					<path id="&lt;Path&gt;" class="s7" d="m1130.2 469.6l-9.3 1.1q0-0.2-0.1-0.5l9.3-1.2q0.1 0.3 0.1 0.6z"/>
					<path id="&lt;Path&gt;" class="s7" d="m1180.4 437.4l0.5-1.4c4.3 3.8 8.4 8.1 12.2 12.9l-3 12.9c3 4.3 5.7 8.9 7.9 13.7l12.8 3.9c2.2 5.6 4 11.3 5.1 17l-1.3 0.2c-1.1-5.5-2.8-11-4.9-16.5l-12.8-3.8c-2.3-4.8-4.9-9.5-8-13.8l3.1-12.9c-3.6-4.4-7.5-8.6-11.6-12.2z"/>
					<path id="&lt;Path&gt;" class="s7" d="m1185.8 517.7q0.6-0.1 1.2-0.2c-5.1 2.9-12.1 2.5-19.8-2-15.3-8.8-27.8-30.3-27.8-47.9 0-8.4 2.9-14.4 7.6-17.4-4.1 3.2-6.5 8.9-6.5 16.7 0 17.6 12.4 39 27.8 47.9 6.6 3.8 12.7 4.7 17.5 2.9z"/>
					<path id="&lt;Path&gt;" class="s7" d="m1196.2 526.1l0.4 0.4q-2.2 1.8-5 2.8c1.7-0.8 3.2-1.9 4.6-3.2z"/>
					<path id="&lt;Path&gt;" class="s7" d="m1125.8 431.4c-0.6 0-0.2-0.6 0.1-1l12.3 10.5c-0.5 0.3-0.9 0.7-0.5 0.7z"/>
					<path id="&lt;Path&gt;" class="s8" d="m1190.1 530l3 16.3c-0.6 0.1-1.3 0.1-1 0.1l-2.9-15.8c-0.4-0.1 0.3-0.3 0.9-0.6z"/>
					<path id="&lt;Path&gt;" class="s7" d="m1204.7 510.7l11.2 14.4c-1.1 4.3-2.9 8-5.1 11.1l-0.1-0.9c1.8-2.7 3.2-5.9 4.1-9.6l-11.2-14.4c0.3-1.9 0.5-3.9 0.5-6.1 0-2.2-0.2-4.5-0.5-6.8l1.1-0.1c0.3 2.1 0.4 4.2 0.4 6.2 0 2.2-0.1 4.3-0.4 6.2z"/>
					<path id="&lt;Path&gt;" class="s7" d="m1143.7 421l-0.1-0.7c3.8-0.4 7.9 0 12.2 1.2l6.9 16.9c1.9 0.7 3.7 1.6 5.7 2.7 1.6 0.9 3.2 2 4.8 3.2l-0.2 1.1c-1.9-1.4-3.7-2.7-5.7-3.8-1.9-1.1-3.7-2-5.6-2.7l-6.9-16.9c-3.6-1-7.8-1.1-11.1-1z"/>
					<path id="&lt;Path&gt;" class="s7" d="m1161.7 523.1l-5.9 7.5q-0.3-0.3-0.7-0.7l5.8-7.4q0.4 0.3 0.8 0.6z"/>
				</g>
			</g>
			<g id="&lt;Group&gt;">
				<path id="&lt;Path&gt;" class="s6" d="m1194.1 383.9c-7.5 8.6-20.2 9.7-34.7 1.3-23.1-13.3-41.8-45.5-41.8-72 0-17.9 8.6-28.5 21.3-29.4-4.5 5-7.1 12.6-7.1 22.4 0 26.5 18.7 58.8 41.8 72.1 7.5 4.3 14.5 6.1 20.5 5.6z"/>
				<path id="&lt;Compound Path&gt;" fill-rule="evenodd" class="s0" d="m1213.5 378.9l16.9 21.6c-1.7 6.5-4.3 12.1-7.7 16.7l-19.2-16.4c-3.4 3.3-7.4 5.6-12 6.9l4.6 24.7c-5.7 0.5-11.9-0.1-18.4-1.9l-10.4-25.3c-2.7-1.1-5.5-2.4-8.4-4.1-2.9-1.7-5.7-3.6-8.5-5.7l-10.3 13.4c-6.6-5.7-12.8-12.3-18.5-19.4l4.6-19.4c-4.5-6.5-8.6-13.5-11.9-20.7l-19.3-5.8c-3.3-8.5-5.9-17.1-7.6-25.6l16.9-2.1c-0.5-3.4-0.8-6.8-0.8-10.1 0-3.4 0.3-6.4 0.8-9.3l-16.9-21.7c1.7-6.5 4.3-12.1 7.6-16.7l19.3 16.4c3.3-3.3 7.4-5.6 11.9-6.8l-4.6-24.8c5.7-0.5 11.9 0.1 18.5 1.9l10.3 25.3c2.8 1.1 5.6 2.4 8.5 4.1 2.9 1.7 5.7 3.6 8.4 5.7l10.4-13.4c6.5 5.8 12.7 12.3 18.4 19.4l-4.6 19.5c4.6 6.5 8.6 13.4 12 20.6l19.2 5.8c3.4 8.5 6 17.1 7.7 25.6l-16.9 2.1c0.4 3.5 0.7 6.8 0.7 10.2 0 3.3-0.3 6.3-0.7 9.3zm-12.3-17.5c0-26.4-18.7-58.7-41.8-72-23.1-13.3-41.8-2.7-41.8 23.8 0 26.5 18.7 58.7 41.8 72.1 23.1 13.3 41.8 2.6 41.8-23.9z"/>
				<path id="&lt;Path&gt;" class="s6" d="m1150.4 270l-10.3-25.3 16.1-9.3 10.4 25.3z"/>
				<path id="&lt;Path&gt;" class="s2" d="m1166.6 260.7c2.8 1.2 5.6 2.4 8.5 4.1 0.9 0.5 2.6 1.6 2.6 1.6l-10.4 13.4c-2.7-2.1-5.5-4-8.4-5.7-2.9-1.7-5.7-3-8.5-4.1z"/>
				<path id="&lt;Path&gt;" class="s2" d="m1140.1 244.7c-6.6-1.8-12.8-2.4-18.5-1.9l16.2-9.3c5.7-0.5 11.9 0.1 18.4 1.9z"/>
				<path id="&lt;Path&gt;" class="s2" d="m1196.1 285.8c-5.7-7.1-11.8-13.6-18.4-19.4l16.2-9.3c6.5 5.8 12.7 12.3 18.4 19.4z"/>
				<path id="&lt;Path&gt;" class="s6" d="m1212.3 276.5l-4.6 19.5-16.2 9.3 4.6-19.5z"/>
				<path id="&lt;Path&gt;" class="s6" d="m1207.7 296c4.6 6.5 8.6 13.4 12 20.6l-16.2 9.3c-3.4-7.2-7.4-14.1-12-20.6z"/>
				<path id="&lt;Path&gt;" class="s2" d="m1219.7 316.6l19.2 5.8-16.2 9.3-19.2-5.8z"/>
				<path id="&lt;Path&gt;" class="s6" d="m1238.9 322.4c3.4 8.5 6 17.1 7.7 25.6l-16.2 9.3c-1.7-8.5-4.3-17.1-7.7-25.6z"/>
				<path id="&lt;Path&gt;" class="s6" d="m1114.3 274.4l-19.3-16.4 16.2-9.3 13.7 11.7 1.3 7.2c-4.5 1.2-8.6 3.5-11.9 6.8z"/>
				<path id="&lt;Path&gt;" class="s6" d="m1246.6 391.2c-1.7 6.5-4.3 12.1-7.7 16.7l-16.2 9.3c3.4-4.6 6-10.2 7.7-16.7z"/>
				<path id="&lt;Path&gt;" class="s6" d="m1213.5 378.9c0.4-3 0.7-6 0.7-9.3 0-3.4-0.3-6.7-0.7-10.2l16.8-2.1c0 1 0.1 2 0.1 3 0 3.3-0.3 6.3-0.7 9.3z"/>
				<path id="&lt;Path&gt;" class="s2" d="m1229.7 369.6l16.9 21.6-16.2 9.3-16.9-21.6z"/>
				<path id="&lt;Path&gt;" class="s6" d="m1209 405.6l3.3 17.5-16.2 9.3-4.6-24.7c4.6-1.3 8.6-3.6 12-6.9z"/>
				<path id="&lt;Path&gt;" class="s2" d="m1104.3 315.8l-16.9 2.1 16.2-9.5q0.2 3.6 0.7 7.4z"/>
				<path id="&lt;Path&gt;" class="s6" d="m1156.4 399.5l-16.3 9.3 10.3-13.4q2.9 2.2 6 4.1z"/>
				<g id="&lt;Group&gt;" style="mix-blend-mode: color-dodge">
					<path id="&lt;Path&gt;" class="s7" d="m1122 269.4q1.1-0.5 2.2-1l0.1 0.3c-0.8 0.2-1.6 0.5-2.3 0.7z"/>
					<path id="&lt;Path&gt;" class="s7" d="m1102.3 316.9l-13.9 1.8q-0.1-0.4-0.2-0.9l14-1.7q0 0.4 0.1 0.8z"/>
					<path id="&lt;Path&gt;" class="s7" d="m1177.9 268.5l0.6-2.2c6.6 5.8 12.7 12.3 18.4 19.5l-4.6 19.4c4.6 6.5 8.7 13.4 12 20.6l19.3 5.9c3.3 8.4 5.9 17 7.6 25.5l-1.9 0.3c-1.7-8.2-4.2-16.5-7.5-24.7l-19.2-5.8c-3.4-7.2-7.4-14.2-12-20.7l4.6-19.4c-5.4-6.7-11.2-12.9-17.3-18.4z"/>
					<path id="&lt;Path&gt;" class="s7" d="m1186 389.3c0.6-0.1 1.2-0.2 1.7-0.4-7.6 4.5-18.1 3.9-29.7-2.8-23.1-13.4-41.8-45.6-41.8-72.1 0-12.7 4.3-21.7 11.3-26.2-6.1 4.8-9.7 13.4-9.7 25.1 0 26.4 18.7 58.7 41.8 72 10 5.8 19.2 7.1 26.4 4.4z"/>
					<path id="&lt;Path&gt;" class="s7" d="m1201.5 401.9l0.7 0.7q-3.4 2.7-7.6 4.2c2.6-1.2 4.9-2.8 6.9-4.9z"/>
					<path id="&lt;Path&gt;" class="s7" d="m1095.7 259.5c-0.9-0.1-0.4-0.9 0.1-1.6l18.6 15.8c-0.7 0.6-1.4 1.2-0.7 1.1z"/>
					<path id="&lt;Path&gt;" class="s8" d="m1192.4 407.8l4.5 24.5c-0.9 0.1-1.9 0.1-1.4 0.2l-4.4-23.7c-0.6-0.3 0.4-0.6 1.3-1z"/>
					<path id="&lt;Path&gt;" class="s7" d="m1214.3 378.8l16.9 21.6c-1.7 6.5-4.3 12.1-7.6 16.8l-0.2-1.4c2.7-4.1 4.8-8.9 6.2-14.4l-16.9-21.7c0.5-2.9 0.7-5.9 0.7-9.3 0-3.3-0.2-6.7-0.7-10.1l1.7-0.1c0.4 3.1 0.6 6.2 0.6 9.3 0 3.3-0.3 6.4-0.7 9.3z"/>
					<path id="&lt;Path&gt;" class="s7" d="m1122.6 243.8l-0.2-1.1c5.7-0.5 11.9 0.1 18.5 1.9l10.3 25.4c2.8 1.1 5.6 2.4 8.5 4 2.5 1.5 4.9 3.1 7.3 4.9l-0.4 1.6c-2.7-2.1-5.5-4.1-8.4-5.7-2.9-1.7-5.7-3-8.5-4.1l-10.3-25.3c-5.5-1.5-11.9-1.7-16.8-1.6z"/>
					<path id="&lt;Path&gt;" class="s7" d="m1149.6 397.4l-8.7 11.3q-0.6-0.5-1.1-1l8.6-11.2q0.6 0.5 1.2 0.9z"/>
				</g>
			</g>
			<path id="&lt;Path&gt;" class="s9" d="m1179.8 233.5c0.1-2.7 2-3.8 4.1-2.6 2.1 1.2 3.8 4.4 3.6 7.1-0.1 2.7-1.9 3.8-4.1 2.6-2.1-1.2-3.7-4.4-3.6-7.1z"/>
			<path id="&lt;Path&gt;" class="s9" d="m1167.8 553.6c0.1-1.8 1.3-2.6 2.8-1.7 1.4 0.8 2.5 2.9 2.4 4.7-0.1 1.7-1.3 2.5-2.8 1.7-1.4-0.8-2.5-2.9-2.4-4.7z"/>
			<g id="&lt;Group&gt;">
				<path id="&lt;Path&gt;" class="s9" d="m1246 424.2c-0.3 0-0.5-0.2-0.7-0.4-0.3-0.3-0.3-0.8-0.1-1.1l4.8-8.2c0.3-0.5 0.9-0.7 1.3-0.4 0.5 0.3 0.7 0.9 0.4 1.4l-3.5 6 7.1-2.2c0.5-0.2 1.1 0.1 1.2 0.7 0.2 0.5-0.1 1-0.6 1.2l-9.6 2.9q-0.1 0.1-0.3 0.1z"/>
			</g>
			<g id="&lt;Group&gt;">
				<path id="&lt;Path&gt;" class="s10" d="m1163 460.4c3.7 2.2 7 6.3 8.9 10.8 0 0.1 2.1-0.7 3-1 1.8-0.8 4.2-0.5 6.8 1 5.9 3.4 10.6 11.6 10.6 18.3 0 12.2-21 16.5-21 16.5 0 0-19.9-26.7-19.9-38.9 0-3.4-1.4-4.4 0.5-5.5 0.1-0.1 3.9-2.1 4.1-2.2 1.9-0.8 4.3-0.5 7 1z"/>
				<path id="&lt;Path&gt;" class="s9" d="m1159.5 462.3c4 2.4 7.6 7.1 9.3 12 1.8-2.9 5.3-3.5 9.4-1.2 5.8 3.4 10.6 11.6 10.6 18.3 0 12.2-20 15.9-20 15.9 0 0-19.9-26.7-19.9-38.9 0-6.7 4.7-9.4 10.6-6.1z"/>
				<g id="&lt;Group&gt;" style="mix-blend-mode: color-dodge">
					<path id="&lt;Path&gt;" class="s11" d="m1152.5 461.4c1.9-1.2 4.3-0.8 7.5 1.1 3.9 2.2 7.2 6.6 9.1 11.3-0.5 0.4 0 0.1-0.4 0.7-1.7-4.9-5.7-9.6-9.8-11.9-2.4-1.4-4.7-1.8-6.4-1.2z"/>
					<path id="&lt;Path&gt;" class="s11" d="m1189.1 491.3c0 6.4-4.7 9.9-9.8 12.3 4.6-2.4 8.9-6.3 8.9-12 0-6.7-4.7-14.8-10.6-18.2-2.4-1.4-4.6-1.7-6.4-1.2 1.6-1 4.1-0.9 7.3 0.9 5.8 3.4 10.6 11.5 10.6 18.2z"/>
				</g>
			</g>
			<g id="&lt;Group&gt;">
				<path id="&lt;Path&gt;" class="s9" d="m1249.1 422.8l-1.4-1.5c10.8-9.7 16.5-25.7 16.5-46 0-50.7-35.9-112.7-80.1-138.2l1-1.7c44.7 25.8 81.1 88.5 81.1 139.9 0 20.9-5.9 37.4-17.1 47.5z"/>
			</g>
			<g id="&lt;Group&gt;">
				<g id="&lt;Group&gt;">
					<path id="&lt;Path&gt;" class="s0" d="m1280.8 356.7q0 0 0 0c-0.5 0-1-0.5-1-1q0-1 0-2c0-0.6 0.5-1 1-1 0.6 0 1 0.4 1 1q0 1 0 2c0 0.5-0.4 1-1 1z"/>
				</g>
				<g id="&lt;Group&gt;">
					<path id="&lt;Compound Path&gt;" class="s0" d="m1225.8 458c-0.6 0-1-0.5-1-1 0-0.6 0.4-1 1-1q1.9 0 3.9-0.2c0.5 0 1 0.4 1 0.9 0.1 0.6-0.3 1.1-0.9 1.1q-2 0.2-4 0.2 0 0 0 0zm-6-0.2q0 0-0.1-0.1-1.9-0.1-4-0.4c-0.5-0.1-0.9-0.6-0.8-1.1 0.1-0.6 0.6-0.9 1.1-0.9q2 0.3 3.9 0.5c0.6 0 1 0.5 0.9 1 0 0.6-0.5 1-1 1zm15.8-0.7c-0.4 0-0.9-0.4-0.9-0.9-0.1-0.5 0.2-1 0.8-1.1q1.9-0.4 3.8-0.9c0.5-0.1 1 0.2 1.2 0.8 0.1 0.5-0.2 1-0.7 1.2q-2 0.5-4 0.9-0.1 0-0.2 0zm9.6-2.7c-0.4 0-0.8-0.3-1-0.7-0.2-0.5 0.1-1.1 0.6-1.3q1.8-0.7 3.6-1.5c0.4-0.3 1-0.1 1.3 0.4 0.2 0.5 0 1.1-0.5 1.4q-1.8 0.8-3.7 1.6-0.1 0.1-0.3 0.1zm8.8-4.6c-0.4 0-0.7-0.2-0.9-0.5-0.3-0.4-0.2-1 0.3-1.3q1.6-1.1 3.2-2.3c0.4-0.4 1-0.3 1.4 0.2 0.3 0.4 0.2 1-0.2 1.4q-1.6 1.2-3.3 2.3-0.3 0.2-0.5 0.2zm7.6-6.3q-0.4 0-0.7-0.3c-0.4-0.4-0.4-1 0-1.4q1.4-1.4 2.7-2.8c0.3-0.5 1-0.5 1.4-0.1 0.4 0.3 0.4 0.9 0.1 1.4q-1.3 1.5-2.8 2.9-0.3 0.3-0.7 0.3zm6.3-7.6q-0.3 0-0.5-0.2c-0.5-0.3-0.6-0.9-0.3-1.4q1.1-1.6 2.1-3.3c0.3-0.4 0.9-0.6 1.4-0.3 0.4 0.3 0.6 0.9 0.3 1.3q-1 1.8-2.1 3.5c-0.2 0.2-0.5 0.4-0.9 0.4zm4.9-8.6q-0.2 0-0.4-0.1c-0.5-0.3-0.7-0.9-0.5-1.4q0.9-1.7 1.6-3.5c0.2-0.6 0.8-0.8 1.3-0.6 0.5 0.2 0.8 0.8 0.6 1.3q-0.8 1.9-1.7 3.7c-0.1 0.4-0.5 0.6-0.9 0.6zm3.6-9.3q-0.1 0-0.3 0c-0.5-0.2-0.8-0.7-0.6-1.3q0.6-1.8 1.1-3.7c0.1-0.6 0.7-0.9 1.2-0.7 0.5 0.1 0.8 0.6 0.7 1.2q-0.5 1.9-1.1 3.8c-0.1 0.5-0.5 0.7-1 0.7zm2.5-9.6q-0.1 0-0.2 0c-0.6-0.1-0.9-0.6-0.8-1.2q0.4-1.9 0.7-3.8c0-0.6 0.5-1 1.1-0.9 0.5 0.1 0.9 0.6 0.8 1.2q-0.3 2-0.7 3.9c0 0.5-0.5 0.8-0.9 0.8zm1.4-9.8q-0.1 0-0.1 0c-0.6-0.1-1-0.6-0.9-1.1q0.2-1.9 0.3-3.9c0-0.6 0.4-1 1.1-1 0.5 0.1 0.9 0.5 0.9 1.1q-0.1 2-0.3 4c-0.1 0.5-0.5 0.9-1 0.9z"/>
				</g>
				<g id="&lt;Group&gt;">
					<path id="&lt;Path&gt;" class="s0" d="m1209.9 456.2q-0.1 0-0.2 0-1-0.2-2-0.5c-0.5-0.1-0.8-0.6-0.7-1.2 0.1-0.5 0.7-0.8 1.2-0.7q1 0.2 1.9 0.4c0.6 0.2 0.9 0.7 0.8 1.2-0.1 0.5-0.5 0.8-1 0.8z"/>
				</g>
			</g>
			<g id="&lt;Group&gt;">
				<g id="&lt;Group&gt;">
					<path id="&lt;Path&gt;" class="s0" d="m1081.8 297.9c-0.4 0-0.8-0.3-0.9-0.8q-0.2-1-0.4-2c-0.1-0.5 0.3-1 0.8-1.1 0.6-0.1 1.1 0.2 1.2 0.8q0.2 1 0.3 1.9c0.1 0.6-0.2 1.1-0.8 1.2q-0.1 0-0.2 0z"/>
				</g>
				<g id="&lt;Group&gt;">
					<path id="&lt;Compound Path&gt;" class="s0" d="m1266.2 318.2c-0.4 0-0.7-0.2-0.9-0.6q-0.8-1.8-1.6-3.7c-0.2-0.5 0.1-1.1 0.6-1.3 0.5-0.2 1.1 0 1.3 0.5q0.8 1.9 1.6 3.8c0.2 0.5-0.1 1.1-0.6 1.3q-0.2 0-0.4 0zm-4-9.3c-0.4 0-0.7-0.2-0.9-0.6q-0.8-1.8-1.7-3.6c-0.2-0.5 0-1.1 0.5-1.3 0.5-0.3 1.1-0.1 1.3 0.4q0.9 1.9 1.7 3.7c0.3 0.5 0 1.1-0.5 1.3q-0.2 0.1-0.4 0.1zm-4.4-9.1c-0.4 0-0.7-0.2-0.9-0.5q-0.9-1.8-1.8-3.6c-0.3-0.5-0.1-1.1 0.4-1.4 0.5-0.2 1.1 0 1.3 0.4q1 1.8 1.9 3.7c0.2 0.4 0.1 1-0.4 1.3q-0.3 0.1-0.5 0.1zm-4.8-8.9c-0.3 0-0.7-0.2-0.8-0.5q-1-1.8-2-3.5c-0.3-0.5-0.2-1.1 0.3-1.4 0.5-0.3 1.1-0.1 1.4 0.3q1 1.8 2 3.6c0.3 0.5 0.1 1.1-0.4 1.3q-0.2 0.2-0.5 0.2zm-172.4-1c-0.5 0-0.9-0.3-1-0.8q-0.3-2-0.5-4.1c0-0.5 0.4-1 0.9-1.1 0.6 0 1.1 0.4 1.1 0.9q0.2 2 0.5 4c0.1 0.6-0.3 1.1-0.9 1.1q0 0-0.1 0zm167.3-7.8c-0.3 0-0.7-0.1-0.9-0.4q-1-1.8-2.1-3.5c-0.3-0.4-0.2-1 0.3-1.3 0.5-0.3 1.1-0.2 1.4 0.3q1.1 1.7 2.1 3.4c0.3 0.5 0.2 1.1-0.3 1.4q-0.2 0.1-0.5 0.1zm-168.3-2.2c-0.5 0-1-0.4-1-1q-0.1-2-0.2-4c0-0.6 0.4-1 0.9-1.1q0.1 0 0.1 0c0.5 0 1 0.5 1 1q0.1 2 0.2 4c0 0.6-0.4 1-0.9 1.1q-0.1 0-0.1 0zm162.8-6.3c-0.3 0-0.6-0.1-0.8-0.4q-1.1-1.7-2.3-3.3c-0.3-0.5-0.2-1.1 0.2-1.4 0.5-0.3 1.1-0.2 1.4 0.2q1.2 1.7 2.3 3.4c0.3 0.4 0.2 1.1-0.2 1.4q-0.3 0.1-0.6 0.1zm-163.1-3.8q0 0 0 0c-0.6 0-1-0.5-1-1q0-2.1 0-4.1c0.1-0.6 0.5-1 1-1q0.1 0 0.1 0c0.5 0 1 0.5 0.9 1q0 2 0 4.1c0 0.5-0.5 1-1 1zm157.3-4.4c-0.3 0-0.6-0.2-0.8-0.4q-1.2-1.7-2.4-3.3c-0.4-0.4-0.3-1 0.1-1.4 0.5-0.3 1.1-0.2 1.4 0.2q1.3 1.6 2.5 3.3c0.3 0.4 0.2 1-0.2 1.4q-0.3 0.2-0.6 0.2zm-156.9-5.8q0 0-0.1 0c-0.5 0-0.9-0.5-0.9-1q0.2-2.1 0.4-4.1c0.1-0.6 0.6-0.9 1.1-0.9 0.6 0.1 1 0.6 0.9 1.1q-0.2 2-0.4 4c0 0.6-0.5 0.9-1 0.9zm150.7-2.2c-0.3 0-0.6-0.2-0.8-0.4q-1.2-1.6-2.5-3.1c-0.4-0.4-0.3-1.1 0.1-1.4 0.4-0.4 1-0.3 1.4 0.1q1.3 1.5 2.6 3.1c0.3 0.5 0.3 1.1-0.2 1.4q-0.3 0.3-0.6 0.3zm-6.5-7.8c-0.3 0-0.6-0.1-0.8-0.3q-1.3-1.5-2.7-3c-0.3-0.4-0.3-1 0.1-1.4 0.4-0.4 1-0.4 1.4 0.1q1.4 1.4 2.7 3c0.4 0.4 0.4 1-0.1 1.4q-0.3 0.2-0.6 0.2zm-142.9 0q0 0-0.1 0c-0.6-0.1-0.9-0.6-0.8-1.2q0.3-2 0.8-4c0.1-0.5 0.6-0.9 1.2-0.7 0.5 0.1 0.9 0.6 0.7 1.2q-0.4 1.9-0.8 3.9c-0.1 0.5-0.5 0.8-1 0.8zm136-7.4c-0.2 0-0.5-0.1-0.7-0.3q-1.4-1.4-2.8-2.9c-0.4-0.3-0.4-1-0.1-1.4 0.4-0.4 1.1-0.4 1.5 0q1.4 1.4 2.8 2.9c0.4 0.4 0.4 1 0 1.4q-0.3 0.3-0.7 0.3zm-133.6-2.4q-0.1 0-0.3-0.1c-0.5-0.1-0.8-0.7-0.7-1.2q0.7-2 1.3-3.9c0.2-0.5 0.8-0.8 1.3-0.6 0.5 0.2 0.8 0.8 0.6 1.3q-0.6 1.8-1.2 3.8c-0.2 0.4-0.6 0.7-1 0.7zm126.4-4.7q-0.4 0-0.7-0.2-1.5-1.4-3-2.8c-0.4-0.3-0.4-1-0.1-1.4 0.4-0.4 1-0.4 1.5-0.1q1.5 1.4 3 2.8c0.4 0.4 0.4 1 0 1.4-0.2 0.2-0.5 0.3-0.7 0.3zm-122.8-4.8q-0.2 0-0.4-0.1c-0.5-0.2-0.8-0.8-0.5-1.3q0.8-1.9 1.8-3.7c0.3-0.5 0.9-0.6 1.3-0.4 0.5 0.3 0.7 0.9 0.5 1.4q-1 1.7-1.8 3.5c-0.2 0.4-0.5 0.6-0.9 0.6zm115.2-1.9q-0.4 0-0.7-0.2-1.5-1.3-3.1-2.6c-0.4-0.3-0.5-0.9-0.1-1.4 0.3-0.4 0.9-0.5 1.4-0.1q1.6 1.2 3.1 2.6c0.4 0.3 0.5 0.9 0.2 1.4-0.2 0.2-0.5 0.3-0.8 0.3zm-8-6.2q-0.3 0-0.6-0.2-1.6-1.2-3.2-2.4c-0.5-0.3-0.6-0.9-0.3-1.4 0.3-0.4 1-0.5 1.4-0.2q1.7 1.1 3.3 2.4c0.5 0.3 0.6 0.9 0.2 1.4-0.2 0.2-0.5 0.4-0.8 0.4zm-102.3-0.7q-0.3 0-0.6-0.2c-0.4-0.3-0.5-0.9-0.2-1.4q1.1-1.7 2.4-3.3c0.3-0.4 1-0.5 1.4-0.2 0.4 0.4 0.5 1 0.2 1.4q-1.2 1.6-2.4 3.3c-0.2 0.2-0.5 0.4-0.8 0.4zm94-5.1q-0.3 0-0.5-0.1-1.7-1.1-3.5-2.2c-0.4-0.3-0.6-0.9-0.3-1.3 0.3-0.5 0.9-0.7 1.4-0.4q1.7 1.1 3.4 2.2c0.5 0.3 0.6 0.9 0.3 1.4-0.2 0.2-0.5 0.4-0.8 0.4zm-87.6-2.7q-0.4 0-0.7-0.3c-0.4-0.4-0.4-1 0-1.4q1.4-1.5 3-2.9c0.4-0.3 1-0.3 1.4 0.1 0.4 0.5 0.3 1.1-0.1 1.5q-1.5 1.2-2.9 2.7-0.3 0.3-0.7 0.3zm78.9-2.5q-0.3 0-0.5-0.1-1.8-1-3.5-1.8c-0.5-0.3-0.7-0.9-0.5-1.4 0.3-0.5 0.9-0.7 1.4-0.4q1.8 0.9 3.6 1.9c0.5 0.2 0.6 0.8 0.4 1.3-0.2 0.4-0.6 0.5-0.9 0.5zm-71.1-4c-0.3 0-0.7-0.1-0.9-0.4-0.3-0.5-0.1-1.1 0.3-1.4q1.8-1.1 3.6-2.1c0.4-0.3 1.1-0.1 1.3 0.4 0.3 0.5 0.1 1.1-0.4 1.3q-1.7 1-3.4 2.1-0.2 0.1-0.5 0.1zm62-0.4q-0.2 0-0.4-0.1-1.8-0.8-3.7-1.6c-0.5-0.2-0.7-0.8-0.5-1.3 0.2-0.5 0.7-0.7 1.3-0.5q1.8 0.7 3.7 1.5c0.5 0.3 0.8 0.9 0.5 1.4-0.1 0.3-0.5 0.6-0.9 0.6zm-9.4-3.7q-0.2 0-0.3 0-2-0.7-3.9-1.2c-0.5-0.2-0.8-0.7-0.7-1.2 0.2-0.6 0.7-0.9 1.3-0.7q1.9 0.5 3.9 1.2c0.5 0.1 0.8 0.7 0.6 1.2-0.1 0.4-0.5 0.7-0.9 0.7zm-43.7-0.5c-0.4 0-0.7-0.3-0.9-0.7-0.2-0.5 0.1-1 0.6-1.2q1.9-0.8 3.9-1.4c0.5-0.1 1.1 0.1 1.2 0.7 0.2 0.5-0.1 1.1-0.7 1.2q-1.9 0.6-3.7 1.3-0.2 0.1-0.4 0.1zm33.9-2.1q-0.1 0-0.2 0-2-0.4-3.9-0.7c-0.6-0.1-1-0.6-0.9-1.2 0.1-0.5 0.6-0.9 1.2-0.8q2 0.3 4 0.7c0.6 0.1 0.9 0.6 0.8 1.2-0.1 0.5-0.5 0.8-1 0.8zm-24.1-0.6c-0.5 0-0.9-0.4-1-0.9-0.1-0.5 0.2-1 0.8-1.1q2-0.4 4.1-0.6c0.5 0 1 0.4 1.1 0.9 0 0.6-0.4 1-0.9 1.1q-2 0.2-4 0.5-0.1 0.1-0.1 0.1zm14.1-0.8q0 0-0.1 0-2-0.1-4-0.1c-0.5 0-1-0.4-1-1 0-0.6 0.5-1 1-1q2.1 0 4.1 0.1c0.6 0.1 1 0.5 1 1.1-0.1 0.5-0.5 0.9-1 0.9z"/>
				</g>
				<g id="&lt;Group&gt;">
					<path id="&lt;Path&gt;" class="s0" d="m1269.2 325.9c-0.4 0-0.8-0.2-1-0.7l-0.7-1.8c-0.1-0.5 0.1-1.1 0.6-1.3 0.5-0.2 1.1 0.1 1.3 0.6l0.7 1.9c0.2 0.5-0.1 1.1-0.6 1.2q-0.2 0.1-0.3 0.1z"/>
				</g>
			</g>
			<g id="&lt;Group&gt;">
				<g id="&lt;Group&gt;">
					<path id="&lt;Path&gt;" class="s9" d="m1232.9 475.1c-0.4 0-0.8-0.2-0.9-0.6q-0.4-0.9-0.8-1.9c-0.2-0.5 0-1.1 0.6-1.3 0.5-0.2 1 0.1 1.3 0.6q0.4 0.9 0.7 1.8c0.2 0.5 0 1.1-0.5 1.3q-0.2 0.1-0.4 0.1z"/>
				</g>
				<g id="&lt;Group&gt;">
					<path id="&lt;Compound Path&gt;" class="s9" d="m1205.3 568.2q0 0 0 0-2 0-4-0.2c-0.6-0.1-1-0.5-0.9-1.1 0-0.5 0.5-0.9 1-0.9q2 0.2 3.9 0.2c0.6 0 1 0.5 1 1 0 0.6-0.4 1-1 1zm5.9-0.4c-0.5 0-0.9-0.4-1-0.9 0-0.5 0.3-1 0.9-1.1q1.9-0.3 3.7-0.8c0.6-0.1 1.1 0.2 1.3 0.7 0.1 0.6-0.2 1.1-0.7 1.2q-2 0.6-4 0.9-0.1 0-0.2 0zm-15.7-0.7q-0.1 0-0.2 0-2-0.5-3.9-1c-0.6-0.2-0.9-0.7-0.7-1.3 0.1-0.5 0.7-0.8 1.2-0.6q1.9 0.5 3.8 0.9c0.5 0.1 0.9 0.7 0.8 1.2-0.1 0.5-0.6 0.8-1 0.8zm25.2-2.2c-0.4 0-0.8-0.2-0.9-0.5-0.3-0.5-0.1-1.1 0.4-1.4q1.8-0.8 3.4-1.8c0.5-0.3 1.1-0.2 1.4 0.3 0.3 0.5 0.1 1.1-0.3 1.4q-1.8 1.1-3.6 2-0.2 0-0.4 0zm-34.7-0.7q-0.2 0-0.3-0.1-1.9-0.7-3.7-1.5c-0.5-0.3-0.8-0.9-0.5-1.4 0.2-0.5 0.8-0.7 1.3-0.5q1.8 0.9 3.6 1.6c0.5 0.2 0.8 0.7 0.6 1.3-0.2 0.3-0.6 0.6-1 0.6zm42.8-4.8c-0.2 0-0.5-0.1-0.7-0.3-0.4-0.4-0.4-1 0.1-1.4q1.3-1.3 2.6-2.8c0.4-0.4 1-0.5 1.4-0.1 0.4 0.4 0.5 1 0.1 1.4q-1.3 1.6-2.8 3-0.3 0.2-0.7 0.2zm6.2-7.6q-0.2 0-0.5-0.2c-0.4-0.3-0.6-0.9-0.3-1.4q1-1.6 1.9-3.4c0.2-0.5 0.8-0.7 1.3-0.4 0.5 0.2 0.7 0.8 0.4 1.3q-0.9 1.9-1.9 3.6c-0.2 0.3-0.5 0.5-0.9 0.5zm4.2-9q-0.1 0-0.3-0.1c-0.5-0.1-0.8-0.7-0.6-1.2q0.6-1.8 1.1-3.8c0.1-0.5 0.7-0.8 1.2-0.7 0.5 0.2 0.9 0.7 0.7 1.3q-0.5 1.9-1.1 3.8c-0.2 0.4-0.6 0.7-1 0.7zm2.4-9.6q-0.1 0-0.2 0c-0.5-0.1-0.9-0.6-0.8-1.2q0.3-1.9 0.5-3.8c0.1-0.6 0.6-1 1.1-0.9 0.6 0 1 0.5 0.9 1.1q-0.2 2-0.5 4c-0.1 0.4-0.5 0.8-1 0.8zm0.9-9.9q0 0 0 0c-0.6 0-1-0.4-1-1q0.1-1.3 0.1-2.7v-1.2c0-0.6 0.4-1 0.9-1 0.6 0.1 1.1 0.4 1.1 1v1.2q0 1.4-0.1 2.8c0 0.5-0.4 0.9-1 0.9zm-0.2-9.9c-0.5 0-1-0.4-1-0.9q-0.1-1.9-0.4-3.9c0-0.5 0.4-1 0.9-1.1 0.6-0.1 1.1 0.3 1.1 0.9q0.2 2 0.4 4c0 0.5-0.4 1-0.9 1q-0.1 0-0.1 0zm-1.2-9.8c-0.5 0-0.9-0.3-1-0.8q-0.3-2-0.7-3.9c-0.1-0.5 0.2-1.1 0.8-1.2 0.5-0.1 1.1 0.3 1.2 0.8q0.4 2 0.7 3.9c0.1 0.6-0.3 1.1-0.8 1.2q-0.1 0-0.2 0zm-2-9.7c-0.5 0-0.9-0.3-1-0.7q-0.5-1.9-1-3.8c-0.2-0.6 0.1-1.1 0.7-1.3 0.5-0.1 1.1 0.2 1.2 0.7q0.6 1.9 1 3.9c0.2 0.5-0.2 1.1-0.7 1.2q-0.1 0-0.2 0zm-2.8-9.5c-0.4 0-0.8-0.3-0.9-0.7q-0.7-1.8-1.3-3.7c-0.2-0.5 0.1-1.1 0.6-1.3 0.5-0.2 1.1 0.1 1.3 0.6q0.6 1.9 1.3 3.8c0.1 0.5-0.2 1.1-0.7 1.2q-0.1 0.1-0.3 0.1z"/>
				</g>
				<g id="&lt;Group&gt;">
					<path id="&lt;Path&gt;" class="s9" d="m1177 559.9q-0.2 0-0.5-0.1-0.9-0.5-1.7-1c-0.5-0.3-0.7-0.9-0.4-1.3 0.3-0.5 0.9-0.7 1.4-0.4q0.8 0.5 1.7 1c0.5 0.2 0.6 0.8 0.4 1.3-0.2 0.4-0.5 0.5-0.9 0.5z"/>
				</g>
			</g>
			<g id="&lt;Group&gt;">
				<path id="&lt;Path&gt;" class="s9" d="m1230.5 476.1q0 0 0 0c-0.6-0.1-1-0.5-1-1.1l0.4-5.3c0-0.4 0.2-0.7 0.5-0.9 0.4-0.1 0.8-0.1 1.1 0.1l4.5 3.4c0.4 0.3 0.5 0.9 0.2 1.4-0.4 0.4-1 0.5-1.4 0.2l-3.1-2.3-0.2 3.5c0 0.6-0.4 1-1 1z"/>
			</g>
		</g>
		<path id="&lt;Path&gt;" class="s7" d="m849.9 310.6v3.3c1.9 0.3 3.3 1.3 3.3 2.5l0.1 11.4c0 1.4-2 2.5-4.4 2.5h-3.4c-2.5 0-4.5-1.1-4.5-2.6l-0.1-11.3c0-1.2 1.4-2.2 3.3-2.5v-3.3c-10-0.8-17.8-5.8-17.8-11.8 0-6.6 9.2-11.9 20.5-11.9 11.4 0 20.7 5.4 20.7 11.9 0 6.1-7.7 11-17.7 11.8z"/>
		<g id="&lt;Group&gt;">
			<path id="&lt;Path&gt;" class="s2" d="m1116.9 763.7l-357.6-206.6c-13.8-8-25-29.4-25-47.9v-325.2c0-18.5 11.2-27 25-19l357.6 206.6c13.8 8 25 29.4 25 47.9v325.2c0 18.5-11.2 26.9-25 19z"/>
			<path id="&lt;Path&gt;" class="s12" d="m1151.8 414.3v325.3c0 9.5-2.9 16.3-7.7 19.7-0.3 0.2-10.7 5.8-11 6-1 0.5-1.7 0.8-2.2 0.7 6.6-2.1 11-9.8 11-21.3v-325.2c0-18.5-11.2-39.9-25-47.9l-357.6-206.6c-5.9-3.4-11.3-3.8-15.6-1.7q0 0 0.1 0c0.5-0.3 10.2-5.3 10.8-5.5 4.1-1.6 9.2-1 14.6 2.1l357.6 206.6c13.8 7.9 25 29.4 25 47.8z"/>
			<path id="&lt;Path&gt;" class="s13" d="m1116.9 371.6l-357.6-206.6c-5.9-3.4-11.3-3.8-15.6-1.7q0 0 0.1 0c0.4-0.3 7.4-4 8-4.2 4.1-1.6 9.2-1 14.6 2.2l357.6 206.5z"/>
			<path id="&lt;Path&gt;" class="s14" d="m1143.1 418.9v325.2c0 12.6-5.2 20.6-13 21.8 6.1-2.6 10-10 10-20.9v-325.2c0-18.5-11.2-39.9-25-47.9l-357.6-206.6c-4.4-2.5-8.5-3.4-12.1-2.8 4.2-1.8 9.5-1.3 15.1 1.9l357.6 206.6c13.8 8 25 29.4 25 47.9z"/>
			<g id="&lt;Group&gt;">
				<path id="&lt;Path&gt;" class="s15" d="m1127.8 432.1v313.3c0 3.7-3.9 6-7.1 4.2q-0.4-0.2-0.6-0.4l-353.7-204.3c-11.2-7.1-18.1-21.2-18.1-35.7v-296.3z"/>
			</g>
			<g id="&lt;Group&gt;">
				<path id="&lt;Path&gt;" class="s16" d="m1127.5 747c-0.9 2.7-4.1 4.1-6.8 2.6q-0.4-0.2-0.6-0.4l-353.7-204.3c-11.2-7.1-18.1-21.2-18.1-35.7v-296.3l6.7 3.8v289.9c0 14.4 6.9 28.6 18 35.7l353.8 204.3q0.2 0.1 0.5 0.3 0.1 0.1 0.2 0.1z"/>
			</g>
			<g id="&lt;Group&gt;">
				<path id="&lt;Path&gt;" class="s17" d="m1114.8 392.6c3.8 2.2 6.9 7.5 6.9 11.9 0 4.4-3.1 6.1-6.9 3.9-3.8-2.1-6.9-7.5-6.9-11.8 0-4.4 3.1-6.2 6.9-4z"/>
				<path id="&lt;Path&gt;" class="s9" d="m1097 382.3c3.8 2.2 6.9 7.5 6.9 11.9 0 4.4-3.1 6.1-6.9 3.9-3.8-2.2-6.9-7.5-6.9-11.9 0-4.4 3.1-6.1 6.9-3.9z"/>
				<path id="&lt;Path&gt;" class="s18" d="m1079.2 372c3.9 2.1 6.9 7.5 6.9 11.8 0 4.4-3 6.2-6.9 4-3.8-2.2-6.8-7.5-6.8-11.9 0-4.4 3-6.1 6.8-3.9z"/>
			</g>
		</g>
		<path id="&lt;Compound Path&gt;" class="s6" d="m986.4 374.2c0 3-2.2 4.2-4.8 2.7l-25.9-15c-2.6-1.5-4.8-5.2-4.8-8.2 0-3 2.2-4.2 4.8-2.7l25.9 15c2.6 1.5 4.8 5.2 4.8 8.2zm42.7 24.6c0 3.1-2.1 4.3-4.8 2.8l-25.9-15c-2.6-1.5-4.8-5.2-4.8-8.2 0-3 2.2-4.2 4.8-2.7l25.9 15c2.7 1.5 4.8 5.1 4.8 8.1zm42.7 24.7c0 3-2.1 4.2-4.8 2.7l-25.9-15c-2.6-1.5-4.7-5.1-4.7-8.1 0-3.1 2.1-4.3 4.7-2.8l25.9 15c2.7 1.5 4.8 5.2 4.8 8.2zm42.7 24.7c0 3-2.1 4.2-4.7 2.7l-26-15c-2.6-1.5-4.7-5.2-4.7-8.2 0-3 2.1-4.2 4.7-2.7l26 15c2.6 1.5 4.7 5.2 4.7 8.2z"/>
		<g id="&lt;Group&gt;">
			<g id="&lt;Group&gt;">
				<path id="&lt;Path&gt;" class="s19" d="m890.9 379.9v112l-12.2 7.2v-111.7z"/>
				<path id="&lt;Path&gt;" class="s12" d="m878.7 387.4v111.7l-243.6-139.7v-112z"/>
				<path id="&lt;Path&gt;" class="s6" d="m647.2 240.1l243.7 139.8-12.2 7.5-243.6-140z"/>
				<path id="&lt;Path&gt;" class="s11" d="m878.7 385.7l12.2-5.8-12.2 7.5-243.6-140z"/>
			</g>
			<g id="&lt;Group&gt;">
				<path id="&lt;Path&gt;" class="s7" d="m766.2 414.9v-4.8l76.9 43.7v4.8z"/>
				<path id="&lt;Path&gt;" class="s7" d="m862.1 395.9v4.7l-129.2-73.9v-4.8z"/>
				<path id="&lt;Path&gt;" class="s7" d="m778.4 392.4l-45.5-26.3v-4.8l45.5 26.3z"/>
				<path id="&lt;Path&gt;" class="s7" d="m828 435.3v4.7l-18.8-10.2v-4.7z"/>
				<path id="&lt;Path&gt;" class="s7" d="m806.3 388.8l-73.4-42.4v-4.8l73.4 42.4z"/>
				<path id="&lt;Path&gt;" class="s7" d="m759.8 371.8l-26.9-15.6v-4.7l26.9 15.5z"/>
				<path id="&lt;Path&gt;" class="s7" d="m752.9 392.6l51.6 29.8v4.7l-51.6-29.7z"/>
				<path id="&lt;Path&gt;" class="s7" d="m836.9 410.8v4.8l-72.5-41.1v-4.8z"/>
				<path id="&lt;Path&gt;" class="s7" d="m819.3 411.2v4.8l-36.2-20.9v-4.8z"/>
				<path id="&lt;Path&gt;" class="s7" d="m748.3 394.7l-15.4-8.9v-4.7l15.4 8.8z"/>
				<path id="&lt;Path&gt;" class="s7" d="m810.9 386.7l51.2 28.9v4.7l-51.2-28.9z"/>
				<path id="&lt;Path&gt;" class="s7" d="m841.5 413.5l20.6 11.9v4.8l-20.6-11.9z"/>
				<path id="&lt;Path&gt;" class="s7" d="m732.9 331.8l129.2 73.9v4.8l-129.2-74z"/>
				<path id="&lt;Path&gt;" class="s7" d="m823.9 413.9l38.2 21.4v4.7l-38.2-21.3z"/>
				<path id="&lt;Path&gt;" class="s7" d="m761.5 412.2l-28.6-16.6v-4.7l28.6 16.5z"/>
				<path id="&lt;Path&gt;" class="s7" d="m847.7 456.5l14.4 8.3v4.8l-14.4-8.3z"/>
				<path id="&lt;Path&gt;" class="s7" d="m832.6 438l29.5 17v4.7l-29.5-17z"/>
				<path id="&lt;Path&gt;" class="s7" d="m732.9 371.2l129.2 73.9v4.8l-129.2-74z"/>
			</g>
			<path id="&lt;Path&gt;" class="s19" d="m719.3 328.9v49.2c0 9.9-6 14.4-13.4 10.1l-42.5-24.5c-7.4-4.3-13.4-15.8-13.4-25.7v-49.2c0-9.9 6-14.5 13.4-10.2l42.5 24.6c7.4 4.3 13.4 15.8 13.4 25.7z"/>
			<path id="&lt;Path&gt;" class="s20" d="m717.7 385.7c-2.3 4.3-6.7 5.5-11.8 2.5l-42.5-24.5c-7.4-4.3-13.4-15.8-13.4-25.7v-49.2c0-6.7 2.7-11 6.9-11.7-1.1 2-1.7 4.6-1.7 7.7v49.2c0 9.9 6 21.4 13.5 25.7l42.4 24.5c2.4 1.4 4.6 1.9 6.6 1.5z"/>
			<g id="&lt;Group&gt;">
				<path id="&lt;Path&gt;" class="s18" d="m686.3 342.6v49.2c0 9.9-6 14.5-13.4 10.2l-42.5-24.6c-7.4-4.3-13.4-15.8-13.4-25.7v-49.2c0-9.9 6-14.4 13.4-10.1l42.5 24.5c7.4 4.3 13.4 15.8 13.4 25.7z"/>
				<path id="&lt;Path&gt;" class="s21" d="m693.3 338.6v49.2c0 6.5-3.2 9.6-6.6 11.6l-4.1 2.7c2.3-1.9 3.7-5.5 3.7-10.3v-49.2c0-9.9-6-21.4-13.4-25.7l-42.5-24.5c-3.4-2-6.5-2.1-8.9-0.7v-0.1l7.4-4.3v0.1c2.3-1.1 5.3-0.9 8.4 0.9l42.5 24.6c7.4 4.3 13.5 15.8 13.5 25.7z"/>
				<path id="&lt;Path&gt;" class="s11" d="m687.1 342v49.2c0 6-2.2 10-5.6 11.3 2.4-1.8 4-5.4 4-10.4v-49.2c0-9.9-6.1-21.4-13.5-25.7l-42.5-24.6c-2.9-1.7-5.6-2-7.8-1.1 2.4-1.8 5.8-1.9 9.5 0.2l42.4 24.6c7.5 4.3 13.5 15.8 13.5 25.7z"/>
				<path id="&lt;Compound Path&gt;" fill-rule="evenodd" class="s7" d="m674.3 332.6v56.2l-46.1-26.6v-56.3zm-2.9 1.7l-40.2-23.2v49.5l40.2 23.2z"/>
				<path id="&lt;Path&gt;" class="s7" d="m664.2 342.6c0 3.7-2.6 5.1-5.8 3.3-3.3-1.9-5.9-6.4-5.9-10.1 0-3.6 2.6-5.1 5.9-3.3 3.2 1.9 5.8 6.4 5.8 10.1z"/>
				<path id="&lt;Path&gt;" class="s7" d="m629.8 347.3l12-15.5 12.1 30.8 8.9-7.2 9.8 26.6-0.2 2.7-42.4-22.7z"/>
			</g>
		</g>
		<g id="&lt;Group&gt;">
			<g id="&lt;Group&gt;">
				<path id="&lt;Path&gt;" class="s17" d="m1191.9 349.4c0 7.6-2.7 13.1-7 15.7-0.1 0.1-7.3 4.5-7.4 4.6-4.5 2.5-1.6-3.2-8.4-7.1-13.7-7.9-24.7-26.9-24.7-42.6 0-7.7-7.2-7.8-2.8-10.4 0.1-0.1 8.2-4.7 8.3-4.7 4.5-2.4 10.5-2 17.3 1.9 13.6 7.9 24.7 26.9 24.7 42.6z"/>
				<path id="&lt;Path&gt;" class="s7" d="m1185 353.6c0 9.3-3.9 15.3-10 17 4.8-2.4 7.8-8 7.8-16.1 0-15.7-11-34.8-24.7-42.7-5.5-3.2-10.6-4-14.7-2.9 4.4-2.2 10.3-1.7 16.9 2.1 13.6 7.9 24.7 27 24.7 42.6z"/>
				<path id="&lt;Path&gt;" class="s22" d="m1183.8 354.2c0 15.7-11.1 22-24.7 14.1-13.7-7.9-24.7-27-24.7-42.6 0-15.7 11-22 24.7-14.1 13.6 7.9 24.7 27 24.7 42.6z"/>
			</g>
			<path id="&lt;Path&gt;" class="s23" d="m1154.7 329.8c0 2.2-1.6 3.1-3.5 2-1.9-1.1-3.5-3.8-3.5-6 0-2.2 1.6-3.1 3.5-2 1.9 1.1 3.5 3.8 3.5 6z"/>
			<path id="&lt;Path&gt;" class="s23" d="m1168.7 337.9c0 2.2-1.6 3.1-3.5 2-1.9-1.1-3.4-3.8-3.4-6 0-2.2 1.5-3.1 3.4-2 1.9 1.1 3.5 3.8 3.5 6z"/>
			<path id="&lt;Path&gt;" class="s23" d="m1145.1 338.9l3.2 0.5c1.5 5.7 5.5 11.2 10 13.8 4.3 2.5 8.2 1.7 9.8-2.1l3.2 3.3c-2.1 5-7.3 6-13 2.7-5.9-3.4-11.2-10.7-13.2-18.2z"/>
			<path id="&lt;Path&gt;" class="s24" d="m1154.2 331.5c-0.6 0.8-1.7 1-3 0.3-1.9-1.1-3.5-3.8-3.5-6 0-1.4 0.6-2.2 1.5-2.4-0.3 0.4-0.5 1-0.5 1.7 0 2.2 1.6 4.9 3.5 6 0.7 0.4 1.4 0.5 2 0.4z"/>
			<path id="&lt;Path&gt;" class="s24" d="m1168.2 339.6c-0.6 0.9-1.7 1-3 0.3-1.9-1.1-3.4-3.8-3.4-6 0-1.4 0.5-2.2 1.4-2.4-0.3 0.4-0.4 1-0.4 1.7 0 2.2 1.5 4.9 3.4 6 0.8 0.4 1.5 0.5 2 0.4z"/>
			<g id="&lt;Group&gt;">
				<path id="&lt;Path&gt;" class="s24" d="m1166.6 353.3q0.9-0.8 1.5-2.2l0.4 0.5q-0.8 1.1-1.9 1.7z"/>
				<path id="&lt;Path&gt;" class="s24" d="m1169.2 357.4c-2.6 2.2-6.6 2.2-10.9-0.3-5.9-3.4-11.2-10.7-13.2-18.2l1.3 0.2c2.1 7.2 7.2 14.1 12.9 17.3 3.8 2.2 7.3 2.5 9.9 1z"/>
			</g>
		</g>
		<g id="&lt;Group&gt;">
			<g id="&lt;Group&gt;">
				<path id="&lt;Path&gt;" class="s19" d="m1191.9 587.5v136.7l-12.2 7.2v-136.4z"/>
				<path id="&lt;Path&gt;" class="s25" d="m1177.8 595v136.4l-266.6-152.9v-136.7z"/>
				<path id="&lt;Path&gt;" class="s6" d="m925.3 434.5l266.6 153-12.1 7.5-266.6-153.2z"/>
				<path id="&lt;Path&gt;" class="s11" d="m1179.7 593.3l12.2-5.8-12.1 7.5-266.6-153.2z"/>
			</g>
			<path id="&lt;Path&gt;" class="s19" d="m1163.6 654.7c0 26.5-18.7 37.2-41.8 23.9-23.2-13.4-41.9-45.7-41.9-72.2 0-26.5 18.7-37.2 41.9-23.8 23.1 13.3 41.8 45.6 41.8 72.1z"/>
			<path id="&lt;Path&gt;" class="s20" d="m1156.5 677.3c-7.5 8.5-20.3 9.6-34.7 1.3-23.2-13.4-41.9-45.7-41.9-72.2 0-12.6 4.2-21.5 11.1-26.1-4.5 5-7.1 12.7-7.1 22.6 0 26.5 18.7 58.8 41.9 72.2 12.1 7 23.1 7.3 30.7 2.2z"/>
			<g id="&lt;Group&gt;">
				<path id="&lt;Compound Path&gt;" class="s19" d="m1004.3 618.1l-9-5.2v-101.4l9 5.2zm13 7.4l-9-5.2v-113.9l9 5.2zm13.3 7.7l-9-5.2v-98.6l9 5.2zm-52.9-86.2v55.5l-9-5.1v-55.6zm13.3 63.2l-9-5.2v-83.8l9 5.2zm52.7 30.7l-9-5.2v-78.1l9 5.2zm12.8 7.5l-9-5.2v-53.3l9 5.2zm-92.2-53.8l-9-5.2v-62.3l9 5.2zm-26.6-53.5v37.8l-9-5.2v-37.8zm13.3 45.4l-9-5.2v-65.4l9 5.2z"/>
				<path id="&lt;Compound Path&gt;" class="s0" d="m1004.3 618.1l-9-5.2v-61.6l9 5.2zm13 7.3l-9-5.2v-96.9l9 5.2zm13.3 7.6l-9-5.2v-80.5l9 5.2zm-52.9-72.7v42l-9-5.2v-42zm13.3 49.6l-9-5.2v-56.5l9 5.2zm-26.7-15.6l-9-5.2v-57.2l9 5.2zm-26.6-26.7v11l-9-5.2v-11zm13.3 18.6l-9-5.2v-23.7l9 5.2zm92.7 54.4l-9-5.2v-63.5l9 5.2zm12.8 7.5l-9-5.2v-45.5l9 5.2z"/>
				<g id="&lt;Group&gt;">
					<path id="&lt;Path&gt;" class="s7" d="m1030.6 553.6l-9-5.2v-1.1l9 5.2z"/>
					<path id="&lt;Path&gt;" class="s7" d="m1017.3 529.6l-9-5.2v-1.1l9 5.2z"/>
					<path id="&lt;Path&gt;" class="s7" d="m1056.5 603.9l-9-5.2v-1.2l9 5.2z"/>
					<path id="&lt;Path&gt;" class="s7" d="m1004.3 557.6l-9-5.2v-1.1l9 5.2z"/>
					<path id="&lt;Path&gt;" class="s7" d="m1043.7 578.3l-9-5.2v-1.1l9 5.2z"/>
					<path id="&lt;Path&gt;" class="s7" d="m951 563.7l-9-5.2v-1.2l9 5.2z"/>
					<path id="&lt;Path&gt;" class="s7" d="m964.3 538.2l-9-5.2v-1.1l9 5.2z"/>
					<path id="&lt;Path&gt;" class="s7" d="m937.7 567.7v1.1l-9-5.2v-1.1z"/>
					<path id="&lt;Path&gt;" class="s7" d="m991 554.6l-9-5.2v-1.1l9 5.2z"/>
					<path id="&lt;Path&gt;" class="s7" d="m977.7 561.5l-9-5.2v-1.2l9 5.2z"/>
				</g>
			</g>
			<g id="&lt;Group&gt;">
				<g id="&lt;Group&gt;">
					<path id="&lt;Path&gt;" class="s17" d="m1077.8 613.5l-5.3-4.8c0.3-25.5 18.6-35.8 41.1-22.8 11.9 6.9 22.6 18.9 30.1 32.5l-6.6 1.7c-6-10.5-14.3-19.6-23.5-25-17.9-10.3-32.5-2.3-33 17.7z"/>
					<path id="&lt;Path&gt;" class="s17" d="m1135.3 685.6c-0.2 0-2.5 0.7-2.7 0.7-6.2 0.6-11.4-1.7-19-6.1-21.1-12.2-41.2-40.1-43.6-64.9 0-0.2 2.7-0.7 2.7-0.9l8.1 4.1c1.9 19.9 15.9 42.7 32.8 52.5 6 3.4 11.7 4.8 16.5 4.4z"/>
					<path id="&lt;Path&gt;" class="s17" d="m1146.8 624.5c4.9 10.6 7.9 21.9 7.9 32.3 0 14.8-6 24.6-15.4 27.9l-5.1-10.2c7.5-2.5 12.4-10.4 12.4-22.4 0-8.3-2.4-17.4-6.4-26z"/>
				</g>
				<path id="&lt;Path&gt;" class="s17" d="m1130 653.1v6.3c0 0.7-0.2 1.1-0.7 1.3-0.3 0.1-2.9 1.1-3.4 0.8l-26.8-17.8c-1.1-0.6-2-2.1-2-3.3v-6.3c0-2.2-1.4-3.1-0.1-3.8 0.1-0.1 2.6-0.7 2.8-0.8q1.1-0.3 2.5 0.1c2.2 0.7 4.2 0.6 5.7-0.2 1-0.5 1-2.3 0-3.9-1.2-2.1-2.2-4.4-2.9-6.7-1-0.9-2.3-2.7-2.3-4.1 0-1.5 0.6-2.3 1.5-2.1 0.1-3.3-1.6-5.3 0.3-6.3 0.2-0.1 3-0.8 3.3-0.9 1.4-0.3 3.2 0.2 5.7 1.6 7 4 9.1 10.3 9.3 16.4 0.8 0.8 1.5 2.3 1.5 3.7 0 1.4-1.3 1.8-2.3 1.5-0.7 1.5-1.8 2.6-3 3.3-0.9 0.5-0.9 2.3 0 3.9 1.6 2.6 3.6 5 5.8 6.9 3 2.5 5.1 6.8 5.1 10.4z"/>
				<g id="&lt;Group&gt;">
					<path id="&lt;Path&gt;" class="s7" d="m1070.7 609.3c0.3-25.6 18.6-35.9 41.1-22.9 11.9 6.9 22.6 18.9 30.1 32.5l-6.6 1.7c-6-10.5-14.3-19.6-23.5-24.9-17.9-10.4-32.5-2.4-33 17.6z"/>
					<path id="&lt;Path&gt;" class="s7" d="m1133.5 686.1c-6.3 0.9-13.7-0.8-21.7-5.4-21.2-12.2-38.7-40.8-40.9-65.8l8.1 4.1c1.9 19.9 15.8 42.7 32.8 52.5 6 3.5 11.7 4.8 16.5 4.4z"/>
					<path id="&lt;Path&gt;" class="s7" d="m1145 625c4.9 10.6 7.9 21.9 7.9 32.3 0 14.8-6.1 24.6-15.4 27.9l-5.2-10.1c7.6-2.6 12.5-10.5 12.5-22.5 0-8.3-2.4-17.4-6.4-26z"/>
				</g>
				<path id="&lt;Path&gt;" class="s7" d="m1128.2 653.6v6.3c0 1.2-0.8 1.7-1.9 1.1l-29.1-16.8c-1-0.6-1.9-2.1-1.9-3.3v-6.3c0-3.6 2.2-5.3 5.1-4.5 2.3 0.7 4.3 0.6 5.8-0.2 1-0.5 1-2.3 0-3.9-1.2-2.1-2.2-4.4-2.9-6.7-1-0.9-2.3-2.7-2.3-4.1 0-1.4 0.6-2.3 1.5-2.1 0.2-5.8 2.3-9.6 9.3-5.6 7 4.1 9 10.3 9.3 16.4 0.8 0.8 1.5 2.3 1.5 3.7 0 1.4-1.3 1.8-2.3 1.5-0.7 1.5-1.8 2.6-3 3.3-0.9 0.6-0.9 2.3 0 3.9 1.6 2.7 3.6 5.1 5.8 6.9 3 2.5 5.1 6.8 5.1 10.4z"/>
				<g id="&lt;Group&gt;">
					<path id="&lt;Path&gt;" class="s26" d="m1069.7 609.5c0.2-25.5 18.6-35.8 41-22.8 11.9 6.8 22.6 18.8 30.2 32.5l-6.6 1.6c-6-10.4-14.4-19.6-23.6-24.9-17.8-10.3-32.4-2.3-32.9 17.7z"/>
					<path id="&lt;Path&gt;" class="s26" d="m1132.5 686.4c-6.3 0.9-13.8-0.8-21.8-5.4-21.2-12.3-38.7-40.9-40.8-65.8l8 4.1c1.9 19.9 15.9 42.7 32.8 52.4 6.1 3.5 11.7 4.9 16.6 4.4z"/>
					<path id="&lt;Path&gt;" class="s26" d="m1143.9 625.2c5 10.7 7.9 22 7.9 32.4 0 14.8-6 24.6-15.4 27.8l-5.1-10.1c7.6-2.6 12.5-10.4 12.5-22.4 0-8.4-2.4-17.4-6.4-26z"/>
				</g>
				<path id="&lt;Path&gt;" class="s26" d="m1127.2 653.9v6.3c0 1.2-0.9 1.7-1.9 1.1l-29.1-16.8c-1-0.6-1.9-2.1-1.9-3.3v-6.3c0-3.6 2.2-5.4 5.1-4.5 2.2 0.7 4.2 0.6 5.8-0.2 1-0.5 0.9-2.3 0-3.9-1.2-2.1-2.3-4.5-3-6.7-1-0.9-2.2-2.8-2.2-4.2 0-1.4 0.6-2.2 1.4-2 0.3-5.8 2.4-9.7 9.3-5.6 7 4 9.1 10.3 9.4 16.3 0.8 0.8 1.4 2.4 1.4 3.8 0 1.4-1.2 1.8-2.2 1.5-0.7 1.5-1.8 2.6-3 3.3-0.9 0.5-1 2.3 0 3.9 1.6 2.6 3.6 5 5.8 6.9 2.9 2.5 5.1 6.8 5.1 10.4z"/>
			</g>
		</g>
		<g id="&lt;Group&gt;">
			<g id="&lt;Group&gt;">
				<path id="&lt;Path&gt;" class="s21" d="m924.2 555.2v57.4l-9.5 5.2v-57.1z"/>
				<path id="&lt;Path&gt;" class="s18" d="m914.7 560.7v57.1l-211.3-121.9v-57.5z"/>
				<path id="&lt;Path&gt;" class="s27" d="m712.9 433l211.3 122.2-9.5 5.5-211.3-122.3z"/>
				<path id="&lt;Path&gt;" class="s11" d="m914.9 559.2l9.3-4-9.5 5.5-211.3-122.3z"/>
			</g>
			<path id="&lt;Path&gt;" class="s7" d="m904 600.6l-190.2-111v-33.6l190.2 110.9z"/>
			<g id="&lt;Group&gt;">
				<path id="&lt;Compound Path&gt;" class="s20" d="m721.8 465.5l3.9 2.2 1.7 18.3 0.1 0.1 1.9-16.3 4.3 2.6 1.9 18.4h0.1l1.8-16.3 3.4 2-2.5 22.6-5-2.9-1.8-15.6-0.1-0.1-1.8 13.6-5.3-3.1z"/>
				<path id="&lt;Compound Path&gt;" class="s20" d="m744.6 478.7l3.8 2.2 1.8 18.4h0.1l1.9-16.2 4.3 2.5 1.9 18.4h0.1l1.7-16.3 3.5 2-2.6 22.6-5-2.8-1.8-15.7-1.9 13.5-5.3-3z"/>
				<path id="&lt;Compound Path&gt;" class="s20" d="m767.5 491.7l3.9 2.3 1.7 18.3 0.1 0.1 1.9-16.3 4.3 2.5 1.9 18.5h0.1l1.8-16.3 3.4 2-2.5 22.6-5-2.9-1.8-15.6-0.1-0.1-1.8 13.6-5.3-3.1z"/>
			</g>
		</g>
		<g id="&lt;Group&gt;">
			<g id="&lt;Group&gt;">
				<path id="&lt;Path&gt;" class="s17" d="m805.3 263.3v40.1l-6 3.3v-39.8z"/>
				<path id="&lt;Path&gt;" class="s22" d="m799.4 266.9v39.8l-35.5-20.5v-40.1z"/>
				<path id="&lt;Path&gt;" class="s26" d="m769.8 242.6l35.5 20.7-5.9 3.6-35.5-20.8z"/>
				<path id="&lt;Path&gt;" class="s7" d="m799.1 265l6.2-1.7-5.9 3.6-35.5-20.8z"/>
			</g>
			<g id="&lt;Group&gt;">
				<path id="&lt;Path&gt;" class="s10" d="m840.2 247.8v64.9l-9.7 5.4v-64.5z"/>
				<path id="&lt;Path&gt;" class="s28" d="m782.7 214.3l57.5 33.5-9.6 5.8-57.4-33.6z"/>
				<path id="&lt;Path&gt;" class="s11" d="m830.8 252.2l9.4-4.4-9.6 5.8-57.4-33.6z"/>
			</g>
			<path id="&lt;Path&gt;" class="s9" d="m830.6 253.6v64.5l-27-15.6v-38l-30.4-17.8v-26.7z"/>
		</g>
		<g id="&lt;Group&gt;">
			<g id="&lt;Group&gt;">
				<path id="&lt;Path&gt;" class="s21" d="m959.9 405.3v44.8l-6.7 3.7v-44.5z"/>
				<path id="&lt;Path&gt;" class="s18" d="m953.2 409.3v44.5l-39.6-22.9v-44.8z"/>
				<path id="&lt;Path&gt;" class="s27" d="m920.2 382.1l39.7 23.2-6.7 4-39.6-23.2z"/>
				<path id="&lt;Path&gt;" class="s11" d="m952.9 407.2l7-1.9-6.7 4-39.6-23.2z"/>
			</g>
			<g id="&lt;Group&gt;">
				<path id="&lt;Path&gt;" class="s21" d="m1011.9 435.3v44.8l-6.7 3.7v-44.5z"/>
				<path id="&lt;Path&gt;" class="s18" d="m1005.2 439.3v44.5l-39.6-22.9v-44.8z"/>
				<path id="&lt;Path&gt;" class="s27" d="m972.2 412.1l39.7 23.2-6.7 4-39.6-23.2z"/>
				<path id="&lt;Path&gt;" class="s11" d="m1004.9 437.2l7-1.9-6.7 4-39.6-23.2z"/>
			</g>
			<g id="&lt;Group&gt;">
				<path id="&lt;Path&gt;" class="s21" d="m1063.6 464.9v44.9l-6.7 3.7v-44.5z"/>
				<path id="&lt;Path&gt;" class="s18" d="m1056.9 469v44.5l-39.6-22.9v-44.9z"/>
				<path id="&lt;Path&gt;" class="s27" d="m1023.9 441.8l39.7 23.1-6.7 4.1-39.6-23.3z"/>
				<path id="&lt;Path&gt;" class="s11" d="m1056.6 466.8l7-1.9-6.7 4.1-39.6-23.3z"/>
			</g>
			<g id="&lt;Group&gt;">
				<path id="&lt;Path&gt;" class="s21" d="m1114.6 493.9v44.9l-6.7 3.7v-44.5z"/>
				<path id="&lt;Path&gt;" class="s18" d="m1107.9 498v44.5l-39.6-22.9v-44.9z"/>
				<path id="&lt;Path&gt;" class="s27" d="m1074.9 470.8l39.7 23.1-6.7 4.1-39.6-23.3z"/>
				<path id="&lt;Path&gt;" class="s11" d="m1107.6 495.8l7-1.9-6.7 4.1-39.6-23.3z"/>
			</g>
			<path id="&lt;Path&gt;" class="s7" d="m1048.2 494.4v4c0 0.7-0.5 1.1-1.2 0.7l-18.4-10.7c-0.7-0.3-1.2-1.3-1.2-2v-4c0-2.3 1.4-3.4 3.2-2.9 1.4 0.5 2.7 0.4 3.7-0.1 0.6-0.3 0.6-1.5 0-2.5-0.8-1.3-1.4-2.8-1.9-4.2-0.6-0.6-1.4-1.7-1.4-2.6 0-0.9 0.4-1.4 0.9-1.3 0.2-3.7 1.5-6.1 5.9-3.6 4.4 2.6 5.8 6.5 5.9 10.4 0.5 0.5 0.9 1.5 0.9 2.4 0 0.8-0.8 1.1-1.4 0.9-0.4 0.9-1.1 1.6-1.9 2.1-0.6 0.3-0.6 1.4 0 2.4 1 1.7 2.3 3.2 3.7 4.4 1.8 1.6 3.2 4.3 3.2 6.6z"/>
			<path id="&lt;Compound Path&gt;" class="s7" d="m1075.4 504.9l6.5 3.8v11.5l-6.5-3.7zm10.2-3.8l6.4 3.7v21.2l-6.4-3.8zm16.6 0v30.7l-6.4-3.7v-30.7z"/>
			<path id="&lt;Compound Path&gt;" fill-rule="evenodd" class="s7" d="m995.6 458.1l3.1 3.9q-0.5 1.8-1.4 3l-3.5-2.9q-0.9 0.9-2.1 1.2l0.8 4.4q-1.5 0.2-3.3-0.3l-1.9-4.6q-0.7-0.2-1.5-0.7-0.8-0.4-1.5-1l-1.9 2.4q-1.7-1.6-3.3-3.5l0.9-3.5q-1.3-1.7-2.2-3.7l-3.5-1q-0.9-2.3-1.3-4.6l3-0.4q-0.1-0.9-0.1-1.8 0-0.9 0.1-1.7l-3-3.9q0.4-1.8 1.3-3l3.5 2.9q0.9-0.9 2.2-1.2l-0.9-4.4q1.6-0.2 3.3 0.3l1.9 4.6q0.7 0.3 1.5 0.7 0.8 0.4 1.5 1l1.9-2.4q1.8 1.6 3.3 3.5l-0.8 3.5q1.2 1.8 2.1 3.7l3.5 1q0.9 2.3 1.4 4.6l-3.1 0.4q0.2 0.9 0.2 1.8 0 0.9-0.2 1.7zm-5.8-5.1c0-2.5-1.8-5.6-4-6.9-2.2-1.3-4-0.2-4 2.3 0 2.5 1.8 5.6 4 6.9 2.2 1.3 4 0.2 4-2.3z"/>
			<g id="&lt;Group&gt;">
				<path id="&lt;Path&gt;" class="s7" d="m920.9 403.8c0.5-0.2 1-0.1 1.6 0.3l22.5 12.9c0.5 0.4 1.1 0.9 1.5 1.5q0 0 0 0l-12.8 5.2-12.7-19.9q0 0-0.1 0z"/>
				<path id="&lt;Compound Path&gt;" fill-rule="evenodd" class="s7" d="m947.5 421.4v15.2c0 1.6-1.2 2.2-2.5 1.4l-22.5-13c-1.4-0.8-2.5-2.7-2.5-4.3v-15.2c0-0.9 0.3-1.5 0.9-1.7l8.5 14.6-8.5 4.9q0 0 0.1 0l9.1-3.7 3.6 6.3 12.8-7.3c0.6 0.8 1 1.8 1 2.8zm-1 16.6l-8.5-14.6-0.7 0.4 9.2 14.3q0 0 0-0.1z"/>
			</g>
		</g>
		<g id="&lt;Group&gt;">
			<g id="&lt;Group&gt;">
				<path id="&lt;Path&gt;" class="s19" d="m762.7 534v57.4l-9.1 5.2v-57.1z"/>
				<path id="&lt;Path&gt;" class="s12" d="m753.7 539.5v57.1l-153.4-88.5v-57.5z"/>
				<path id="&lt;Path&gt;" class="s6" d="m609.2 445.3l153.5 88.7-9 5.5-153.4-88.9z"/>
				<path id="&lt;Path&gt;" class="s11" d="m753.3 537.8l9.4-3.8-9 5.5-153.4-88.9z"/>
			</g>
			<path id="&lt;Compound Path&gt;" fill-rule="evenodd" class="s7" d="m662.7 499.7v18.9c0 2-1.4 2.8-3.1 1.8l-1.8-1v10.1l-8.7-15.2-17.5-10.1c-1.8-1-3.1-3.4-3.1-5.3v-19c0-2 1.3-2.8 3.1-1.8l28 16.2c1.7 1 3.1 3.4 3.1 5.4zm-31.1 7.2l15 8.7v0.9c0 1.9-1.4 2.7-3.2 1.7l-17.5-10.1-8.7 5v-10l-1.8-1c-1.7-1-3.1-3.4-3.1-5.4v-19c0-2 1.4-2.8 3.1-1.8l10.7 6.2v15.4c0 3.5 2.5 7.7 5.5 9.4zm15.8-8.5c-0.9-1.5-2.4-2.4-3.3-1.9-0.9 0.5-0.9 2.2 0 3.8 0.9 1.6 2.4 2.4 3.3 1.9 0.9-0.5 0.9-2.2 0-3.8zm7.6 4.4c-0.9-1.6-2.4-2.4-3.3-1.9-0.9 0.5-0.9 2.2 0 3.8 0.9 1.6 2.4 2.4 3.3 1.9 0.9-0.5 0.9-2.2 0-3.8zm-15.2-8.8c-0.9-1.5-2.4-2.4-3.3-1.9-0.9 0.6-0.9 2.3 0 3.8 0.9 1.6 2.4 2.5 3.3 1.9 0.9-0.5 0.9-2.2 0-3.8z"/>
			<path id="&lt;Path&gt;" class="s7" d="m742.3 546.1v4.8l-73.2-42.3v-4.8z"/>
			<path id="&lt;Path&gt;" class="s7" d="m719.2 557.2l-50.1-28.9v-4.8l50.1 29z"/>
			<path id="&lt;Path&gt;" class="s7" d="m669.1 513.7l73.2 42.3v4.7l-73.2-42.3z"/>
		</g>
		<g id="&lt;Group&gt;">
			<path id="&lt;Path&gt;" class="s29" d="m851.6 668.1c-3.8 2.2-9.6 2.4-12.9 0.5l-51.3-28.8c-4.1 0.7-8.6 1.1-13.3 1.1-22.4 0-40.6-8.6-40.6-19.3 0-10.6 18.2-19.3 40.6-19.3 22.4 0 40.6 8.7 40.6 19.3 0 3.9-2.4 7.5-6.5 10.5l47.6 26.7c5.1 3 0.1 7.1-4.2 9.3z"/>
			<g id="&lt;Group&gt;">
				<g id="&lt;Group&gt;">
					<g id="&lt;Group&gt;">
						<path id="&lt;Path&gt;" class="s16" d="m855.7 653.6c2.8 5.3 0.8 11.9-4.5 14.7-5.3 2.9-11.9 0.9-14.7-4.4-2.9-5.3-0.9-11.9 4.4-14.8 5.3-2.8 11.9-0.8 14.8 4.5z"/>
					</g>
					<path id="&lt;Path&gt;" class="s25" d="m856.4 650q0 0 0 0c2.1 3.8-1.6 9.8-8.1 13.3-6.5 3.5-13.4 3.3-15.5-0.5q0-0.1 0-0.1l-35.2-65 23.6-12.7z"/>
					<path id="&lt;Path&gt;" class="s19" d="m821.2 585.1c2 3.8-1.6 9.7-8.1 13.2-6.5 3.5-13.5 3.3-15.5-0.5-2-3.8 1.6-9.7 8.1-13.2 6.5-3.6 13.4-3.3 15.5 0.5z"/>
					<g id="&lt;Group&gt;">
						<path id="&lt;Path&gt;" class="s16" d="m815.7 586.3q0 0 0 0.1c1.2 2.2-0.9 5.8-4.8 7.8-3.9 2.1-8 2-9.2-0.3q0 0 0 0l-10-18.5 14-7.6z"/>
					</g>
				</g>
				<g id="&lt;Group&gt;">
					<path id="&lt;Path&gt;" class="s6" d="m830.4 529.9c0 19.9-6.8 34-18 40.9-0.4 0.2-11.7 7-12 7.2-1.3 0.7-2.3 1.2-3.2 1.4 12.1-6.4 19.6-20.9 19.6-41.7 0-40.8-28.8-90.5-64.4-111-19.4-11.2-36.9-11.4-48.7-2.5 0.5-0.8 17.2-10.1 17.5-10.2 11.6-6.3 27.4-5.2 44.9 4.9 35.5 20.5 64.3 70.2 64.3 111z"/>
				</g>
				<path id="&lt;Compound Path&gt;" fill-rule="evenodd" class="s2" d="m816.8 537.7c0 40.8-28.8 57.2-64.4 36.7-35.5-20.5-64.3-70.2-64.3-111 0-40.8 28.8-57.2 64.3-36.7 35.6 20.5 64.4 70.2 64.4 111zm-10.7-4.2c0-34.6-24.5-76.8-54.6-94.2-30.2-17.4-54.6-3.4-54.6 31.2 0 34.6 24.4 76.7 54.6 94.1 30.1 17.4 54.6 3.5 54.6-31.1z"/>
				<path id="&lt;Path&gt;" class="s6" d="m795.1 564.8c-9.9 9.5-25.8 10.1-43.6-0.2-30.2-17.4-54.6-59.5-54.6-94.1 0-20.7 8.7-34 22.2-37.6-6.8 6.5-10.9 17.1-10.9 31.3 0 34.6 24.4 76.7 54.6 94.1 12.1 7 23.3 8.9 32.3 6.5z"/>
				<path id="&lt;Path&gt;" class="s14" d="m819.9 536.1c0 24.3-10.2 39.9-25.9 44.3 12.5-6.3 22.8-21.5 22.8-42.7 0-40.8-28.8-90.5-64.4-111-14.4-8.3-30.2-9.9-40.9-6.9 11.5-5.8 27-4.5 44 5.4 35.6 20.5 64.4 70.2 64.4 110.9z"/>
			</g>
		</g>
	</g>
</svg>