<?xml version="1.0" encoding="UTF-8"?>
<svg xmlns="http://www.w3.org/2000/svg" width="87" height="157" viewBox="0 0 87 157" fill="none">
  <path d="M43.4219 156.482C43.3477 156.482 43.2728 156.457 43.2136 156.4C38.012 151.799 31.9488 142.698 28.125 133.754L28.7041 133.508C32.4429 142.251 38.3318 151.138 43.4226 155.746C48.266 151.39 54.7686 143.17 58.7409 132.91L59.3275 133.137C55.8707 142.062 50.0026 150.761 43.6309 156.4C43.5711 156.457 43.4962 156.482 43.4219 156.482Z" fill="#EC4176"></path>
  <path d="M43.2569 137.853C38.1598 137.853 33.0621 136.739 29.1817 134.498C25.757 132.515 23.9851 130.564 23.4375 128.172L24.0512 128.027C24.5566 130.243 26.2359 132.068 29.4964 133.95C37.0841 138.331 49.4296 138.331 57.0174 133.95C60.0682 132.188 61.8324 130.262 62.4109 128.065L63.0196 128.223C62.3964 130.595 60.5365 132.647 57.3321 134.498C53.4517 136.739 48.3539 137.853 43.2569 137.853Z" fill="#e3e3e3"></path>
  <path d="M1.09596 97.3684C1.02798 97.3684 0.960612 97.3495 0.905222 97.3055C0.827173 97.2425 0.78125 97.1544 0.78125 97.0537V86.6808C0.78125 78.8004 4.55652 73.7209 10.6336 73.4376L10.6632 74.067C4.9562 74.3314 1.41068 79.1654 1.41068 86.6808V96.6383L14.0533 93.1324L14.222 93.7366L1.18029 97.3558C1.15259 97.3621 1.12429 97.3684 1.09596 97.3684Z" fill="#e3e3e3"></path>
  <path d="M85.8616 97.4778C85.8364 97.4778 85.8049 97.4778 85.7797 97.4715L72.6562 93.8271L72.8262 93.2229L85.5468 96.7539V86.7964C85.5468 82.2835 84.3131 78.7334 81.978 76.5179C80.203 74.8436 77.849 74.038 75.1676 74.1827L75.1362 73.5533C77.9875 73.3959 80.5052 74.2645 82.406 76.0647C84.8734 78.3999 86.1763 82.1072 86.1763 86.7964V97.1631C86.1763 97.2638 86.1322 97.3582 86.0567 97.4149C86.0001 97.4589 85.9308 97.4778 85.8616 97.4778Z" fill="#e3e3e3"></path>
  <path d="M71.7451 99.1377L70.4989 98.9362C70.5303 98.7537 73.5012 80.0597 73.9922 73.8284C75.9749 48.4878 64.8026 21.882 44.1108 2.65931C43.6803 2.26277 43.2466 1.86623 42.8092 1.47598C42.3755 1.85993 41.9462 2.25017 41.522 2.6467C20.829 21.8568 9.65855 48.4689 11.6406 73.8284C12.1246 80.0157 15.0635 98.5775 15.0937 98.7601L13.8505 98.9614C13.8209 98.7726 10.8727 80.1668 10.3855 73.9292C8.37388 48.1856 19.6929 21.1959 40.6647 1.72147C41.2337 1.19904 41.809 0.676633 42.3912 0.160504C42.6298 -0.0535012 42.9879 -0.0535012 43.2258 0.160504C43.8131 0.676633 44.3941 1.20536 44.9675 1.74037C65.9418 21.2211 77.2589 48.2045 75.2447 73.9292C74.7538 80.2108 71.7766 98.9489 71.7451 99.1377Z" fill="#e3e3e3"></path>
  <path d="M42.8078 134.487C36.5299 134.487 30.2545 133.108 25.4753 130.345C21.2267 127.897 18.6391 124.605 18.189 121.086L17.9688 119.972L19.2043 119.727L19.4315 120.885C19.8369 124.044 22.2048 127.003 26.1047 129.256C35.3145 134.575 50.3005 134.575 59.5102 129.256C63.329 127.053 65.6893 124.158 66.1551 121.111C66.1551 121.099 66.155 121.092 66.1613 121.08C66.1739 120.998 66.388 119.934 66.388 119.934L67.6216 120.18C67.5209 120.696 67.4454 121.055 67.3824 121.3C66.8726 124.737 64.2983 127.947 60.1397 130.345C55.3617 133.108 49.0838 134.487 42.8078 134.487Z" fill="#e3e3e3"></path>
  <path d="M84.3819 144.85L84.0231 144.334L85.647 143.226V132.948C85.647 121.448 77.6155 102.937 67.5951 96.9824L66.0152 98.2286L65.625 97.7313L67.3748 96.3592C67.4755 96.2773 67.614 96.2648 67.7273 96.334C78.0058 102.263 86.2764 121.215 86.2764 132.948V143.396C86.2764 143.497 86.2261 143.598 86.1443 143.654L84.3819 144.85Z" fill="#e3e3e3"></path>
  <path d="M66.2544 118.168L83.8783 143.408V134.036C83.8783 122.737 76.0609 104.616 66.2544 98.5297V118.168ZM84.193 144.723C84.0923 144.723 83.9979 144.673 83.935 144.585L65.6817 118.445C65.6502 118.394 65.625 118.331 65.625 118.269V97.9758C65.625 97.8625 65.6879 97.7555 65.7824 97.6989C65.8831 97.6422 66.0027 97.6422 66.0971 97.6989C76.3 103.59 84.5078 122.391 84.5078 134.036V144.409C84.5078 144.547 84.4196 144.667 84.2875 144.704C84.256 144.717 84.2245 144.723 84.193 144.723Z" fill="#e3e3e3"></path>
  <path d="M1.89961 144.855L0.137841 143.653C0.0516092 143.596 0 143.495 0 143.395V132.946C0 121.214 8.27505 102.262 18.5504 96.3326C18.6549 96.2696 18.7846 96.2759 18.8846 96.3452L20.647 97.5411L20.2927 98.0635L18.6952 96.9746C8.6722 102.916 0.629426 121.44 0.629426 132.946V143.231L2.25332 144.333L1.89961 144.855Z" fill="#e3e3e3"></path>
  <path d="M19.8165 98.5295C10.0119 104.616 2.19193 122.737 2.19193 134.035V143.408L19.8165 118.168V98.5295ZM1.87721 144.723C1.84574 144.723 1.81429 144.717 1.78282 144.71C1.6519 144.666 1.5625 144.547 1.5625 144.408V134.035C1.5625 122.391 9.77527 103.59 19.9739 97.6987C20.0708 97.6421 20.1916 97.6421 20.2886 97.6987C20.3855 97.7554 20.4459 97.8623 20.4459 97.9756V118.268C20.4459 118.331 20.4264 118.394 20.3893 118.445L2.1353 144.591C2.0755 144.673 1.97792 144.723 1.87721 144.723Z" fill="#e3e3e3"></path>
  <path d="M42.8169 24.2188H42.1875V133.109H42.8169V24.2188Z" fill="#EC4176"></path>
  <path d="M45.9419 24.2188H45.3125V133.109H45.9419V24.2188Z" fill="#EC4176"></path>
  <path d="M43.503 1.47598C43.07 1.85993 42.6407 2.25017 42.2152 2.6467C38.6596 5.95119 35.3375 9.56414 32.3433 13.391C32.1903 13.5862 32.0411 13.7875 31.8926 13.9827L31.6156 14.3477C30.9988 15.3359 30.7961 16.4437 31.0618 17.52C31.4243 18.9866 32.6083 20.3336 34.4858 21.4162C39.4564 24.2864 47.5446 24.2864 52.5152 21.4162C54.4009 20.3273 55.5862 18.974 55.9443 17.5011C56.2049 16.4248 55.9965 15.3107 55.34 14.2848L55.0876 13.9512C54.9548 13.7687 54.8214 13.5924 54.6842 13.4162C51.6868 9.58297 48.3635 5.96379 44.8053 2.65931C44.3754 2.26277 43.9411 1.86623 43.503 1.47598ZM43.4999 24.8088C40.0078 24.8088 36.5151 24.0409 33.8564 22.5051C31.6754 21.2463 30.2863 19.6286 29.8394 17.8221C29.4895 16.4059 29.7469 14.9583 30.5828 13.6365L30.8849 13.2274C31.0391 13.0197 31.1933 12.8182 31.3513 12.6168C34.3877 8.73323 37.7539 5.07001 41.3592 1.72147C41.9282 1.19904 42.5035 0.676633 43.0863 0.160504C43.3249 -0.0535012 43.6824 -0.0535012 43.9203 0.160504C44.5082 0.676633 45.0886 1.20536 45.662 1.74037C49.2686 5.08891 52.6379 8.75843 55.6755 12.642C55.8184 12.8245 55.9569 13.0071 56.0954 13.1959L56.3578 13.5421C56.3685 13.5547 56.3773 13.5672 56.3868 13.5798C57.2428 14.9142 57.5135 16.3745 57.1673 17.797C56.7267 19.6161 55.3356 21.24 53.1446 22.5051C50.4853 24.0409 46.9926 24.8088 43.4999 24.8088Z" fill="#e3e3e3"></path>
  <path fill-rule="evenodd" clip-rule="evenodd" d="M43.1551 72.5178C37.2939 72.5178 32.543 67.7657 32.543 61.9057C32.543 56.0457 37.2939 51.2936 43.1551 51.2936C49.0156 51.2936 53.7672 56.0457 53.7672 61.9057C53.7672 67.7657 49.0156 72.5178 43.1551 72.5178ZM43.1551 46.875C34.8542 46.875 28.125 53.6036 28.125 61.9057C28.125 70.2078 34.8542 76.9364 43.1551 76.9364C51.4559 76.9364 58.1851 70.2078 58.1851 61.9057C58.1851 53.6036 51.4559 46.875 43.1551 46.875Z" fill="#EC4176"></path>
  <path d="M42.6886 51.63C37.0105 51.63 32.3911 56.25 32.3911 61.9274C32.3911 67.6048 37.0105 72.2248 42.6886 72.2248C48.3666 72.2248 52.986 67.6048 52.986 61.9274C52.986 56.25 48.3666 51.63 42.6886 51.63ZM42.6886 72.8542C36.6631 72.8542 31.7617 67.9573 31.7617 61.9274C31.7617 55.9038 36.6631 51.0006 42.6886 51.0006C48.7134 51.0006 53.6154 55.9038 53.6154 61.9274C53.6154 67.9573 48.7134 72.8542 42.6886 72.8542ZM42.6886 47.2115C34.5746 47.2115 27.9732 53.8141 27.9732 61.9274C27.9732 70.0407 34.5746 76.6434 42.6886 76.6434C50.8025 76.6434 57.4039 70.0407 57.4039 61.9274C57.4039 53.8141 50.8025 47.2115 42.6886 47.2115ZM42.6886 77.2728C34.2272 77.2728 27.3438 70.3869 27.3438 61.9274C27.3438 53.4679 34.2272 46.582 42.6886 46.582C51.1493 46.582 58.0334 53.4679 58.0334 61.9274C58.0334 70.3869 51.1493 77.2728 42.6886 77.2728Z" fill="#EC4176"></path>
</svg>
