<?xml version="1.0" encoding="UTF-8"?>
<svg xmlns="http://www.w3.org/2000/svg" width="96" height="150" viewBox="0 0 96 150" fill="none">
  <path d="M47.3801 149.846C42.82 149.846 38.2592 148.844 34.7873 146.839C32.8216 145.704 31.3688 144.359 30.4688 142.839L31.0107 142.519C31.8541 143.943 33.2307 145.214 35.102 146.294C41.8721 150.203 52.8883 150.203 59.6584 146.294C61.592 145.178 62.995 143.861 63.8283 142.383L64.3765 142.692C63.4871 144.27 62.0055 145.666 59.9731 146.839C56.5012 148.844 51.941 149.846 47.3801 149.846Z" fill="#EC4176"></path>
  <path d="M47.8425 146.678C41.4161 146.678 34.9916 145.266 30.099 142.441C25.1606 139.59 22.5195 135.78 22.6617 131.712C22.7838 128.224 22.6825 127.232 22.6812 127.222L23.3069 127.153C23.3113 127.193 23.4151 128.175 23.2905 131.735C23.1571 135.558 25.6868 139.168 30.4137 141.896C40.0238 147.445 55.6613 147.445 65.2713 141.896C69.8674 139.243 72.3983 135.734 72.3983 132.015V126.074H73.0277V132.015C73.0277 135.968 70.3848 139.67 65.586 142.441C60.6948 145.265 54.2677 146.678 47.8425 146.678Z" fill="#e3e3e3"></path>
  <path d="M47.3442 141.629C40.9178 141.629 34.4926 140.217 29.6 137.392C23.2982 133.754 20.418 128.347 22.5952 124.245L23.151 124.54C21.1412 128.327 23.9226 133.388 29.9147 136.847C39.5254 142.396 55.1629 142.396 64.7723 136.848C70.9054 133.307 72.1832 127.87 71.3341 123.961L71.9491 123.828C72.8454 127.952 71.5135 133.682 65.087 137.393C60.1958 140.216 53.7694 141.628 47.3442 141.629Z" fill="#e3e3e3"></path>
  <path d="M47.8425 135.46C41.4161 135.46 34.9909 134.049 30.0984 131.224C25.1605 128.372 22.5195 124.562 22.6617 120.494C22.7763 117.228 22.6731 116.736 22.6693 116.716L23.2597 116.504C23.3975 116.821 23.3384 119.154 23.2905 120.516C23.1571 124.34 25.6867 127.949 30.4131 130.679C40.0238 136.227 55.6606 136.228 65.2713 130.679C69.8674 128.025 72.3983 124.516 72.3977 120.797C72.3977 117.143 72.392 116.629 72.392 116.624L73.0215 116.617C73.0215 116.617 73.0271 117.119 73.0271 120.797C73.0277 124.75 70.3848 128.453 65.5861 131.224C60.6948 134.048 54.2677 135.46 47.8425 135.46Z" fill="#e3e3e3"></path>
  <path d="M47.9939 130.323C41.5668 130.323 35.1561 128.902 30.2938 126.06C25.7934 123.429 23.1769 120.242 22.7262 116.845C22.3429 113.951 23.5395 111.003 26.1862 108.317L26.6343 108.759C24.1292 111.301 22.9931 114.069 23.3506 116.762C23.7742 119.96 26.285 122.988 30.611 125.517C40.16 131.1 55.7969 131.099 65.4674 125.516C69.3144 123.295 71.6855 120.194 72.143 116.785C72.5402 113.824 71.4419 110.787 69.1287 108.45L69.5762 108.008C72.0272 110.483 73.1898 113.713 72.7668 116.868C72.2828 120.475 69.8022 123.74 65.7821 126.061C60.8606 128.903 54.4191 130.323 47.9939 130.323Z" fill="#e3e3e3"></path>
  <path d="M27.6672 114.011L28.3331 115.82C29.1866 117.674 30.9414 119.424 33.3893 120.837C41.2376 125.369 54.008 125.369 61.8563 120.838C64.3041 119.425 66.059 117.674 66.9301 115.775L67.4941 114.19C69.6864 100.424 75.1428 88.1392 84.6635 75.5343C90.774 67.4443 94.0029 57.7959 94.0029 47.6319C94.0029 35.0371 89.0406 23.2549 80.0285 14.4536C71.0201 5.65551 59.1214 0.975723 46.5065 1.27281C21.8424 1.85629 1.54537 22.4089 1.26213 47.0868C1.14065 57.6423 4.47912 67.6231 10.915 75.9485C20.1877 87.9429 25.5114 100.038 27.6672 114.011ZM47.6231 125.477C42.2403 125.477 36.858 124.293 32.7598 121.927C30.0848 120.383 28.1524 118.437 27.1705 116.3L26.4637 114.386C26.4492 114.347 26.4392 114.306 26.4322 114.264C24.3167 100.485 19.0692 88.554 9.91923 76.7183C3.30774 68.1657 -0.121346 57.9142 0.00327992 47.0723C0.144901 34.7394 5.0412 23.0679 13.7902 14.2081C22.5399 5.34708 34.1483 0.306014 46.4769 0.0139608C59.4179 -0.294458 71.6552 4.51625 80.9084 13.5529C90.1641 22.5927 95.2618 34.696 95.2618 47.6319C95.2618 58.0722 91.9441 67.9831 85.6681 76.2928C76.2632 88.7441 70.881 100.867 68.7284 114.445C68.7221 114.483 68.712 114.521 68.6994 114.557L68.0951 116.249C67.0931 118.437 65.1608 120.383 62.4857 121.928C58.3882 124.293 53.0053 125.476 47.6231 125.477Z" fill="#e3e3e3"></path>
  <path d="M47.9388 99.3508C43.203 99.3508 38.4666 100.392 34.8606 102.473C31.4271 104.456 29.5357 107.073 29.5357 109.842C29.5357 112.612 31.4271 115.229 34.8612 117.211C42.0726 121.375 53.8069 121.375 61.0182 117.211C64.4518 115.229 66.3432 112.612 66.3432 109.843C66.3432 107.073 64.4518 104.456 61.0176 102.473C57.4117 100.392 52.6752 99.3508 47.9388 99.3508ZM47.9394 120.955C43.0891 120.955 38.2394 119.889 34.5465 117.756C30.9091 115.657 28.9062 112.846 28.9062 109.842C28.9062 106.838 30.9091 104.027 34.5459 101.928C41.9309 97.6645 53.9473 97.6645 61.3323 101.928C64.9698 104.028 66.9726 106.838 66.9726 109.843C66.9726 112.846 64.9698 115.657 61.333 117.756C57.6407 119.888 52.7898 120.955 47.9394 120.955Z" fill="#e3e3e3"></path>
  <path d="M45.3248 14.7731L45.2795 14.1456C45.9102 14.1003 46.5503 14.0726 47.1829 14.0625L47.1923 14.6919C46.5717 14.7014 45.9436 14.7291 45.3248 14.7731ZM50.928 14.8411C50.313 14.7819 49.6855 14.7391 49.063 14.714L49.0881 14.0852C49.7226 14.1103 50.3621 14.1538 50.9884 14.2142L50.928 14.8411ZM41.6181 15.2502L41.5023 14.6315C42.1217 14.5163 42.7549 14.4162 43.3843 14.3351L43.4649 14.9594C42.8474 15.0394 42.2262 15.1376 41.6181 15.2502ZM54.6221 15.4082C54.0172 15.2798 53.3985 15.1671 52.7835 15.0721L52.8792 14.4502C53.5061 14.5465 54.1361 14.6617 54.753 14.7933L54.6221 15.4082ZM37.9895 16.1446L37.8044 15.5435C38.4093 15.3572 39.0274 15.186 39.6405 15.035L39.7909 15.6461C39.1892 15.794 38.583 15.9621 37.9895 16.1446ZM58.2281 16.392C57.6414 16.195 57.0397 16.0125 56.4392 15.8488L56.6048 15.2414C57.2166 15.4082 57.8303 15.5945 58.4282 15.7953L58.2281 16.392ZM34.4893 17.445L34.2362 16.8685C34.8134 16.6155 35.4069 16.3756 35.9992 16.1553L36.2189 16.7457C35.6373 16.9616 35.0551 17.197 34.4893 17.445ZM61.705 17.7818C61.141 17.518 60.5626 17.2675 59.9866 17.0372L60.2202 16.4531C60.8074 16.6872 61.3966 16.9427 61.9712 17.2115L61.705 17.7818ZM31.1602 19.1332L30.8442 18.5887C31.3906 18.2715 31.9533 17.9656 32.5166 17.6804L32.8011 18.2419C32.2485 18.5214 31.6965 18.8216 31.1602 19.1332ZM64.9988 19.5568C64.4688 19.2313 63.9231 18.9166 63.3774 18.6227L63.6757 18.0688C64.2321 18.3684 64.7879 18.6888 65.3286 19.0205L64.9988 19.5568ZM28.0408 21.1876L27.6656 20.6822C28.1711 20.3064 28.696 19.9395 29.2254 19.5901L29.5716 20.1157C29.0523 20.4581 28.5368 20.8188 28.0408 21.1876ZM68.0704 21.6918C67.5813 21.3091 67.0746 20.9358 66.5654 20.5815L66.9242 20.0641C67.4441 20.4254 67.9602 20.8068 68.4587 21.1964L68.0704 21.6918ZM25.1712 23.5807L24.7413 23.1206C25.204 22.6888 25.6842 22.2645 26.1695 21.8598L26.5723 22.3432C26.0965 22.7404 25.625 23.1564 25.1712 23.5807ZM70.8808 24.1585C70.4383 23.7229 69.9769 23.2949 69.5105 22.8858L69.9259 22.4125C70.4011 22.8291 70.8707 23.2653 71.322 23.7091L70.8808 24.1585ZM22.5868 26.2828L22.1078 25.8737C22.5176 25.3941 22.9475 24.9188 23.3862 24.4606L23.8406 24.8955C23.4107 25.345 22.989 25.812 22.5868 26.2828ZM73.3953 26.9236C73.0063 26.4433 72.5966 25.9662 72.1774 25.5055L72.6432 25.0825C73.0699 25.552 73.4878 26.038 73.8844 26.527L73.3953 26.9236ZM20.3221 29.2587L19.8004 28.9069C20.1547 28.3826 20.5286 27.8614 20.9119 27.3579L21.4129 27.7393C21.0365 28.2328 20.6696 28.7445 20.3221 29.2587ZM75.5826 29.9517C75.2496 29.4306 74.8959 28.9107 74.5321 28.4071L75.0425 28.0383C75.4133 28.5519 75.7733 29.0812 76.1132 29.6131L75.5826 29.9517ZM18.4062 32.4726L17.8479 32.1818C18.1393 31.6235 18.4515 31.0633 18.7775 30.5163L19.3182 30.8386C18.9984 31.3755 18.6919 31.925 18.4062 32.4726ZM77.4142 33.2059C77.1404 32.6488 76.8483 32.0924 76.545 31.5536L77.0932 31.2452C77.4023 31.7941 77.7006 32.3605 77.9788 32.9289L77.4142 33.2059ZM16.8672 35.8853L16.2793 35.6594C16.5065 35.0664 16.7546 34.4741 17.0145 33.8976L17.5879 34.1569C17.333 34.7221 17.09 35.3037 16.8672 35.8853ZM78.8632 36.6438C78.6548 36.0584 78.4276 35.4737 78.1878 34.9047L78.7675 34.6598C79.0123 35.2402 79.2439 35.8362 79.456 36.4323L78.8632 36.6438ZM15.7267 39.4485L15.1174 39.2911C15.2748 38.6806 15.4529 38.0644 15.6461 37.4608L16.2454 37.6527C16.0559 38.245 15.8815 38.8493 15.7267 39.4485ZM79.9143 40.2302C79.7746 39.6266 79.6147 39.018 79.4397 38.4219L80.0439 38.245C80.2221 38.8524 80.3845 39.4724 80.5274 40.088L79.9143 40.2302ZM14.9997 43.1143L14.3766 43.0274C14.4641 42.3992 14.5711 41.7673 14.6938 41.1486L15.3106 41.2713C15.1904 41.8781 15.086 42.4981 14.9997 43.1143ZM80.5512 43.9124C80.4801 43.2962 80.3908 42.6743 80.285 42.0625L80.905 41.9555C81.0133 42.578 81.1039 43.2131 81.1763 43.8413L80.5512 43.9124ZM14.6919 46.8392L14.0625 46.8228C14.0795 46.1909 14.1141 45.5508 14.1657 44.9207L14.7933 44.9723C14.7423 45.5911 14.7083 46.2186 14.6919 46.8392ZM80.769 47.6449C80.7678 47.0255 80.7489 46.3967 80.7124 45.7755L81.3406 45.7383C81.3777 46.3716 81.3972 47.0123 81.3985 47.6436L80.769 47.6449ZM81.3462 49.6364L80.718 49.6018C80.752 48.9843 80.7697 48.3555 80.7697 47.7324H81.3991C81.3991 48.3668 81.3808 49.0076 81.3462 49.6364ZM14.1733 50.6296C14.1198 50.0021 14.0833 49.362 14.0644 48.7281L14.6938 48.7099C14.7121 49.3317 14.7479 49.9599 14.8002 50.5761L14.1733 50.6296ZM80.9207 53.4205L80.3001 53.3154C80.404 52.7004 80.4921 52.0773 80.5607 51.4642L81.1864 51.5347C81.1159 52.1591 81.0265 52.7936 80.9207 53.4205ZM14.7102 54.4005C14.5849 53.7767 14.4767 53.1448 14.3885 52.5229L15.0117 52.4342C15.0985 53.0447 15.2043 53.6647 15.327 54.2765L14.7102 54.4005ZM80.0691 57.1328L79.4649 56.9579C79.638 56.3599 79.7959 55.7512 79.9344 55.1483L80.5475 55.2892C80.4065 55.9036 80.246 56.5242 80.0691 57.1328ZM15.6719 58.0864C15.4762 57.4809 15.2974 56.8653 15.1388 56.2567L15.7481 56.0981C15.9036 56.6954 16.0792 57.299 16.2705 57.8926L15.6719 58.0864ZM78.7989 60.7287L78.2186 60.4858C78.4578 59.9149 78.6844 59.3276 78.8921 58.7385L79.4863 58.9481C79.2742 59.5486 79.0425 60.1471 78.7989 60.7287ZM17.0454 61.6351C16.7835 61.0586 16.5361 60.4688 16.3089 59.8815L16.8962 59.6543C17.119 60.2302 17.362 60.8093 17.6188 61.3752L17.0454 61.6351ZM77.1284 64.1578L76.579 63.8501C76.8836 63.3062 77.175 62.7479 77.4463 62.1922L78.0121 62.4678C77.7358 63.0337 77.4387 63.6033 77.1284 64.1578ZM18.8115 65.0044C18.4867 64.4625 18.1739 63.9042 17.8806 63.3453L18.4383 63.0526C18.7259 63.6008 19.0331 64.149 19.3522 64.6815L18.8115 65.0044ZM75.0809 67.3736L74.5698 67.006C74.9317 66.5031 75.2848 65.9819 75.6191 65.457L76.1497 65.795C75.8092 66.33 75.4498 66.8606 75.0809 67.3736ZM20.9478 68.1553C20.5645 67.6531 20.1906 67.1338 19.8356 66.6107L20.3561 66.257C20.7048 66.7706 21.0718 67.2804 21.4482 67.7733L20.9478 68.1553ZM72.6841 70.3369L72.2183 69.914C72.6337 69.4564 73.0428 68.978 73.435 68.4933L73.924 68.8893C73.525 69.3834 73.1077 69.8699 72.6841 70.3369ZM23.4258 71.0463C22.9884 70.5906 22.5578 70.116 22.1456 69.6351L22.6233 69.2254C23.028 69.6974 23.451 70.1632 23.8796 70.6107L23.4258 71.0463ZM69.9725 73.0107L69.5565 72.5387C70.0229 72.1276 70.483 71.699 70.9242 71.2641L71.3661 71.7122C70.9167 72.1553 70.4477 72.5922 69.9725 73.0107ZM26.2142 73.642C25.7264 73.2367 25.2455 72.8137 24.7835 72.3832L25.2128 71.9225C25.666 72.3448 26.138 72.7608 26.6164 73.158L26.2142 73.642ZM66.9783 75.3629L66.6177 74.8461C67.1256 74.4924 67.631 74.1179 68.1195 73.7339L68.5084 74.2293C68.0106 74.6202 67.4957 75.0016 66.9783 75.3629ZM29.2782 75.9086C28.7489 75.5624 28.2227 75.1948 27.7141 74.8184L28.088 74.313C28.5871 74.6818 29.1039 75.0425 29.6232 75.383L29.2782 75.9086ZM63.7393 77.362L63.4397 76.8081C63.9829 76.5141 64.5267 76.1994 65.0561 75.8733L65.3871 76.4084C64.8477 76.742 64.2932 77.0623 63.7393 77.362ZM32.5796 77.817C32.0137 77.5319 31.4498 77.2266 30.9015 76.91L31.2162 76.3649C31.7538 76.6752 32.3077 76.9748 32.8628 77.2549L32.5796 77.817ZM60.2982 78.9802L60.0634 78.3967C60.6368 78.1657 61.2122 77.9146 61.7736 77.6502L62.0417 78.2205C61.4696 78.4892 60.8829 78.7454 60.2982 78.9802ZM36.0786 79.3383C35.4812 79.1187 34.8852 78.8789 34.3067 78.6271L34.5579 78.0499C35.125 78.2973 35.7097 78.5314 36.2957 78.7479L36.0786 79.3383ZM56.6897 80.1994L56.5229 79.5933C57.1228 79.4277 57.7239 79.2433 58.3099 79.045L58.5113 79.6417C57.9146 79.8431 57.3015 80.0313 56.6897 80.1994ZM39.7261 80.4505C39.113 80.3014 38.4949 80.132 37.8882 79.947L38.072 79.3453C38.6668 79.5272 39.2735 79.6927 39.8746 79.8394L39.7261 80.4505ZM52.966 81.0013L52.8691 80.3794C53.4822 80.2837 54.1003 80.1692 54.707 80.0389L54.8392 80.6538C54.2205 80.7866 53.5904 80.9044 52.966 81.0013ZM43.4712 81.1404C42.8443 81.0617 42.211 80.9635 41.5892 80.849L41.7025 80.2302C42.313 80.3423 42.9349 80.4386 43.5499 80.516L43.4712 81.1404ZM49.1757 81.3764L49.1492 80.747C49.7673 80.7212 50.3948 80.6765 51.0142 80.6161L51.0759 81.2423C50.4452 81.304 49.8057 81.3494 49.1757 81.3764ZM47.271 81.4035C46.6403 81.3953 45.9996 81.3689 45.3682 81.3254L45.4117 80.6973C46.0316 80.7401 46.6598 80.7659 47.2792 80.7741L47.271 81.4035Z" fill="#EC4176"></path>
  <path d="M49.6801 68.4026L48.1909 69.2467V64.7135C48.2173 64.2736 47.8617 63.9186 47.4217 63.9186C46.9824 63.9186 46.6268 64.2736 46.3026 64.7135V70.165L45.6083 70.7529L36.1928 58.6496C36.7209 58.4797 37.1697 58.5011 37.6959 58.5338C38.5676 58.5842 39.5533 58.6434 40.8952 57.827C42.2384 57.0106 42.64 56.108 42.9943 55.3124C43.3034 54.6175 43.5476 54.0681 44.4666 53.5098C45.3862 52.9508 45.9867 52.9836 46.7451 53.032C47.6162 53.0818 48.6019 53.1403 49.9457 52.3246C51.2902 51.5063 51.6924 50.6043 52.0474 49.8081C52.3583 49.1126 52.6025 48.5625 53.5234 48.0029C54.443 47.444 55.0403 47.4786 55.8044 47.5239C56.2476 47.5485 56.7215 47.5749 57.2559 47.4887L49.6801 68.4026ZM58.6463 46.8228C58.6513 46.8095 58.6482 46.7951 58.6526 46.7812C58.6683 46.7302 58.6714 46.678 58.6758 46.6245C58.6796 46.5779 58.6866 46.532 58.6821 46.486C58.6777 46.4388 58.6614 46.3947 58.6475 46.3482C58.6324 46.2972 58.6198 46.2481 58.594 46.2015C58.5877 46.1889 58.5877 46.1744 58.5802 46.1618C58.5619 46.1316 58.533 46.114 58.5116 46.0876C58.4788 46.046 58.4474 46.0064 58.4059 45.9724C58.3643 45.939 58.3184 45.9151 58.2718 45.8906C58.2416 45.8748 58.2183 45.8503 58.1855 45.8383C58.1717 45.8333 58.1579 45.8364 58.1434 45.832C58.0949 45.8176 58.0452 45.8144 57.9936 45.8094C57.9438 45.805 57.8954 45.7974 57.8457 45.8025C57.8016 45.8069 57.7607 45.8226 57.7173 45.8352C57.6638 45.8503 57.6121 45.8641 57.563 45.8899C57.5504 45.8975 57.5366 45.8969 57.524 45.9044C56.6359 46.4438 56.0562 46.4105 55.3204 46.3677C54.477 46.3186 53.5259 46.2613 52.2274 47.0519C50.9282 47.8418 50.5399 48.7135 50.1969 49.4827C49.8967 50.1549 49.66 50.6868 48.7712 51.2268C47.8819 51.7669 47.3021 51.7329 46.5682 51.6888C45.7311 51.6416 44.7756 51.5825 43.4771 52.3718C42.1786 53.1611 41.7909 54.0328 41.4485 54.802C41.1495 55.4736 40.9141 56.0035 40.0266 56.543C39.1391 57.0836 38.5613 57.0497 37.8249 57.005C36.9859 56.9565 36.0323 56.8973 34.7338 57.6879C34.5091 57.8245 34.3933 58.0593 34.38 58.3035C34.3744 58.3356 34.3763 58.367 34.375 58.3991C34.3769 58.4262 34.3756 58.452 34.3806 58.4791C34.3907 58.6264 34.4291 58.773 34.5267 58.8989L44.4143 71.6089V80.1087L40.7089 88.2704C40.6623 88.3743 40.6378 88.4869 40.6378 88.6009V113.495C40.6378 113.495 41.1105 114.29 41.5504 114.29C41.9898 114.29 42.5261 113.495 42.5261 113.495V88.7677L46.2309 80.6065C46.2781 80.5027 46.3026 80.39 46.3026 80.2761V72.1943L49.4498 70.3777V77.3877C49.4498 77.5928 49.5284 77.7899 49.67 77.9378L53.2263 81.6633V106.2C53.2263 106.2 53.7449 106.995 54.1843 106.995C54.6242 106.995 55.1146 106.2 55.1146 106.2V81.3889C55.1146 81.3889 54.9012 80.988 54.7602 80.84L50.7086 77.0314V68.7349L58.6463 46.8228Z" fill="#EC4176"></path>
  <path d="M36.2789 58.8705L45.1878 70.3229L45.5208 70.0409V64.7355C45.5208 64.6681 45.5422 64.6027 45.5818 64.5485C45.899 64.1186 46.3409 63.6258 46.9546 63.6258C47.2573 63.6258 47.5481 63.7498 47.7527 63.967C47.9541 64.1816 48.0554 64.4604 48.0378 64.7537L48.0385 68.7286L48.9562 68.208L56.3217 47.8763C55.961 47.8952 55.63 47.8769 55.3253 47.8606C54.5857 47.8172 54.0551 47.7857 53.2199 48.2943C52.384 48.8016 52.1681 49.2856 51.8692 49.9559C51.5129 50.7547 51.071 51.746 49.6422 52.6153C48.2185 53.4801 47.1365 53.4184 46.2685 53.3687C45.5315 53.3215 45.0059 53.2881 44.1624 53.8011C43.3285 54.3072 43.1132 54.7912 42.8155 55.4603C42.4592 56.2603 42.018 57.251 40.5917 58.1177C39.1699 58.9832 38.0872 58.9208 37.2174 58.8705C36.8554 58.8478 36.564 58.8352 36.2789 58.8705ZM45.1412 71.0895C45.1305 71.0895 45.1192 71.0889 45.1085 71.0876C45.0235 71.0788 44.9454 71.036 44.8926 70.9687L35.477 58.8655C35.4141 58.7843 35.3939 58.6773 35.4241 58.5791C35.4543 58.4809 35.5311 58.4041 35.6287 58.372C36.2304 58.1788 36.7472 58.2102 37.2482 58.2411C38.1168 58.2921 39.01 58.343 40.265 57.5802C41.5226 56.8148 41.8871 55.9984 42.2389 55.2079C42.5587 54.4891 42.8331 53.8716 43.8351 53.2629C44.8479 52.6474 45.5516 52.6927 46.2981 52.7399C47.1667 52.7896 48.0586 52.84 49.3149 52.0771C50.5757 51.3105 50.9401 50.4928 51.2932 49.7023C51.6136 48.9835 51.8893 48.3654 52.8926 47.7561C53.8965 47.1456 54.5744 47.1852 55.3562 47.2318C55.7923 47.2557 56.2393 47.2803 56.739 47.1997C56.8485 47.1827 56.9606 47.2242 57.0317 47.3098C57.1028 47.3961 57.123 47.5125 57.0852 47.6176L49.5088 68.5315C49.483 68.602 49.4326 68.6612 49.3678 68.6984L47.8786 69.5424C47.781 69.5978 47.6621 69.5972 47.5651 69.5405C47.4682 69.4845 47.409 69.3806 47.409 69.2686V64.7355C47.4166 64.5983 47.3757 64.485 47.2945 64.3987C47.2083 64.3075 47.0842 64.2552 46.9546 64.2552C46.7116 64.2552 46.4611 64.4365 46.1502 64.8406V70.1869C46.1502 70.2795 46.1093 70.3676 46.0388 70.4267L45.3445 71.0153C45.2872 71.0631 45.2148 71.0895 45.1412 71.0895ZM40.4854 113.427C40.6698 113.709 40.9467 113.997 41.0827 113.997C41.2249 113.997 41.5321 113.704 41.7442 113.416V88.7896C41.7442 88.7449 41.7536 88.7009 41.7725 88.66L45.4773 80.4988C45.5063 80.4352 45.5208 80.3679 45.5208 80.298V72.2162C45.5208 72.1035 45.5806 71.9997 45.6781 71.9437L48.8252 70.1271C48.9222 70.0711 49.0424 70.0711 49.14 70.1271C49.2369 70.1832 49.2973 70.287 49.2973 70.3997V77.4102C49.2973 77.5342 49.3445 77.6519 49.4307 77.7426L52.9864 81.4681C53.0424 81.5267 53.0739 81.6041 53.0739 81.6853V106.125C53.2778 106.411 53.5761 106.702 53.7171 106.702C53.8537 106.702 54.1433 106.408 54.3327 106.129V81.4908C54.2496 81.3422 54.1313 81.1484 54.0658 81.0798L50.0256 77.2825C49.9626 77.2239 49.9267 77.1402 49.9267 77.0533V68.7569C49.9267 68.7204 49.933 68.6845 49.945 68.6499L57.8732 46.766C57.8764 46.7459 57.8802 46.7238 57.8846 46.71C57.8884 46.6974 57.8908 46.6659 57.894 46.6332L57.9022 46.5382C57.9015 46.5363 57.8789 46.4601 57.8783 46.4582C57.8651 46.4142 57.8569 46.3846 57.8499 46.3714C57.8449 46.3632 57.8392 46.3506 57.8348 46.338C57.821 46.326 57.7965 46.3034 57.7965 46.3034C57.7732 46.2751 57.7543 46.2505 57.7392 46.2379C57.7228 46.2247 57.6939 46.2102 57.6599 46.1926C57.6511 46.1876 57.6278 46.1731 57.6082 46.1611C57.573 46.1517 57.5447 46.1492 57.5176 46.1467L57.4119 46.1378C57.4093 46.1378 57.3376 46.1592 57.3351 46.1592C57.2916 46.1725 57.2608 46.1813 57.2451 46.1895C57.2325 46.1964 57.2123 46.2046 57.1941 46.2115C56.2361 46.7849 55.5865 46.7471 54.8356 46.7037C53.996 46.6552 53.1355 46.6049 51.9239 47.3426C50.7085 48.0821 50.3566 48.8708 50.0168 49.633C49.7064 50.3286 49.4389 50.9271 48.4671 51.5175C47.4946 52.1092 46.8413 52.0708 46.0822 52.0255C45.2375 51.977 44.3808 51.9286 43.173 52.6631C41.9582 53.4008 41.6076 54.1894 41.269 54.9517C40.9606 55.6447 40.6943 56.2433 39.7231 56.8337C38.7488 57.4279 38.0942 57.3869 37.3388 57.341C36.4973 57.2925 35.6382 57.2428 34.4303 57.9786C34.2654 58.0787 34.232 58.2499 34.227 58.343L33.9085 58.3915L34.2226 58.433C34.2351 58.5879 34.2603 58.6666 34.3082 58.7276L44.1952 71.4382C44.2386 71.4936 44.2619 71.561 44.2619 71.6315V80.1306C44.2619 80.1753 44.2524 80.2194 44.2336 80.2609L40.5288 88.4226C40.5004 88.4856 40.4854 88.5536 40.4854 88.6222V113.427ZM41.0827 114.627C40.4942 114.627 39.9938 113.836 39.9 113.677C39.871 113.628 39.8559 113.573 39.8559 113.516V88.6222C39.8559 88.4642 39.8905 88.305 39.956 88.1615L43.6325 80.062V71.7391L33.8115 59.1147C33.6869 58.9542 33.6158 58.7553 33.5994 58.5224C33.5994 58.5186 33.595 58.4614 33.5944 58.4576C33.5944 58.4538 33.5938 58.3934 33.5938 58.3896C33.5938 58.35 33.5957 58.3116 33.6026 58.2719C33.619 57.9396 33.8027 57.6236 34.103 57.4411C35.4783 56.6039 36.5231 56.6631 37.3621 56.7116C38.0828 56.7563 38.5901 56.7871 39.3964 56.2961C40.1996 55.8077 40.4067 55.3413 40.6937 54.6962C41.0367 53.9245 41.4635 52.9646 42.8463 52.1256C44.221 51.2891 45.2652 51.3482 46.1036 51.3961C46.8237 51.4382 47.3348 51.4691 48.1398 50.98C48.9442 50.4909 49.1525 50.0245 49.4408 49.3794C49.7857 48.6058 50.2137 47.6466 51.5966 46.805C52.9763 45.9654 54.0224 46.0264 54.8658 46.0749C55.5802 46.1164 56.0894 46.146 56.8938 45.6576C56.9196 45.6419 56.9681 45.6217 56.9977 45.6142C57.0216 45.5953 57.0927 45.5745 57.15 45.5581C57.2432 45.5298 57.2941 45.5166 57.3483 45.5116C57.4188 45.5034 57.4824 45.5103 57.5327 45.516C57.6265 45.5241 57.6932 45.5305 57.7675 45.5531C57.8852 45.5865 57.9274 45.6161 57.9519 45.6343C58.0029 45.6614 58.0709 45.696 58.1382 45.7514C58.2043 45.8055 58.2509 45.8634 58.288 45.9106C58.3107 45.9301 58.3485 45.9648 58.3812 46.0195C58.3976 46.046 58.417 46.0944 58.4252 46.124C58.4422 46.1454 58.4617 46.2115 58.4775 46.2656C58.5045 46.3531 58.5215 46.4085 58.5285 46.4771C58.5335 46.5325 58.5303 46.5873 58.5247 46.6439C58.5165 46.7434 58.5102 46.8151 58.4869 46.8932C58.4869 46.8932 58.475 46.9517 58.475 46.9523L50.5562 68.8123V76.9174L54.5083 80.6329C54.6833 80.8148 54.8866 81.1899 54.9256 81.2636C54.9495 81.3095 54.9622 81.3599 54.9622 81.4115V106.222C54.9622 106.28 54.9458 106.337 54.9149 106.387C54.818 106.544 54.3025 107.332 53.7171 107.332C53.1362 107.332 52.5974 106.55 52.4954 106.393C52.4621 106.342 52.4444 106.283 52.4444 106.222V81.8112L48.975 78.1769C48.7768 77.9692 48.6679 77.6966 48.6679 77.4102V70.9448L46.1502 72.3981V80.298C46.1502 80.4579 46.1162 80.6127 46.0507 80.7581L42.3736 88.8582V113.516C42.3736 113.579 42.3548 113.64 42.3195 113.692C42.2144 113.848 41.6611 114.627 41.0827 114.627Z" fill="#EC4176"></path>
</svg>
