<svg version="1.2" xmlns="http://www.w3.org/2000/svg" viewBox="0 0 840 600" width="840" height="600">
	<title>2904325_26069-ai</title>
	<style>
		.s0 { fill: #58595b } 
		.s1 { fill: #f1f2f2 } 
		.s2 { fill: #aa1325 } 
		.s3 { fill: #f7941d } 
		.s4 { fill: #c9411c } 
		.s5 { fill: #d1d3d4 } 
		.s6 { fill: #6d6e71 } 
		.s7 { fill: #353535 } 
		.s8 { fill: #e4e8ed } 
		.s9 { fill: #263142 } 
	</style>
	<g id="bg">
		<g id="&lt;Group&gt;">
			<g id="&lt;Group&gt;">
			</g>
		</g>
	</g>
	<g id="graphic">
		<g id="&lt;Group&gt;">
			<path id="&lt;Path&gt;" class="s0" d="m307.9 217.5c-1.6-0.4-4.8-0.7-6.1-1.9-5.4-4.6-1.1-6.6 1.7-9 15.5-13.6 32.5-25.6 50.4-35.8 17.1-9.6 35-17.7 53.5-24.1 8.8-2.9 20.7-8.4 30.1-7 2.9 0.4 5.8 1.2 8.6 2.2q0 0 0 0c-0.1 0.2 0 0.4 0.2 0.3-2.5 1.3-5.1 3.6-7.7 5.9q-0.2 0-0.4 0c-0.5 0-0.7 0.5-0.6 0.9-1.3 1.1-2.5 2.2-3.8 3.3q-0.4 0-0.8 0c-0.5 0-0.5 0.6-0.3 0.8q-0.2 0.2-0.4 0.4c-5.4 4-11 7.6-16.7 11.2-10.6 6.6-21.5 12.7-31.9 19.6-21.3 14.2-41.6 28.8-66.6 35.4-3.1-0.6-6.2-1.3-9.2-2.2z"/>
			<path id="&lt;Path&gt;" class="s0" d="m550.2 262.3q-2.8 8-6.6 15.5-0.1 0-0.3 0c-0.5 0.1-0.5 0.7-0.2 1q-0.6 1.1-1.2 2.2-0.1 0-0.2 0c-0.6 0.1-0.7 0.7-0.4 1-3.4 6.3-7.3 12.3-11.4 18.1q-0.2 0.1-0.3 0.4c-5.7 7.9-11.9 15.6-18.3 23-7.2 8.3-14.7 16-22.6 23.3q-0.2 0-0.4 0c-0.5 0-0.7 0.5-0.5 0.9q-1.9 1.7-3.9 3.5-0.3 0-0.7-0.1c-0.6 0-0.8 0.8-0.5 1.1q-4.6 4.1-9.4 8.1c-0.4 0-0.6 0.3-0.6 0.5q-2.3 1.9-4.6 3.8-0.2 0-0.3 0c-0.4 0-0.7 0.4-0.6 0.7q-2.3 1.8-4.6 3.6-0.9 0.1-1.8 0.2c-0.8 0-0.5 1.1 0.1 1.1q0.1-0.1 0.1-0.1-2 1.7-4.2 3.3-0.9 0-1.8 0c-0.8 0.1-0.9 1.3-0.1 1.3q0.1 0 0.2 0-0.9 0.7-1.7 1.3-0.1-0.6-0.1-1.2-1-15.4-2-30.8c3.8-3 7.4-6.6 11-9.8 10.8-9.7 21.5-19.6 31.9-29.8 18.4-18 36.1-36.9 52.5-56.8 1.1 4.8 2.5 9.8 3.5 14.7z"/>
			<path id="&lt;Path&gt;" class="s1" d="m493.4 299.7q-13.8 13.5-28.1 26.5c-9.4 8.5-20.1 22.3-34 19.9-17.7-3.1-34.3-12.3-47.7-24.6-7.2-7.1-13.7-14.8-19.6-23q-0.1-0.2-0.2-0.4c-9.9-14.9-16.2-32.6-16.5-50.3-0.2-14.1 15.1-22.5 25-30.5q15-12.1 30.6-23.6c35.6-26.3 73.4-49.9 113.6-68.2-2.1 3.8-0.6 8.7 1 12.7 3.4 8.4 9.1 16.3 14.6 23.4 12 15.6 27.3 29.7 44.6 39.3-24 35.8-52.5 68.5-83.3 98.8z"/>
		</g>
		<g id="&lt;Group&gt;">
			<path id="&lt;Path&gt;" class="s2" d="m626 94.8c-8.2 51.5-35.4 89-48.6 105-65.2-44.6-59.6-76.1-59.6-76.1 58.6-32 108.2-28.9 108.2-28.9z"/>
			<path id="&lt;Path&gt;" class="s3" d="m395.7 365.7c3 10.8-0.5 22.1-0.5 22.1-3.2-3.9-7.8-8.4-7.8-8.4-6.8 33.1-23.7 44.9-23.7 44.9 0.2-19.4-4.2-34.1-4.2-34.1 3 28-36.5 71.6-36.5 71.6 2.5-16.6-4-46.5-4-46.5-9.3 36.5-37.2 60.2-37.2 60.2 3.7-23.5-1.1-46.7-1.1-46.7-26.2 9.4-85 72.7-85 72.7 14.3-59.3 62-100.6 62-100.6-27.5-12.3-74.7 13.9-74.7 13.9 44.7-60.3 98.8-79.1 98.8-79.1-6-4.3-48.6-5.5-48.6-5.5 28.1-18.4 65.4-27.7 65.4-27.7l-25.1-12.5 38.3-5-8.6-7c9.1-1.5 20.6 7 20.6 7 15.4 61.8 71.9 80.7 71.9 80.7z"/>
			<path id="&lt;Path&gt;" class="s4" d="m373.9 354.4l-7.3 13.3c-3 6.6-5.5 4.1-5.5 4.1-2.3-0.3-9.3-13.3-9.3-13.3-9.6 31.8-13.8 26.9-13.8 26.9-0.4-20.5-4.3-23.9-4.3-23.9-25.2 36.5-29.9 34.6-29.9 34.6 1.7-5.4 6.9-20.5 6.9-20.5-27.5 10.9-30 9.8-30 9.8 7.5-10.2 40.6-33.9 40.6-33.9-2.3-2.8-24.8-5.6-24.8-5.6 4.5-4.5 39.1-12.9 39.1-12.9-1.6-2.5-27.4-18.4-27.4-18.4 9.8-3.8 26.1-0.9 26.1-0.9 16.6 25.7 39.6 40.7 39.6 40.7z"/>
			<path id="&lt;Compound Path&gt;" fill-rule="evenodd" class="s5" d="m516.5 238.7c-11.5 18-37.2 23.3-55.4 12.7-17.2-10.1-23.8-34.5-13.1-51.6 8.7-13.8 29.8-22.7 46.1-18.1q0.1 0.2 0.4 0.3c5.6 2.3 11 6.7 15.5 11.9q0.3 0.6 0.6 1.1c0.1 0.2 0.3 0.2 0.4 0.1 3.3 4.1 6.1 8.4 8 12.6 4.7 10.1 3.4 21.6-2.5 31zm-5.6-35c-5.3-9.4-15-14.6-25.1-14.9-12.9-0.9-26 4.9-32.5 16.5-8 14.3-1.9 29.9 10.1 40 11.7 9.9 31.7 6.1 42.2-4 9.8-9.5 12-25.8 5.3-37.6z"/>
			<path id="&lt;Path&gt;" class="s6" d="m487.8 247.2c-9.9 2.1-18.7 0.3-25.7-7.2-6.2-6.5-10.6-14.5-9.5-23.7 1.5-13.2 11.2-20.8 22.7-24.1 13.8-3.4 29.9 3 34.9 17 6.2 17.2-5.1 34.3-22.4 38z"/>
		</g>
		<g id="&lt;Group&gt;">
			<path id="&lt;Path&gt;" class="s7" d="m379 317.5c-0.2 0.9-1.3 1.6-2.1 0.9-20.1-16.7-34.8-46.1-33.4-72.9 0.6-12.5 11.6-19.2 20.4-26.5 11.3-9.2 22.8-18.2 34.4-26.8 23.2-17.2 47.2-33.3 72.3-47.6 25.5-14.5 52.1-27.2 79.8-37.2 24.5-8.8 49.9-16.1 76.1-15 2.5 0.1 2.1 3.9-0.3 3.8-29.2-1.1-57.7 8.3-84.6 18.7-49.8 19.3-95.9 47.1-138.7 78.8q-15.6 11.5-30.6 23.6c-9.9 8-25.2 16.4-25 30.5 0.3 17.7 6.6 35.4 16.5 50.3 3.7 7.5 9.1 13.8 15.2 19.4z"/>
			<path id="&lt;Path&gt;" class="s7" d="m432.9 350.3c-26.7-2.9-53.4-22-66.8-44.5-0.4-0.8 0.2-1.7 1-1.9 4.4 6.5 10 12.1 16.1 17.2 13.4 12.5 30.2 21.9 48.1 25 13.9 2.4 24.6-11.4 34-19.9q14.3-13 28.1-26.5c38-37.4 72.6-78.6 99.5-124.7 14.5-24.9 28.3-51.6 31.7-80.6 0.3-2.5 4.1-2.2 3.8 0.3-3 26.1-14.2 50-26.7 72.8-14.2 25.7-30.9 50.1-49.2 73-18 22.5-37.7 43.7-58.3 63.9-10.4 10.2-21.1 20.1-31.9 29.8-8.6 7.6-16.9 17.4-29.4 16.1z"/>
			<path id="&lt;Path&gt;" class="s7" d="m396 334.6c-10.1-4.9-18.3-13.9-25.7-22.2-7.3-8.1-14.5-17.8-17-28.6 0-0.3 0.4-0.4 0.6-0.2 11.6 18.6 25.5 35.9 42.9 49.5 0.7 0.5 0.1 2-0.8 1.5z"/>
			<path id="&lt;Path&gt;" class="s7" d="m577.9 201.5c-17.8-9.5-33.5-23.9-45.8-39.9-5.5-7.1-11.2-15-14.6-23.4-1.9-4.6-3.5-10.5 0.3-14.5 0.1 0 0.2 0 0.2 0.1 0.8 7.6 2.3 13.2 6.4 19.8q6.8 11.2 15.3 21.1c11.6 13.6 25.2 24.3 40 34.1 1.9 1.2 0 3.7-1.8 2.7z"/>
			<path id="&lt;Compound Path&gt;" fill-rule="evenodd" class="s7" d="m440.4 229.9c-5.2-19.4 4-38.4 21.7-47.4 11.6-5.9 24.9-6.8 35.5-1.5 19.4 7 33 31.8 26.2 51.5-13.2 38.6-72.9 36.5-83.4-2.6zm76.1 8.8c5.9-9.4 7.2-20.9 2.5-31-1.9-4.2-4.7-8.5-8-12.6-0.1 0.1-0.3 0.1-0.4-0.1q-0.3-0.5-0.6-1.1c-4.5-5.2-9.9-9.6-15.5-11.9q-0.3-0.1-0.4-0.3c-16.3-4.6-37.4 4.3-46.1 18.1-10.7 17.1-4.1 41.5 13.1 51.6 18.2 10.6 43.9 5.3 55.4-12.7z"/>
			<path id="&lt;Path&gt;" class="s7" d="m359.1 344.1c-16-12.5-27.4-29.8-33.4-49.1-1.7-5.3-2.9-10.8-3.7-16.3-0.4-2.9-1.3-6.9 0-9.7 1.5-3 5-4 7.9-5.1 5.3-2 10.6-4 16.1-5.7 1-0.3 2.2 0.8 2 1.9-0.2 1.5-0.5 2.7-0.8 4.2-0.2 0.9-1.4 0.6-1.6-0.2-0.2-0.6-0.3-1.2-0.5-1.8-3.7 1.5-7.6 2.9-11.4 4.3-5.1 2-8.1 2.7-8.1 9.2 0 8.3 3.5 17.8 6.5 25.3 6.2 15.8 16.4 29.6 28.7 41.1 1.1 1-0.6 2.8-1.7 1.9z"/>
			<path id="&lt;Path&gt;" class="s7" d="m339.9 317.7c9.5 14 21.5 26.2 36.1 34.8 6.9 4.2 15.8 9.1 23.9 10.4 6.4 1 7.7-1.8 10.4-6.7 2-3.5 3.9-7 6-10.5-0.5-0.2-1.1-0.5-1.7-0.7-0.7-0.3-0.8-1.6 0.1-1.7 1.5-0.1 2.8-0.1 4.3-0.1 1 0 2 1.3 1.5 2.3-2.5 5.1-5.4 10-8.2 15-1.5 2.7-3 6-6.2 7-3 0.9-6.8-0.7-9.6-1.5-5.3-1.7-10.5-3.8-15.5-6.2-18.1-9-33.4-23-43.3-40.7-0.7-1.3 1.3-2.6 2.2-1.4z"/>
			<path id="&lt;Path&gt;" class="s7" d="m466.6 149.1c-0.5 0.4-7.2 5.2-6.4 4.4-0.3 0.2-0.6-0.1-0.4-0.4-0.4 0.5 1.4-2.4 2.7-4.5-8.1-3.2-16.6-7.7-25-8.9-9.4-1.4-21.3 4.1-30.1 7-18.5 6.4-36.4 14.5-53.5 24.1-17.9 10.2-34.9 22.2-50.4 35.8-2.8 2.4-7.1 4.4-1.7 9 1.3 1.2 4.5 1.5 6.1 1.9 4.6 1.3 9.2 2.2 13.9 3.3q15.3 3.4 30.6 6.9c2.4 0.5 1.1 4.3-1.3 3.7-12.8-2.9-25.5-5.7-38.3-8.6-5.1-1.2-19.9-2.8-19-10.8 0.3-2.9 3.3-5 5.3-6.8 4.8-4.4 9.9-8.5 15-12.5 8.9-6.9 18.1-13.3 27.6-19.2 20.5-12.7 42.4-23 65.2-30.7 8.9-3 19.8-7.9 29.3-7.3 10 0.6 20.6 6.7 29.8 10.4 1.2 0.5 1.8 2.3 0.6 3.2z"/>
			<path id="&lt;Path&gt;" class="s7" d="m549.8 244c2.2 9.6 6.6 21.1 5.6 31.1-0.9 9.5-7.4 19.5-11.7 27.7-11.2 21.4-24.9 41.4-40.6 59.6-7.4 8.5-15.1 16.6-23.3 24.3-4.7 4.4-9.6 8.8-14.7 12.9-2.1 1.7-4.6 4.3-7.6 4.2-8-0.5-7.2-15.3-7.6-20.5-0.9-13.1-1.7-26.1-2.6-39.1-0.1-2.6 3.8-3.3 3.9-0.7q1.1 15.6 2.1 31.3c0.3 4.7 0.5 9.4 1 14.2 0.2 1.6 0 4.8 0.9 6.3 3.8 6.1 6.4 2.1 9.2-0.2 15.9-13.3 30.3-28.2 43.2-44.3 12.2-15.3 23-31.8 32.2-49.1 4.3-8.1 11.6-19 11.7-28.5 0.1-8.6-3-17.7-4.9-26.2-2.3 1-5.4 2.4-4.9 2-0.3 0.2-0.6-0.2-0.3-0.4-0.9 0.6 4.9-5.3 5.3-5.7 1.1-1 2.8-0.2 3.1 1.1z"/>
			<path id="&lt;Compound Path&gt;" fill-rule="evenodd" class="s7" d="m463.4 245.3c-12-10.1-18.1-25.7-10.1-40 6.5-11.6 19.6-17.4 32.5-16.5 10.1 0.3 19.8 5.5 25.1 14.9 6.7 11.8 4.5 28.1-5.3 37.6-10.5 10.1-30.5 13.9-42.2 4zm46.8-36.1c-5-14-21.1-20.4-34.9-17-11.5 3.3-21.2 10.9-22.7 24.1-1.1 9.2 3.3 17.2 9.5 23.7 7 7.5 15.8 9.3 25.7 7.2 17.3-3.7 28.6-20.8 22.4-38z"/>
			<path id="&lt;Path&gt;" class="s7" d="m511.8 214.3c-8.3 0.6-17.5-0.7-25.6-2.3-0.3-0.1-0.4-0.6-0.1-0.6 8.3-0.6 17.5-1.1 25.6 0.3 1.3 0.3 1.7 2.4 0.1 2.6z"/>
			<path id="&lt;Path&gt;" class="s7" d="m511.9 224.5c-2.6 0.4-5-0.1-7.5-0.8-2.9-0.7-5.9-1.3-8.9-2.1-0.4-0.1-0.3-0.7 0.1-0.8 5.3-0.7 10.5 1.3 15.8 0.9 1.8-0.1 2.3 2.6 0.5 2.8z"/>
			<path id="&lt;Path&gt;" class="s7" d="m482.5 221.1c-0.1-0.1-0.2 0-0.1 0.1 0 0.1 0.2-0.1 0.1-0.1z"/>
			<path id="&lt;Path&gt;" class="s7" d="m482.2 222.4c-10.2 0.1-20.8-0.2-30.7-2.7-1.8-0.5-1.1-3.3 0.7-3.2 10 1.1 20 3.4 30 5 0.6 0.1 0.6 0.9 0 0.9z"/>
			<path id="&lt;Path&gt;" class="s7" d="m464.5 210.3c-1.4 0.5-3.3-0.1-4.8-0.1-2.1 0-4.2 0.2-6.2 0.3-2 0.2-2.1-2.6-0.1-2.7 2-0.1 4.1 0.2 6.1 0.6 1.5 0.4 4 0.6 5 1.9q0.1 0 0 0z"/>
			<path id="&lt;Path&gt;" class="s7" d="m624.3 100.8c-5.2-2.2-10.6-3.7-16.1-5.2q0 0 0 0c-0.4-0.1-0.3-0.8 0.1-0.8 5.5 0.7 11 2.4 16.1 4.4q0 0.8-0.1 1.6z"/>
			<path id="&lt;Path&gt;" class="s7" d="m624.4 103.8c-7.7-3.2-15.5-5.8-23.5-7.7q-0.3 0-0.4-0.2 0.9-0.3 1.8-0.6c7.5 1.8 14.8 4 22 6.7q0 0.9 0.1 1.8z"/>
			<path id="&lt;Path&gt;" class="s7" d="m620.5 104.8c-7.5-3.2-14.9-6.1-22.7-8.2q0.8-0.2 1.6-0.4c7.4 1.7 14.7 4 21.5 7.2 0.9 0.4 0.4 1.8-0.4 1.4z"/>
			<path id="&lt;Path&gt;" class="s7" d="m619.4 107.8q-13-6.1-26.7-10.1 1.2-0.2 2.3-0.5 12.8 3.7 24.9 9.2c0.9 0.4 0.4 1.9-0.5 1.4z"/>
			<path id="&lt;Path&gt;" class="s7" d="m619.7 112.3q-18.3-7.5-37.5-12.5 1.3-0.3 2.6-0.5 18 4.6 35.4 11.5c1 0.3 0.4 1.9-0.5 1.5z"/>
			<path id="&lt;Path&gt;" class="s7" d="m620.7 116.2q-21.3-9.6-43.8-15.3 0.5-0.1 1-0.2 22.2 5.1 43.3 13.9c1 0.5 0.4 2-0.5 1.6z"/>
			<path id="&lt;Path&gt;" class="s7" d="m618.2 117.9c-15.7-6.1-31.7-11.1-48.2-14.8q1-0.2 1.8-0.7c15.9 3.4 31.7 7.9 47 13.8 1 0.4 0.5 2.1-0.6 1.7z"/>
			<path id="&lt;Path&gt;" class="s7" d="m616.7 120.4c-17.2-7.3-35-12.6-53.4-15.7q0.9-0.3 1.8-0.6c17.9 3 35.4 7.8 52.2 14.6 1.1 0.4 0.5 2.2-0.6 1.7z"/>
			<path id="&lt;Path&gt;" class="s7" d="m618.4 126.2c-19.9-7.9-40.5-14.1-61.4-18.9q0.9-0.4 1.8-0.8c20.5 4.6 40.5 10.6 60.3 17.8 1.1 0.5 0.5 2.3-0.7 1.9z"/>
			<path id="&lt;Path&gt;" class="s7" d="m610.6 130.9c-19.4-8.7-39.1-15.1-59.6-20.5q0.2-0.1 0.5-0.3 0.8-0.4 1.6-0.8c20.1 4 39.8 10.9 58.3 19.4 1.3 0.7 0.6 2.9-0.8 2.2z"/>
			<path id="&lt;Path&gt;" class="s7" d="m613.9 137.1c-22.5-10.7-46-18.5-70.3-23.5q0.8-0.3 1.6-0.6c23.9 4.6 47.2 12 69.4 22.1 1.2 0.6 0.5 2.6-0.7 2z"/>
			<path id="&lt;Path&gt;" class="s7" d="m612.5 143q-0.1 0-0.2 0c-25.3-10.1-49.8-20.8-76.3-26.8q0.9-0.3 1.7-0.5c25.9 5.3 51.4 14.4 75.2 25.5 0.3 0.2 0.4 0.4 0.5 0.6q-0.4 0.4-0.7 0.9-0.1 0.2-0.2 0.3z"/>
			<path id="&lt;Path&gt;" class="s7" d="m610.3 146.3c-27.3-11.2-54.9-22-84.1-27.3q0.9-0.2 1.8-0.4c28.7 5.1 56.4 14.9 83.5 26q-0.6 0.8-1.2 1.7z"/>
			<path id="&lt;Path&gt;" class="s7" d="m607.8 150.7c-29.7-12.4-60-24.1-92-28.7q0.8-0.2 1.6-0.5c31.8 4.2 61.8 15.4 91.4 27.4q-0.5 0.9-1 1.8z"/>
			<path id="&lt;Path&gt;" class="s7" d="m605.2 155.8c-29.5-12.6-59.1-24.5-90.5-31.6q-0.3-0.8-0.5-1.5c31.7 6.7 62.3 18.1 92.1 30.9q-0.6 1.1-1.1 2.2z"/>
			<path id="&lt;Path&gt;" class="s7" d="m603 160.5c-28-11.3-55.7-22.7-85.4-28.3q-0.2-0.7-0.5-1.5c30 5.2 58.9 15.7 86.9 27.7q-0.5 1-1 2.1z"/>
			<path id="&lt;Path&gt;" class="s7" d="m602.1 162.3c-27-10-54-20-82.6-24.7-1-0.1-0.9-1.6 0.1-1.5 28.6 4.4 56.5 13.7 83.5 24.2q-0.5 1-1 2z"/>
			<path id="&lt;Path&gt;" class="s7" d="m599.6 167.7c-25.7-10.1-51.8-18.5-78.6-24.6q-0.3-0.5-0.6-1-0.2-0.4-0.4-0.9c27.4 5.9 54.6 13.9 80.5 24.6q0 0 0 0-0.5 0.9-0.9 1.9z"/>
			<path id="&lt;Path&gt;" class="s7" d="m598 170.9c-24.3-9.1-48.9-16.9-74.2-22.9q-0.5-0.7-0.9-1.5c25.7 5.8 51.3 13.1 75.9 22.6q-0.4 0.9-0.8 1.8z"/>
			<path id="&lt;Path&gt;" class="s7" d="m595 176.7c-22.1-8.7-44.2-16.6-67.2-22.5q-0.6-0.9-1.3-1.9c23.7 5.8 47.3 13 69.6 22.6q-0.6 0.9-1.1 1.8z"/>
			<path id="&lt;Path&gt;" class="s7" d="m593.3 179.2c-0.2 0.2-0.5 0.3-0.9 0.2-19.9-7.4-39.9-14.3-60.4-19.9q-0.8-0.9-1.5-1.8c21.2 5.4 42.2 11.8 62.6 19.8 0.5 0.2 0.7 0.8 0.5 1.2q-0.1 0.3-0.3 0.5z"/>
			<path id="&lt;Path&gt;" class="s7" d="m537.6 165.6c17 4.1 33.8 9.1 50.1 15.4 1.1 0.4 0.5 2.2-0.7 1.8-15.7-5.7-31.4-11-47.5-15.3q-0.9-1-1.9-1.9z"/>
			<path id="&lt;Path&gt;" class="s7" d="m588.2 186.7c-13.8-4.3-27.6-8.6-41.5-12.4q-1.2-1.2-2.4-2.3c15.1 3.8 30.2 8 45 13.2q-0.6 0.7-1.1 1.5z"/>
			<path id="&lt;Path&gt;" class="s7" d="m549 176.5c12.3 3.4 24.5 7.2 36.4 11.7 1.2 0.5 0.5 2.3-0.7 1.9-11-3.8-21.9-7.6-32.9-11q-1.4-1.3-2.8-2.6z"/>
			<path id="&lt;Path&gt;" class="s7" d="m583.8 193.5c-8.4-2.5-16.8-5.2-25.2-7.7q-1.1-1-2.1-2c9.5 2.5 19 5.1 28.3 8.1q-0.5 0.8-1 1.6z"/>
			<path id="&lt;Path&gt;" class="s7" d="m581.9 197.7c-5.5-1.9-10.9-3.9-16.4-5.7q-1.6-1.3-3.2-2.7c6.7 2.1 13.5 4.2 20.2 6.7q-0.4 0.9-0.6 1.7z"/>
			<path id="&lt;Path&gt;" class="s7" d="m348 269.5c-2.8-0.8-5.5-1.6-8.3-2.2q-1.9-0.4-3.8-0.6c-0.8-0.1-1.5-0.1-2.2-0.2 0-0.1-0.4-0.1-0.8-0.2q0 0 0 0c0 0.2-0.2 0.3-0.4 0.4q-0.1 0-0.2 0c-0.1 0-0.3 0-0.4-0.2q-0.1 0-0.2-0.1c-0.1-0.2-0.2-0.5 0-0.7 1.3-1.5 5.2-0.3 6.9-0.1 3.3 0.5 6.8 1.1 10 2.2 1 0.4 0.4 2-0.6 1.7z"/>
			<path id="&lt;Path&gt;" class="s7" d="m348.3 273.3c-8.1-2.3-16.2-4.1-24.6-4.5-0.7-0.1-0.6-1.2 0.1-1.2 8.4 0.5 17 1.6 25 4.1 1.1 0.3 0.5 1.8-0.5 1.6z"/>
			<path id="&lt;Path&gt;" class="s7" d="m349 277c-9.1-2.6-18-4.7-27.4-5.3-0.5-0.1-0.5-0.8 0-0.8 9.4 0.4 19 1.7 27.9 4.8 0.8 0.3 0.4 1.6-0.5 1.3z"/>
			<path id="&lt;Path&gt;" class="s7" d="m351.6 282.5c-8.5-2.6-16.5-5.5-25.2-7 0 0.2-0.4 0.5-0.6 0.3q-0.9-0.4-1.9-0.7c-1-0.1-0.9-1.8 0.2-1.7 9.4 0.8 20 2.7 28.4 7.5 0.9 0.5 0.1 1.9-0.9 1.6z"/>
			<path id="&lt;Path&gt;" class="s7" d="m351.8 286.3c-0.2-1.1-12.4-3.4-13.9-3.8-4.6-1.3-9.2-2.5-13.7-3.9-0.8-0.2-0.6-1.7 0.3-1.6 6.3 1.3 12.5 3.1 18.7 4.7 2.7 0.7 10.2 0.9 10.8 4.2 0.3 1.4-2 1.8-2.2 0.4z"/>
			<path id="&lt;Path&gt;" class="s7" d="m353.7 291.9c-9-2.9-18.2-4.7-27.3-7-0.6-0.1-0.4-1 0.2-1 9.3 0.9 18.7 3.5 27.7 6.2 1.2 0.4 0.6 2.2-0.6 1.8z"/>
			<path id="&lt;Path&gt;" class="s7" d="m356.2 296.7c-9.7-2.9-19.3-5.5-29.3-7.3-0.7-0.1-0.6-1.2 0.1-1.1 10 1.2 20.3 3.2 29.9 6.5 1.2 0.5 0.6 2.3-0.7 1.9z"/>
			<path id="&lt;Path&gt;" class="s7" d="m360.6 301c-11.1-2.1-21.8-5.5-32.9-7.1-0.3 0.5-0.9 0.7-1.6 0.4-0.7-0.4-0.8-0.6-1.1-1.3-0.3-0.8 0.2-1.9 1.2-1.7 11.6 1.7 23.4 4.9 34.6 8.5q0 0 0 0c0.6 0.3 0.5 1.3-0.2 1.2z"/>
			<path id="&lt;Path&gt;" class="s7" d="m368.4 306.9c-12.5-2.8-25.1-5.7-37.7-8.3-1.3-0.3-0.6-2.3 0.7-2 12.5 3 24.9 6.1 37.3 9.7 0.4 0.1 0.1 0.7-0.3 0.6z"/>
			<path id="&lt;Path&gt;" class="s7" d="m371.8 312.7c-14-2.6-27.9-8.6-42.2-9.7-1.4-0.2-1.2-2.4 0.2-2.3 6.4 0.8 12.6 3 18.8 4.8 7.8 2.2 15.7 4.2 23.3 6.9 0.1 0.1 0.1 0.4-0.1 0.3z"/>
			<path id="&lt;Path&gt;" class="s7" d="m375.6 317c-14.7-2.9-29.3-6.3-43.9-9.4q-0.4-1.1-0.6-2.3c14.9 3 30.1 6.4 44.6 11.2 0.3 0.1 0.2 0.5-0.1 0.5z"/>
			<path id="&lt;Path&gt;" class="s7" d="m381.7 322.2c-15.6-3.1-31.3-5.7-46.9-8.3-1.6-0.3-1.4-2.7 0.1-2.5 15.8 2.3 31.6 5.6 47.1 9.4 0.8 0.2 0.5 1.6-0.3 1.4z"/>
			<path id="&lt;Path&gt;" class="s7" d="m385.8 326.7c-14.7-1.9-29.4-4.3-44.1-6.5-1.6-0.2-1.4-2.6 0.2-2.4 14.7 2.5 29.4 4.8 44.1 7.6 0.8 0.2 0.7 1.4-0.2 1.3z"/>
			<path id="&lt;Path&gt;" class="s7" d="m390.6 330c-13 1.1-25.7-1.9-38.6-3.7q-0.1 0.1-0.3 0-2.6-0.3-5.2-0.7c-1.6-0.2-1.4-2.6 0.2-2.4 14.6 1.6 28.8 6.2 43.6 5.2 1 0 1.3 1.5 0.3 1.6z"/>
			<path id="&lt;Path&gt;" class="s7" d="m400.5 335.7c-15.6-1.2-31.6-2.7-47-5.6-1.3-0.3-1.3-2.4 0.2-2.2 15.7 1.6 31.2 4.8 46.9 6.5 0.8 0.1 0.7 1.4-0.1 1.3z"/>
			<path id="&lt;Path&gt;" class="s7" d="m404.4 339.9c-17.6-1.6-35.3-3.1-53-4.5-1.3-0.1-1.5-2.2-0.2-2.3l1.6-0.1c0.4 0 0.7 0.1 0.9 0.3 16.9 1.8 33.9 3.6 50.8 5.2 1 0.1 0.8 1.5-0.1 1.4z"/>
			<path id="&lt;Path&gt;" class="s7" d="m412.6 342.9c-18.6-0.1-37.1-1.3-55.6-2.8-1.7-0.1-1.4-2.8 0.2-2.5 18.4 2.1 36.9 3.4 55.5 4.4 0.5 0 0.5 0.9-0.1 0.9z"/>
			<path id="&lt;Path&gt;" class="s7" d="m415.7 345.8c-18.5 1.6-37.4-0.1-55.8-1.3-1.7-0.1-1.5-2.6 0.2-2.5 18.4 1.1 36.9 3.7 55.4 2.7 0.7-0.1 0.9 1 0.2 1.1z"/>
			<path id="&lt;Path&gt;" class="s7" d="m415.7 347.9c-16.8 1.1-34.1 1.6-51 0.9-1.5-0.1-1.3-2.4 0.2-2.4 16.9-0.2 33.9 0.2 50.7 0.6 0.6 0 0.6 0.9 0.1 0.9z"/>
			<path id="&lt;Path&gt;" class="s7" d="m414.8 352.6c-12.4 2.7-25.4 2.2-38.1 2.7q-1.3-1.2-2.8-2.3c13.6-0.6 27.1 0.3 40.7-1.5q0 0.5 0.2 1.1z"/>
			<path id="&lt;Path&gt;" class="s7" d="m411.9 357.3c-3.5 0.8-7 1.2-10.6 1.6-3 0.2-5.9 0.4-8.8 0.7-2.1 0.2-5.3 0-7.4 0.8q0 0.1-0.1 0.1c-0.3 0.5-1.1 0.7-1.6 0.3q-0.1 0-0.2-0.1c-0.6-0.4-0.8-1.5-0.1-1.9 3.1-2.2 9.1-1.3 12.8-1.5 5.6-0.2 11.3-0.5 16.8-1.4q-0.4 0.7-0.8 1.4z"/>
			<path id="&lt;Path&gt;" class="s7" d="m410.5 360.3c-4 0.7-8 1.3-12.1 1.7-1.4 0.1-1.5-1.9-0.1-1.9 4.2 0 8.5-0.4 12.7-0.9q-0.3 0.5-0.5 1.1z"/>
			<path id="&lt;Path&gt;" class="s7" d="m382.4 188.5c-20.7 13.9-41.9 30-67.3 33.3-1 0.2-1.2-1.3-0.3-1.5 26.1-6.3 46.9-21.4 68.9-36 10.4-6.9 21.3-13 31.9-19.6 5.7-3.6 11.3-7.2 16.7-11.2 4.6-3.4 9.4-8.9 14-11.3-0.2 0.1-0.3-0.1-0.2-0.3q0.8-0.8 1.6-1.6c0.4-0.5 1.3 0.2 0.8 0.7-17.8 20.8-43.8 32.5-66.1 47.5z"/>
			<path id="&lt;Path&gt;" class="s7" d="m458.7 147.2c-5.2-0.3-10.5-0.6-15.7-1-0.8 0-0.7-1.3 0.1-1.2q0.8-0.1 1.5-0.3c0.2 0 0.4 0.1 0.4 0.2 4.6-0.1 9.3 0 13.9 0.4 1.1 0.1 1 1.9-0.2 1.9z"/>
			<path id="&lt;Path&gt;" class="s7" d="m461.3 150.2c-0.4 0.1-0.7-0.2-0.9-0.5-7.4-0.1-14.9-0.4-22.3-0.4-0.8 0-0.7-1.2 0.1-1.2 8-0.2 16.1-0.5 24.1-0.3 0.9 0 1.1 1.1 0.5 1.7-0.5 0.6-0.7 0.6-1.5 0.7z"/>
			<path id="&lt;Path&gt;" class="s7" d="m457.2 153.8h-0.2c-0.8 0.1-1.3-1.1-0.5-1.4-1.8 0.8-1.5 1-3.4 0.9q-1.4-0.1-2.8-0.1-2.8-0.1-5.5-0.1-5.9-0.1-11.8 0.1c-0.5 0-0.6-0.9 0-0.9q6.3-0.4 12.6-0.6 3.4-0.1 6.9 0c1.5 0 3.4-0.4 4.8 0.3q0.7 0.3 0.6 1.1-0.1 0.1-0.1 0.2c-0.1 0.2-0.3 0.5-0.6 0.5z"/>
			<path id="&lt;Path&gt;" class="s7" d="m452.7 156.7c-8 0-16 0-24 0.9-0.6 0-0.8-0.9-0.1-1 8-1.1 16.1-1.9 24.2-1.7 1.2 0.1 1 1.8-0.1 1.8z"/>
			<path id="&lt;Path&gt;" class="s7" d="m446.2 160q-0.5 0.1-1 0.2-0.3 0.1-0.5-0.1-10.2 0.4-20.4 0.9c-0.8 0.1-1-1.1-0.2-1.2q10.9-0.8 21.8-1.4c1.1 0 1.4 1.4 0.3 1.6z"/>
			<path id="&lt;Path&gt;" class="s7" d="m441.3 164q-0.5 0.1-1.1 0.2-0.3 0-0.6-0.2-9.4 0.3-18.7 1c-0.7 0-0.9-1-0.2-1.1q10.1-0.9 20.3-1.5c1-0.1 1.3 1.4 0.3 1.6z"/>
			<path id="&lt;Path&gt;" class="s7" d="m434 168.5q-10.2 0.1-20.4 0.6c-0.7 0-0.9-1-0.2-1q10.3-0.8 20.7-1.2c1 0 0.9 1.6-0.1 1.6z"/>
			<path id="&lt;Path&gt;" class="s7" d="m428.7 173.3q-11.2-0.1-22.5-0.3c-0.8 0-0.7-1.3 0.1-1.3q11.3 0 22.5 0c1 0 0.9 1.6-0.1 1.6z"/>
			<path id="&lt;Path&gt;" class="s7" d="m422.7 177.3c-7.7-0.4-15.5-0.6-23.2-0.4-0.8 0-0.7-1.1 0-1.1 7.8-0.3 15.6-0.3 23.4 0 1 0 0.8 1.6-0.2 1.5z"/>
			<path id="&lt;Path&gt;" class="s7" d="m414.4 182q-10-1.1-20-0.6c-0.6 0.1-0.7-0.9-0.1-0.9q10.1-0.7 20.2 0.3c0.8 0 0.7 1.3-0.1 1.2z"/>
			<path id="&lt;Path&gt;" class="s7" d="m410.9 185.9q-12.1-0.4-24.3-0.2c-0.9 0.1-0.7-1.2 0.1-1.2q12.2-0.5 24.4-0.3c1 0 0.9 1.7-0.2 1.7z"/>
			<path id="&lt;Path&gt;" class="s7" d="m404.1 189.6c-7.5-0.5-14.8-0.9-22.4-0.2-0.6 0.1-0.8-0.9-0.1-0.9 7.4-0.9 15.1-1.2 22.6-0.1 0.8 0.1 0.7 1.3-0.1 1.2z"/>
			<path id="&lt;Path&gt;" class="s7" d="m398.1 194.4c-8.4 0.3-16.7 0.3-25.1 0.7-0.6 0-0.7-1.1 0-1.1 8.4-0.5 16.8-1.1 25.2-1 0.9 0 0.7 1.3-0.1 1.4z"/>
			<path id="&lt;Path&gt;" class="s7" d="m391.8 198c-8.7 0.6-17.9 1.2-26.6 0.6-0.5-0.1-0.6-0.9 0-0.9 8.5-1.4 17.9-1.4 26.5-1.5 1.1 0 1.2 1.8 0.1 1.8z"/>
			<path id="&lt;Path&gt;" class="s7" d="m387.9 200.4q-12.4-0.3-24.9 0.2c-0.2 0-0.2-0.4 0-0.4q12.5-1 25-1.2c1 0 0.9 1.4-0.1 1.4z"/>
			<path id="&lt;Path&gt;" class="s7" d="m385.5 203.5c-9.4-0.5-18.8-0.5-28.2 0-0.5 0.1-0.7-0.7-0.2-0.8 9.5-0.7 19-1 28.6-0.8 1 0 0.9 1.7-0.2 1.6z"/>
			<path id="&lt;Path&gt;" class="s7" d="m381.1 207c-9-0.6-17.8-1-26.8-0.5-0.5 0-0.6-0.7-0.1-0.7 8.9-0.8 18-1.1 27-0.3 1 0.1 0.9 1.6-0.1 1.5z"/>
			<path id="&lt;Path&gt;" class="s7" d="m376 210.8c-9.8-0.8-19.4-1.5-29.2-1.3-0.8 0.1-0.7-1.2 0.1-1.2 9.7-0.4 19.6-0.4 29.2 0.8 1.1 0.1 1 1.8-0.1 1.7z"/>
			<path id="&lt;Path&gt;" class="s7" d="m370.8 213.7q0 0.1-0.1 0.1c-0.3 0.3-0.8 0.3-1.1-0.1q0 0-0.1-0.1 0 0 0 0c-1.9-0.7-5-0.5-7-0.7q-3.3-0.3-6.7-0.4c-4.7-0.2-9.4-0.2-14.2 0-0.6 0.1-0.6-1 0-1 5.3-0.4 10.5-0.5 15.8-0.4q4.1 0.2 8.2 0.5c1.5 0.2 3.9-0.1 5.2 0.9 0.4 0.2 0.5 0.9 0 1.2z"/>
			<path id="&lt;Path&gt;" class="s7" d="m366.1 216.8c-11-0.8-22-1.3-33.1-1.3-0.8 0-0.6-1.2 0.1-1.2 11.1-0.2 22.1 0 33.1 0.8 1 0.1 0.9 1.7-0.1 1.7z"/>
			<path id="&lt;Path&gt;" class="s7" d="m364.1 220.3q-18.9-2.6-38-2.2c-0.3 0-0.4-0.6 0-0.6q19.1-1 38.1 1.1c1.1 0.1 1 1.9-0.1 1.7z"/>
			<path id="&lt;Path&gt;" class="s7" d="m363.7 223.2c-14.3-0.3-28.5 0-42.7-0.3-0.3 0-0.4-0.5 0-0.5 14.2-1 28.5-1 42.8-1 1.2 0 1 1.8-0.1 1.8z"/>
			<path id="&lt;Path&gt;" class="s7" d="m355.1 226.6q-11.1-0.3-22.2-0.5c-0.6-0.1-0.5-1 0.1-1q11.1 0 22.3-0.1c0.9 0 0.8 1.6-0.2 1.6z"/>
			<path id="&lt;Path&gt;" class="s7" d="m453.3 378.8c-1.2 0.7-2.6-0.8-1.4-1.7 21.5-16.1 41.7-33.2 59.4-53.6 16.4-19.1 32-39.7 39.9-63.9 0.2-0.5 0.9-0.4 0.9 0.1q-0.2 1.2-0.3 2.3c0 0.2-0.4 0.2-0.4 0 0.4 4.8-4 12.2-6 16.5-2.4 5.1-5.1 9.9-8.1 14.6-7 11.3-15.2 21.9-23.8 31.9-17.5 20.3-37.7 39.1-60.2 53.8z"/>
			<path id="&lt;Path&gt;" class="s7" d="m553.7 272c-0.9 0-1.9-0.3-2.8-0.4q-0.7-0.1-1.4-0.1c-0.4 0-0.8 0-1.2-0.1-0.4-0.2-0.6-0.8-0.2-1.1 0.6-0.5 2-0.3 2.8-0.3 1 0 2.2 0 3.1 0.3 0.9 0.4 0.6 1.6-0.3 1.7z"/>
			<path id="&lt;Path&gt;" class="s7" d="m555.3 273.8c-2.5 0.3-5.1 0.1-7.7 0.1-0.7 0-0.7-1.2 0-1.2 2.5-0.2 5.1-0.6 7.6-0.5 0.9 0.1 1 1.5 0.1 1.6z"/>
			<path id="&lt;Path&gt;" class="s7" d="m553 276.2c-2.5-0.2-5-0.2-7.5 0.1-0.7 0.1-0.8-0.9-0.2-1 2.6-0.4 5.2-0.5 7.8-0.6 1 0 0.9 1.6-0.1 1.5z"/>
			<path id="&lt;Path&gt;" class="s7" d="m552.7 279.5c-3-0.7-6.1-0.9-9.1-0.5-0.8 0.1-1-1.1-0.3-1.2 3.3-0.5 6.5-0.4 9.7 0.2 1.1 0.3 0.8 1.8-0.3 1.5z"/>
			<path id="&lt;Path&gt;" class="s7" d="m551.1 282.2c-3.1-0.2-6.1-0.4-9.2 0-0.8 0.1-1-1.1-0.2-1.2 3-0.4 6.4-0.7 9.5-0.2 0.9 0.2 0.8 1.4-0.1 1.4z"/>
			<path id="&lt;Path&gt;" class="s7" d="m549.3 284.9q-4 0.1-8 0.2c-0.6 0-0.7-1.1 0-1.1q4-0.2 7.9-0.4c1-0.1 1.1 1.3 0.1 1.3z"/>
			<path id="&lt;Path&gt;" class="s7" d="m546.8 288.7c-2.6-0.3-4.9-0.6-7.5-0.2-0.9 0.2-1.2-1.2-0.3-1.4 2.6-0.6 5.6-0.8 8.1 0 0.9 0.2 0.6 1.7-0.3 1.6z"/>
			<path id="&lt;Path&gt;" class="s7" d="m545.4 292.5c-3.1-0.2-6.1-0.2-9.1 0.5-0.9 0.2-1.2-1.2-0.3-1.4 3.1-0.7 6.4-1.1 9.5-0.6 0.9 0.2 0.8 1.5-0.1 1.5z"/>
			<path id="&lt;Path&gt;" class="s7" d="m542.5 296.7c-2.8-0.3-5.5-0.3-8.3 0.2-0.9 0.2-1.2-1.3-0.3-1.5 2.9-0.5 5.8-0.7 8.7-0.2 0.9 0.2 0.9 1.6-0.1 1.5z"/>
			<path id="&lt;Path&gt;" class="s7" d="m541.6 301.5q-5.7-0.1-11.4-0.2c-0.9-0.1-0.8-1.4 0.1-1.3q5.7 0.1 11.4 0.2c0.9 0 0.8 1.3-0.1 1.3z"/>
			<path id="&lt;Path&gt;" class="s7" d="m538.5 307c-3.8-0.6-7.5-1.1-11.4-0.8-0.9 0-1.2-1.3-0.3-1.4 4-0.3 8.1-0.2 12 0.7 0.8 0.2 0.5 1.6-0.3 1.5z"/>
			<path id="&lt;Path&gt;" class="s7" d="m536.7 311.2c-4.3 0.1-8.6-0.1-12.9 0.2-0.9 0-1.2-1.4-0.2-1.5 4.3-0.3 8.9-0.6 13.2-0.2 1 0.1 0.9 1.4-0.1 1.5z"/>
			<path id="&lt;Path&gt;" class="s7" d="m535.5 314.5c-2.3 0.2-4.7-0.1-7.1-0.1q-3.9-0.1-7.7 0c-0.9 0.1-0.8-1.3 0.1-1.3 4.7-0.2 10.1-0.7 14.8 0.3 0.5 0.1 0.4 1-0.1 1.1z"/>
			<path id="&lt;Path&gt;" class="s7" d="m531.8 318.9q-5.6-0.2-11.3-0.4c-0.9-0.1-0.8-1.5 0.1-1.5q5.7 0.2 11.3 0.4c1 0 0.9 1.5-0.1 1.5z"/>
			<path id="&lt;Path&gt;" class="s7" d="m529.5 323.5c-5.2 0.8-11 0.2-16.2 0.2-0.9 0.1-0.8-1.3 0.1-1.3 5.2-0.1 10.9-0.7 16.1 0 0.5 0.1 0.6 1 0 1.1z"/>
			<path id="&lt;Path&gt;" class="s7" d="m527.1 327.4q-0.6 0.2-1.2 0.3c-0.6 0.2-1-0.4-0.9-0.9-2-0.3-4.5 0.2-6.1 0.2q-2.1 0.1-4.2 0.1c-1 0-2.9 0.5-3.6-0.3 0.2 0.2 0 0.7-0.4 0.7q-0.1 0-0.1 0-0.4-0.1-0.5-0.5 0 0 0-0.1c-0.1-0.3 0.1-0.6 0.3-0.7 1.3-0.4 2.8-0.3 4.2-0.4q2.6-0.2 5.2-0.4c2.4-0.1 5.5-0.8 7.7 0.4 0.7 0.4 0.3 1.4-0.4 1.6z"/>
			<path id="&lt;Path&gt;" class="s7" d="m523.9 330.5q-7.8-0.3-15.6 0.5c-0.4 0.1-0.6-0.6-0.1-0.7q7.8-1 15.8-1.1c0.8 0 0.7 1.3-0.1 1.3z"/>
			<path id="&lt;Path&gt;" class="s7" d="m520.5 335.6q-0.3 0.1-0.6 0.3c-0.4 0.1-0.8 0-1-0.3q-8.3-0.5-16.7 0.2c-0.6 0.1-0.8-1-0.2-1.1q9.1-1 18.2-0.6c0.8 0 1 1.2 0.3 1.5z"/>
			<path id="&lt;Path&gt;" class="s7" d="m519.5 339.8c-6.8 0.1-13.6 0.2-20.3 0.7-0.8 0.1-1-1-0.2-1.1 6.8-0.8 13.7-1.3 20.6-1.2 1.1 0 0.9 1.6-0.1 1.6z"/>
			<path id="&lt;Path&gt;" class="s7" d="m514.9 343.6c-6.9 0.2-13.7 0.2-20.5 0.7-0.7 0.1-1-1.1-0.2-1.1 6.9-0.8 13.9-1.4 20.8-1.2 1.1 0 0.9 1.6-0.1 1.6z"/>
			<path id="&lt;Path&gt;" class="s7" d="m511.7 347.4c-7.8 0.6-15.6 0.6-23.5 0.5-0.7 0-0.6-1.1 0.1-1.1 7.8-0.1 15.6-0.6 23.4-0.9 0.9-0.1 0.9 1.5 0 1.5z"/>
			<path id="&lt;Path&gt;" class="s7" d="m508.4 353.4q-12.7-0.5-25.3-1c-0.8 0-0.7-1.3 0.1-1.3q12.6 0.3 25.3 0.6c1 0 0.9 1.7-0.1 1.7z"/>
			<path id="&lt;Path&gt;" class="s7" d="m503.4 357.9q-0.3 0-0.6 0-0.2 0-0.3-0.1c-7.6-0.4-15.3-0.4-22.9 0.1-0.7 0.1-0.9-0.9-0.2-1q12.1-1.1 24.2-0.6c1 0.1 0.8 1.6-0.2 1.6z"/>
			<path id="&lt;Path&gt;" class="s7" d="m500.1 362.6q-13.4 0.5-26.8-0.9c-1 0-0.9-1.5 0.1-1.4q13.3 1.2 26.7 0.6c1.2-0.1 1.3 1.6 0 1.7z"/>
			<path id="&lt;Path&gt;" class="s7" d="m495.7 366.1q-14-0.6-28-0.4c-0.7 0-0.6-1.1 0.1-1.1q14-0.5 28.1-0.1c1 0 0.8 1.6-0.2 1.6z"/>
			<path id="&lt;Path&gt;" class="s7" d="m490.2 370.9c-9.7-0.9-19.4-1.4-29.3-0.7-0.6 0-0.9-1.1-0.1-1.1 9.8-0.8 19.8-0.9 29.6 0.3 0.9 0.1 0.8 1.6-0.2 1.5z"/>
			<path id="&lt;Path&gt;" class="s7" d="m485.8 374.7q-15.5-0.4-30.9 0c-0.8 0-0.7-1.2 0.1-1.3q15.4-0.6 30.9-0.4c1.1 0 1 1.7-0.1 1.7z"/>
			<path id="&lt;Path&gt;" class="s7" d="m486.6 377.2c-12 0.7-24.1 0.8-36.2 1.1-1 0.1-0.8-1.5 0.2-1.5 11.9-0.4 23.9-1.2 35.9-1.2 0.9 0 1 1.5 0.1 1.6z"/>
			<path id="&lt;Path&gt;" class="s7" d="m483.1 379.6c-10.7 0.7-21.4 0.8-32.1 1.1-1 0.1-0.9-1.5 0.2-1.6 10.6-0.3 21.2-0.9 31.8-1 0.8 0 0.9 1.5 0.1 1.5z"/>
			<path id="&lt;Path&gt;" class="s7" d="m482.5 382.1c-9.8 1.2-19.9 1.1-29.7 1.1-1.1 0-1-1.7 0.1-1.7 9.9 0 19.7-0.7 29.6-1 0.9 0 0.9 1.5 0 1.6z"/>
			<path id="&lt;Path&gt;" class="s7" d="m476.5 385.7c-6.9 0.6-13.9 0.7-20.8 1-0.9 0-0.9-1.5-0.1-1.5 6.9-0.4 13.9-0.9 20.8-1 0.9 0 1 1.5 0.1 1.5z"/>
			<path id="&lt;Path&gt;" class="s7" d="m473.5 389.4c-6.8 0.3-13.6 0.4-20.4 0.8-1.1 0.1-1.4-1.5-0.3-1.6 6.9-0.4 13.9-0.9 20.8-0.8 1.1 0 0.9 1.5-0.1 1.6z"/>
			<path id="&lt;Path&gt;" class="s7" d="m469.2 393.1c-5 0.6-10.2 0.5-15.4 0.7-1 0-0.8-1.6 0.2-1.6 5-0.2 10.1-0.8 15.2-0.6 0.9 0 0.9 1.4 0 1.5z"/>
			<path id="&lt;Path&gt;" class="s7" d="m464.2 396.1q-3.5 0.5-7 1.1c-0.6 0.1-0.8-0.8-0.2-0.9q3.5-0.7 7-1.3c0.7-0.1 0.9 0.9 0.2 1.1z"/>
			<path id="&lt;Path&gt;" class="s7" d="m192.9 506.4c9.4-40.3 30.8-76.8 61.1-104.7-10.7-3.7-25-0.6-35.5 1.8-12.3 2.7-23.9 7.3-34.9 13.3-1.5 0.8-3.3-1.2-2.2-2.5 14.3-16.3 28.6-32.8 45.4-46.5 15.7-12.7 33.4-22.2 51.2-31.4-15-3.2-30.3-4.3-45.6-3.4-1.4 0.1-2.9-1.8-1.4-2.8 19.9-13.1 41.7-22.4 64.8-27.6q-12.4-5.6-24.8-11.1c-1.4-0.7-1.3-2.7 0.3-3.1q17.9-3.7 36.1-4.4-3.8-2.6-7.7-5.2c-1.7-1.2-0.5-3.4 1.2-3.4 10.3-0.4 19.9 3.3 26.3 11.6 0.6 0.8-0.4 2.1-1.3 1.4-5.4-4.7-11.7-8-18.6-9q3.4 2.3 6.7 4.7c1.6 1 0.6 3.2-1.1 3.2q-18.2 0.2-36.1 3.3 12.3 5.5 24.5 11.1c1.4 0.6 1.4 2.7-0.2 3-22.4 4.5-43.7 12.8-63 24.8q22.9-0.7 45.3 4.7c1.5 0.4 1.4 2.5 0.2 3.1-19 9.7-38 19.5-54.6 33-14.3 11.8-26.8 25.4-38.9 39.3 9.5-4.5 19.6-7.9 30-10.1 11.3-2.2 26.8-5.2 37.7 0 1.1 0.5 1.6 2 0.5 2.9-28.9 25.9-49.6 59.5-59.9 96.8 7.7-9.5 16-18.5 24.9-26.9 1.5-1.4 3.6 1.1 2.1 2.5-10.6 10.3-20.4 21.3-29.3 33.1-1.3 1.7-3.6 0.4-3.2-1.5z"/>
			<path id="&lt;Path&gt;" class="s7" d="m320 463.3c2-13.5 1.7-27.1-0.9-40.4-6.1 21.8-21.4 39.4-36.4 56.1-1.1 1.2-3.1-0.1-2.9-1.4q2.8-23.3-0.1-46.5c-12 6.5-22.3 15.3-32.5 24.3q-15.8 13.8-31.9 27.3c-1.2 1.1-2.8-0.8-1.6-1.9 10.9-10 22-20 33.2-29.7 10.4-9.2 21.1-17.9 33.5-24.3 1-0.5 2.3 0.2 2.5 1.3 2 14.8 2.4 29.6 1 44.4 14.9-16.8 29.7-35 33.4-57.8 0.4-2 3-2.2 3.6-0.2 3.7 14.1 4.8 28.4 3.5 42.8 7.3-9.3 14.5-18.6 20.9-28.6 7.8-12.1 11.1-24.1 12.5-38.3 0.2-2.2 3.2-2.2 3.7-0.2q3.6 15.3 3.5 31c11-11.9 18.3-26.5 21.2-42.6 0.4-1.9 2.6-2.3 3.6-0.7q2.4 4.1 4.8 8.1c1.1-4.5 1.4-9.2 0.7-13.9-0.5-3.2-1.6-5.5 0.1-8.4 1-1.6 3.4 0.1 2.5 1.7-1.7 2.8 1.2 9.9 1.2 13.5-0.1 4.2-0.9 8.2-2.2 12.2-0.6 1.6-2.6 1.4-3.4 0.2q-2.3-3.8-4.6-7.6c-3.9 16.6-12.3 31.5-24.6 43.6-1.2 1.2-3.1-0.1-3.1-1.5 0.4-8.2-0.1-16.2-1.3-24.1-1.6 8.8-4.3 17.1-9.2 25.2-7.9 13.3-17.8 25.4-27.4 37.5-1 1.3-3.6 0.8-3.3-1.1z"/>
			<path id="&lt;Path&gt;" class="s7" d="m362.7 375.7c-1.9 0.2-2.9-1-4-2.4-2.6-3.2-4.5-7.3-6.5-11.1-3 5.5-4.3 11.3-6.1 17.5-1.2 4.4-3.1 7.7-7.1 10.1-1 0.5-2.5-0.3-2.6-1.4q-0.6-6.3-1.2-12.5c-0.3-2.9 0.1-8.1-1.6-11-5.4 6.7-10.8 13.5-15.9 20.5-4.3 5.9-8 12.1-14.8 15.2-1.4 0.7-3.2-0.8-2.6-2.3q3.9-10 7.2-20.2c-11 4.7-21.8 9.8-32.7 14.8-2 1-3.4-1.7-2-3.1 13.6-14.3 28.7-26.7 45.2-37.5-8.1-2.7-16.4-4-24.9-3.9-2 0-2.4-3-0.7-3.7q18.8-8.1 38.8-12.7c-8.1-5.9-16.6-10.9-25.6-15.3-1.5-0.8-1.5-3 0.3-3.4 5.5-1.4 11.1-2.1 16.8-2 1.5 0 8.7 1.8 9.9 1.1 1.5-0.8 0.5-3.2 0.2-4.9 0-0.1 0-0.1 0.1 0q1.3 3 2.6 6.1c0.3 0.6-0.2 1.3-0.9 1.3-7.9-0.6-15.4-0.7-23.1 0.7 8.9 4.4 17.2 9.7 25.1 15.7 1.3 1 0.9 3.1-0.7 3.4q-17.3 3.8-33.8 10.2 10.7 1.1 20.8 5.1c1.7 0.7 1.6 2.7 0.2 3.6-14.4 9.1-27.7 19.5-40 31.3 8.8-4.1 17.7-8.1 26.7-11.9 1.5-0.6 3.1 0.8 2.6 2.3q-3 9.6-6.5 18.9c4.8-4.1 8.1-10.1 11.8-15q7-9.3 14.3-18.3c0.6-0.7 1.8-1.2 2.6-0.5 2.8 2.4 3.3 4.9 3.7 8.6 0.5 5.1 1 10.3 1.5 15.5 3.2-3.7 3.4-9.6 4.7-14.1 1.4-4.7 3.6-9 6.3-13.1 0.8-1.2 2.5-0.9 3.2 0.3 1.7 3 3.2 6.3 5.2 9.2q0.6 2.2 2.6 3.1 1.9 2.3 2.4-1.2c3.4-3.5 5.7-10.6 8.2-14.7 0.9-1.6 3.5-0.3 2.8 1.4-2.2 4.4-4.4 8.9-6.7 13.3-1.2 2.2-2.6 6.6-5.8 7z"/>
		</g>
		<g id="&lt;Group&gt;">
			<path id="&lt;Path&gt;" class="s8" d="m402.2 451.1c-0.6 0.9-2.3 0.7-2.2-0.6 0.7-6.5-0.1-15-4.9-20-5.5-5.8-11.8 1.9-13.4 7.5-1.8 6.4 3.1 11.3 7.6 15.3 4.2 3.8 8.7 7.6 10.8 13.1 3.6 9.4-1.7 20.4-12 21.9-12 1.6-21.1-9.9-21.5-21-0.1-4.6 6.9-5.5 8-1.1 1.4 6.4 3.5 13.2 10.8 14.7 7.9 1.6 12.4-5.9 8.9-12.8-5.5-10.7-22.1-13.6-21.5-27.9 0.4-10.5 11.6-24.7 23.2-18.9 10.6 5.2 11.9 20.8 6.2 29.8z"/>
			<path id="&lt;Path&gt;" class="s8" d="m423 450.8q-1.2 13.1-1.6 26.3c-0.2 5.3-8.6 5.2-8.2 0q1-13.4 2.8-26.7c1.1-8 1.3-17.9 5.1-25 1-2 3.3-1 3.9 0.5q0.1 0.2 0.1 0.5 0 0 0 0c1 7.8-1.3 16.6-2.1 24.4z"/>
			<path id="&lt;Path&gt;" class="s8" d="m437.3 428.5c-4.7 0.4-9.5 0.9-14.2 1.3-4.6 0.4-9.5 1.3-14.2 0.8-4.1-0.4-3.5-5.9-0.3-6.1 4.5-1.5 9.6-1.7 14.3-2.4 4.8-0.7 9.6-1.3 14.4-1.9 5.2-0.7 5.3 7.8 0 8.3z"/>
			<path id="&lt;Path&gt;" class="s8" d="m457.6 479.2c-0.6 2.7-4.8 2.6-5.4 0-2.1-9.2-1.4-19.3-1.5-28.7q-0.1-5-0.2-10.1-2 4.2-4.1 8.4c-4.4 8.8-8.3 17.8-12.4 26.8-0.7 1.3-2.8 0.6-2.8-0.8 0.3-9.6 3.8-18.2 7.6-26.9 4.1-9.3 8.3-18.5 11.6-28.1 1.5-4.3 8.1-3.7 8.1 1.1q0 14.8 0 29.6c0 9.4 1 19.5-0.9 28.7z"/>
			<path id="&lt;Path&gt;" class="s8" d="m454.7 456.6c-4.5 1.1-9 1.9-13.3 3.8-3.3 1.4-5.9-2.8-2.8-4.8 4.1-2.8 9.1-5.5 14.1-6.3 4.7-0.8 6.8 6.1 2 7.3z"/>
			<path id="&lt;Path&gt;" class="s8" d="m474.7 430.8c0 5-0.2 10-0.3 14.9-0.3 10.3-0.2 20.7-0.6 30.9-0.3 5.2-8 5.2-8 0-0.1-10.2 0.6-20.6 1.4-30.9 0.3-5.3 0.8-10.5 1.4-15.8 0.4-3.9 0.2-9 2.6-12.2h0.1c0.5-0.8 1.8-1.1 2.4 0 2.1 3.8 1.1 8.8 1 13.1z"/>
			<path id="&lt;Path&gt;" class="s9" d="m472 434c-1.1 0-1.1 1.6 0 1.6 1 0 1-1.6 0-1.6z"/>
			<path id="&lt;Path&gt;" class="s8" d="m487 473.2c-5-4.8-9.1-11.2-12.5-17.2-3-5.4-6.8-11-2.2-16.5 2.3-2.8 4.8-5.4 7.2-8.1 2.3-2.5 6.5-6.8 4.6-10.6-1.6-3.1-6.1-2.5-8.7-1.2-2.9 1.5-5 4-7.4 6.1q0-0.1 0-0.1c-1.8 1.1-5.4 0.6-3.8-2.8 3-6.3 9.3-11.8 16.6-11.6 7.5 0.2 12.7 6.4 11.6 13.8-0.6 4.1-2.9 7.5-5.5 10.7-1.7 2-8.4 8.1-8.2 10.2 0.2 1.4 2.5 4.4 3.2 5.8q1.6 2.7 3.3 5.3c2.5 3.9 5.6 7.4 8.3 11.2 2.9 3.9-3.3 8.2-6.5 5z"/>
			<path id="&lt;Path&gt;" class="s8" d="m518.1 419.6c0.1 8.1-1.6 16.6-2.2 24.7q-1 12.8-1.1 25.7c0 5.3-8.3 5.2-8.2 0q0.5-13.3 1.8-26.5c0.8-8.3 1.2-17.6 4-25.5 1.5-4.3 6.2-1.1 5.7 1.6z"/>
			<path id="&lt;Path&gt;" class="s8" d="m526.7 420.2c-7.7 0.4-15.9 0.6-23.7 0-3.4-0.3-4.7-5.9-0.8-6.5 8-1.2 16.5-1.6 24.5-1.8 5.4-0.1 5.3 8 0 8.3z"/>
			<path id="&lt;Path&gt;" class="s8" d="m573.5 450.9c-1.9 7.2-6.5 22.3-15.5 23.2-11.2 1.2-11.9-14.7-11.9-22.1 0.1-12.7 0.5-26.5 4.5-38.7 1-3.3 5.3-1.8 5.3 0.8q0 0 0 0c0 9.6-1.2 19.2-1.4 28.8-0.1 4.7-0.2 9.5 0.1 14.1 0.2 2 0.3 4.3 1.2 6.1q0.6 1.4 1.8 2.3-0.8-0.6 0.1-1.2c5.2-5.1 7.3-14.5 8.6-21.4 1.5-8.2 1.1-16.4 2.2-24.6 0.6-5.1 7.7-5.4 8.2 0 0.8 10.6-0.5 22.5-3.2 32.7z"/>
			<path id="&lt;Path&gt;" class="s8" d="m593.4 428.5q-0.2 6.6-0.3 13.1c-0.3 8.9 0.4 18.6-1.2 27.3-1 4.8-7.5 3.1-7.9-1.1-0.9-8.7 0.8-18.3 1.3-27.1 0.3-4.7 0.5-9.3 0.8-14 0.3-3.9 0.2-8.3 1.7-11.9 1.2-3 4.3-1.9 5 0q0 0 0 0 0 0.2 0.1 0.4 0 0 0 0c1.2 4.2 0.6 9 0.5 13.3z"/>
			<path id="&lt;Path&gt;" class="s8" d="m612.7 430.8c-4.4 6.5-12.3 8.7-19.7 9.6-5 0.6-6.1-7.8-1.2-8.7 5.6-1.1 19-3.9 14.8-12.6-1.5-3.1-5-4.9-8.4-4.3-4.2 0.9-6.5 4.6-8.3 8.1-0.8 1.7-3.1 0.7-3.3-0.9-0.7-6.1 4.2-11.9 9.8-13.8 6.1-2 12.4 0.3 16.1 5.4 3.9 5.2 3.9 11.9 0.2 17.2z"/>
		</g>
		<g id="&lt;Group&gt;">
			<path id="&lt;Path&gt;" class="s8" d="m197 97.2c-7.6 1.7-19.2 1.5-22.1-7.4-0.4-1.5 1.8-2.4 2.4-1.1 3.5 7.8 13.6 7.3 20.6 5.3 6.7-1.8 21-9.7 11.8-17.9-6.1-5.5-14.7-1.9-21.5-4.9-3.8-1.7-4.3-4.7-3-8.3 2-5.7 5.7-11.1 9.7-15.5 3-3.3 7.3-7.6 12.2-7.2 9.5 0.9 9.2 14 3.9 19.2-0.4 0.4-1-0.2-0.6-0.7 2.9-3.5 4.1-8.5 1.7-12.7-3.5-6.2-9.9-2.4-13.6 1.3-2.5 2.5-4.8 5.3-6.7 8.3-1.2 2.1-4.8 7-4.5 9.4 0.6 6.3 15.6 4.4 20.3 6.5 3.3 1.4 6.4 4 7.4 7.6 2.9 10.1-10.2 16.4-18 18.1z"/>
			<path id="&lt;Path&gt;" class="s8" d="m230.8 85.4c-3.8 4.4-9.2 5-10.5-1.6-1.8-9.1 3-20.2 6.2-28.4 0.3-1 1.8-0.6 1.5 0.4q-0.2 0.9-0.5 1.7-0.2 0.9-0.4 1.7 0 0.3-0.1 0.4c-1.2 3.8-2.4 7.5-3.3 11.4-0.6 2.9-1.2 6-1.3 9 0 0.9-0.2 3.6 0.5 4.3 1.5 1.4 4.9 0.5 6.1-0.7 1.2-1.1 2.9 0.6 1.8 1.8z"/>
			<path id="&lt;Path&gt;" class="s8" d="m229.3 68.8c-4.7-1.9-9.1 2.2-13.8 2-1.3 0-1.2-2.1 0-2 4.9-0.6 9.5-4.4 14.4-2.5 1.6 0.5 0.9 3.1-0.6 2.5z"/>
			<path id="&lt;Path&gt;" class="s8" d="m247 71.3c-5.4-2.9-7.9 3.5-9.1 9.1-0.4 2.1-0.8 4.1-1 6.1-0.2 1.3-2.4 1-2.3-0.3 0.1-2.1 0.6-5.7 1.7-9.2 0.4-2.8 0.5-5.5 0.3-8.3q0 0 0 0c0-0.7 1.1-1 1.3-0.2q0.4 1.7 0.5 3.4c2.3-4 5.6-6.2 10.1-2.6 1.1 0.9-0.3 2.6-1.5 2z"/>
			<path id="&lt;Compound Path&gt;" fill-rule="evenodd" class="s8" d="m266.6 82.2c-2.1 2.2-7.2 6.4-9.9 2.5-0.8-1-0.9-2.4-0.8-3.7-3.4 5-7.8 9.6-9.6 4.6-1.7-4.5 2.6-10.5 5.5-13.5 1.3-1.5 3.2-3.1 5.3-2.9 1.9 0.2 2.9 1.4 3.1 3q0.1 0.3 0.1 0.7 0 0.2 0 0.3 0 0 0 0 0 0 0 0c-0.3 2.1-0.9 4.1-1.3 6.2-0.3 1.9-0.9 4.4 2 3.7 1.3-0.4 2.7-2 3.6-2.9 1.3-1.2 3.2 0.7 2 2zm-12.1-3.5c1.2-1.9 2.5-4 3.2-6.2 0.3-0.8 1.2-1 1.8-0.8-0.7-4.1-5.6 0.1-6.7 1.4-1.2 1.4-2.2 3.1-3.1 4.8-0.5 1-3.3 7.9-0.4 7.3 2.1-0.4 4.3-4.9 5.2-6.5z"/>
			<path id="&lt;Path&gt;" class="s8" d="m281.1 80.2c-1.8 3.6-6.9 8.1-9.8 2.9-4.2-7.5 2-18.7 3.3-26.2 0.3-1.2 2-0.8 2 0.3h0.1q-0.2 2-0.7 3.9 0 0 0 0c0.3 0.1 0.4 0.4 0.3 0.6l-0.5 0.7q0 0.1-0.1 0.2c-0.7 2.8-1.5 5.5-2.2 8.4-0.5 2.6-1.6 7-0.3 9.6 1.9 4.1 4.3 0.4 5.6-1.8 0.8-1.5 3.1-0.1 2.3 1.4z"/>
			<path id="&lt;Path&gt;" class="s8" d="m279.6 70.2c-4.2-0.2-8.1 1.1-12.1 2-1 0.7-2.8-1.4-0.9-2 4.2-1.5 8.5-2.8 13-2.7 1.7 0 1.7 2.8 0 2.7z"/>
			<path id="&lt;Compound Path&gt;" fill-rule="evenodd" class="s8" d="m298.6 81c-4.1 2.2-13 5.9-14.8-1.3-0.3-1.3-0.3-2.8-0.1-4.5q0-0.1 0-0.2 0-0.1 0-0.2c0.6-3.5 2.2-7.2 4.4-8.9 1.3-1 3.3-1.3 4.5-0.1 1.3 1.2 1 3.2 0.4 4.7-1 2.8-3.8 6.2-6.9 6 0 1 0 2 0.4 2.9 1.9 4.5 8.4 0.3 11.1-0.9 1.4-0.6 2.3 1.8 1 2.5zm-12.2-6.1c1-0.4 2.3-1.2 2.4-1.3 1-1 1.8-2.3 2.2-3.6 0.3-0.9 0.8-2.4-0.4-2.6-1.2-0.2-2.2 2.1-2.6 2.9-0.6 1.2-1.2 2.9-1.6 4.6z"/>
			<path id="&lt;Compound Path&gt;" fill-rule="evenodd" class="s8" d="m309.3 98.8c-5.3 6.7-14 8.3-19.7 1.4-1.2-1.4 0.8-3.4 2-2 6.7 7.5 15.6 1.7 18.3-6.3 1.7-5.1 1.9-10.8 1.7-16.3-1.4 3.3-3.4 6.3-6.6 6.2-4-0.1-4-5.5-2.8-8.1 1.3-2.8 5.3-7.5 8.8-7.5q0.6 0 1 0.2c0.8-0.3 1.8 0.2 1.9 1.2 0.6 10 2.2 22.8-4.6 31.2zm1.7-30.7c-1.7 0.2-5.6 4.1-6.3 5.5-0.5 0.8-1.2 2.4-1 3.3 0.9 4.5 3.5 0.9 4.4-0.4 1.8-2.5 2.2-5.5 2.9-8.4z"/>
			<path id="&lt;Path&gt;" class="s8" d="m329.1 80.2c-1 5.3-1.6 10.7-3.9 15.7-0.7 1.5-3.2 0.4-2.6-1.1 1.9-4.7 2.7-9.6 3.6-14.6 0.3-1.7 0.9-3.5 1.4-5.3-1.4 2.4-3.3 4.3-5.9 3.7-5.2-1.1-3.2-9.3-2.6-12.8 0.1-1.1 1.7-0.7 1.7 0.2q0 0 0 0c0.2 2.3-1.3 11.9 3.1 9.1 2.8-1.9 3.6-7.3 5.5-10 0.9-1.2 2.5-0.7 2.7 0.7 0.5 4.9-2 9.6-3 14.4z"/>
		</g>
		<g id="&lt;Group&gt;">
			<path id="&lt;Path&gt;" class="s8" d="m71.5 198.1c-1.3 7.6-2.3 15-2.5 22.7-0.1 1.7-2.6 1.7-2.7 0-0.3-6.6 0.9-13.2 2.1-19.7 1.2-6.9 2-13.8 2.8-20.7 0-0.7 0.2-1.4 0.3-2.2 0.1-1.1 1.6-0.6 1.7 0.3 0.8 6.5-0.6 13.2-1.7 19.6z"/>
			<path id="&lt;Path&gt;" class="s8" d="m98 175.5c-3.4-3-13.3 1.3-17 2.6-4.7 1.7-9.4 3.4-14 5.3-4.3 1.8-13.9 7.7-18.4 4.7-0.5-0.4-0.4-1.1 0.2-1.3 1.8-0.7 3.8-0.6 5.6-1.2 2.4-0.6 4.6-1.6 6.8-2.5 4.1-1.7 8.1-3.4 12.2-5 6-2.3 11.9-4.5 18.2-5.8 3.2-0.6 5.8-1.1 8.4 1.2 1.3 1.2-0.7 3.2-2 2z"/>
			<path id="&lt;Compound Path&gt;" fill-rule="evenodd" class="s8" d="m100.6 213.8c-2.2 2.4-7.6 5.9-10.9 3.6-0.9-0.7-1.4-1.6-1.6-2.6-1.7 2.7-3.7 5.1-6.7 6-4.2 1.3-4.7-4.3-3.8-7.3 1.3-4.1 4.7-8.4 8.5-10.5 2.4-1.4 5.8-1.9 6.6 1.4 0.1 0.3-0.1 0.5-0.4 0.5 0.2 0.3 0.3 0.7 0.2 1.1-0.5 1.9-2.4 5.5-1.7 7.3 1.4 4 6.2 0 7.9-1.4 1.3-1.1 3.1 0.6 1.9 1.9zm-10.6-8.9c0.4-0.7 1.1-0.8 1.7-0.5-3.8-4.3-11.1 6.8-11.9 9.8-0.3 1-0.8 3.1 0.2 3.9 1 1.1 2.9-1.1 3.9-2.3 2.7-3.1 4.2-7.2 6.1-10.9z"/>
			<path id="&lt;Path&gt;" class="s8" d="m116 203.1c-6.7-0.8-9.1 7.2-8.8 12.5 0 1.5-2.3 1.5-2.4 0-0.1-1.4 0-2.9 0.2-4.4 0.2-2.2 0.4-4.4-0.1-6.4-0.4-0.7-0.6-1.7-0.9-2.5-0.2-0.9 1-1.3 1.4-0.6 0.7 1.1 1.2 2.3 1.4 3.6q0.1 0 0.2 0.1c1.8-3.2 4.8-5.4 9-4.9 1.7 0.2 1.7 2.9 0 2.6z"/>
			<path id="&lt;Compound Path&gt;" fill-rule="evenodd" class="s8" d="m124.1 234.9c-5.4 4.5-16 1.2-19.7-4-1.1-1.5 1.4-3 2.5-1.5 2.2 3.1 6.5 4.4 10.1 4.6 4.9 0.3 7-2.7 8.1-7 1.4-5.8-0.2-11.5-0.4-17.3-1.4 2.1-3.1 4-5 4.7-2.7 1-4.5-1.2-4.2-3.8 0.3-3.3 9.3-14.6 11.2-7.9q0 0.1 0 0.1c0.5 0.3 1 0.9 0.9 1.6-1.5 9 5 23.2-3.5 30.5zm1.2-31.5q0.2-0.5 0.6-0.6c-1.1-3-4.9 1.1-5.8 2.2-0.7 1-3.9 5.3-2.7 6.6 2.4 2.8 7.1-6.5 7.9-8.2z"/>
			<path id="&lt;Compound Path&gt;" fill-rule="evenodd" class="s8" d="m142 212.5c-4 0.8-12.2 4-12.7-2.9-0.3-3.9 4.4-11.1 8.9-8.8 0.3 0.2 0.6 0.6 0.6 1-0.4 3.2-3.4 6.5-6.8 6.8 0 0.6 0 1.2 0.2 1.6 1.4 2.8 7.1-0.4 9.4-0.4 1.5 0 1.9 2.3 0.4 2.7zm-9.4-5.8c1.7-0.7 3.2-2.2 3.7-3.9-1.5 0.2-2.9 2-3.7 3.9z"/>
			<path id="&lt;Path&gt;" class="s8" d="m155.9 208.8c-3.2 3.9-7.4 3.5-9.2-1.4-2.7-7.6 1.4-17.5 3.4-24.7 0.2-1 1.7-0.6 1.6 0.5-0.8 4.7-2 9.3-2.7 14-0.3 2.5-0.8 16 5 9.7 1.2-1.3 3 0.6 1.9 1.9z"/>
			<path id="&lt;Path&gt;" class="s8" d="m155 193.7c-4.6-0.4-8.6 1.8-13.1 2-0.8 0.4-1.8-1.3-0.5-1.7 4.4-1.2 9.2-3.6 13.9-2.7 1.4 0.2 1.1 2.6-0.3 2.4z"/>
		</g>
		<g id="&lt;Group&gt;">
			<path id="&lt;Path&gt;" class="s8" d="m82 339.3c-3.4 8.4-6.7 16.8-9 25.5-1.8 7.3-2.4 14.9-5.5 21.9-0.6 1.3-2.6 0.6-2.6-0.8-0.1-14.4-1.6-28.7-4.7-42.8-0.4-1.6 1.9-1.9 2.2-0.6q0 0 0 0c3.1 11.4 4.5 23.3 5.1 35.2 1.3-5.4 2-11.1 3.4-16.4 2.2-7.9 5.2-15.6 8.5-23.1 0.6-1.4 3.2-0.4 2.6 1.1z"/>
			<path id="&lt;Path&gt;" class="s8" d="m85.6 381.3c-0.3 1.8-3 1-2.7-0.7 1.3-6.3 1.2-12.6 1.6-19q0 0 0 0c0-1.3 2.2-1.5 2.3 0 0.5 6.5 0.1 13.4-1.2 19.7z"/>
			<path id="&lt;Path&gt;" class="s8" d="m87 354.9c-0.4 0.6-1.3 0.8-1.9 0.2-0.5-0.5-0.4-1.4 0.3-1.8 0.3-0.2 0.7-0.3 1.1-0.2 0.7 0.3 0.8 1.2 0.5 1.8z"/>
			<path id="&lt;Path&gt;" class="s8" d="m104.7 374c-0.8 4.3-8.6 7.5-10.4 2.3-0.6-1.6 1.6-2.2 2.5-1 1.3 1.7 5.2 0.1 5.2-2.1 0-3.2-5.3-2-7-2.9-4.3-2.3 1.7-11.1 5.9-10.2 0.3 0.1 0.7 0.5 0.6 0.8-0.1 0.9-0.2 1.8-0.6 2.6-0.2 0.6-1.4 0.6-1.3-0.2q0.1-0.7 0.1-1.4c-1.2 0.4-2 1.7-2.6 2.7-0.2 0.4-1.3 2.9-0.9 3.3 0.2 0.2 1.7 0 2 0 0.8 0.1 1.6 0.3 2.4 0.6 2.4 0.8 4.6 2.8 4.1 5.5z"/>
			<path id="&lt;Path&gt;" class="s8" d="m109.2 371.3c0.1 1.6-2.6 1.6-2.5 0 0-2.2 0.2-4.4 0.3-6.6 0.1-1.6-0.3-3.6 0.2-5.2 0.2-0.8 1.3-0.7 1.5 0 1 3.8 0.4 7.9 0.5 11.8z"/>
			<path id="&lt;Path&gt;" class="s8" d="m108.9 351.3q-0.1 0.1-0.3 0.1c-1.4 0.1-1.4-2.3 0-2.2q0.2 0 0.3 0c1.4 0.2 1.4 2 0 2.1z"/>
			<path id="&lt;Compound Path&gt;" fill-rule="evenodd" class="s8" d="m122 367.6c-1.1 3.3-4.7 7.4-8.4 4.8-2.8-1.9-2-6-0.8-8.5 1-2.1 3.3-5.6 6.1-4.7 1.3-0.4 2.5 0.4 3.2 1.9 0.9 2.1 0.6 4.4-0.1 6.5zm-2.7-5.5c-1 0.7-2-0.2-2-1.1q-0.3 0.2-0.5 0.4c-0.6 0.5-1 1.2-1.4 2-0.9 1.5-1.6 3.6-1.3 5.4 0.5 2.6 3 1.9 4.2 0.2 0.7-0.9 1.1-2 1.4-3.1 0.1-0.6 0.2-4.1-0.4-3.8z"/>
			<path id="&lt;Path&gt;" class="s8" d="m135.9 369.7c-1.4-3.3 0.1-7.3-1.2-10.7-3.4 2.7-5.5 7.6-6.3 11.9q-0.1 0.7-0.2 1.4c-0.3 1.5-2.7 1.1-2.6-0.4 0.1-1.5 0.4-3 0.9-4.6 0.3-2.8 0.2-5.7 0.3-8.5q-0.1-0.6 0-1.3 0 0 0-0.1 0-0.1 0-0.2c0.2-1 1.6-0.7 1.6 0.2q0.2 2.3 0.3 4.6c1.5-2.6 3.4-4.9 5.9-6.3 0.7-0.4 1.5-0.1 1.9 0.5 2.7 3.9 0.5 8.7 2.2 12.7 0.7 1.7-2.1 2.5-2.8 0.8z"/>
		</g>
		<g id="&lt;Group&gt;">
			<path id="&lt;Path&gt;" class="s8" d="m693.2 241.9c-1.2 9.2-2.5 18.3-2.3 27.6 0 1.9-2.9 1.9-2.9 0-0.1-8.3 0.9-16.4 2.1-24.6 1.2-8.6 1.5-17.3 2.7-25.9q0 0 0.1 0c0.3-0.8 1.6-1.1 1.8 0 1.1 7.4-0.4 15.5-1.5 22.9z"/>
			<path id="&lt;Path&gt;" class="s8" d="m708.7 214.9q-0.3 0.5-0.7 0.9c-0.8 1.1-2.4 0-2.3-1.1-2.9-0.5-6.8 1.8-9.2 2.8-4.5 1.8-8.9 3.8-13.4 5.2-1.5 0.4-1.9-1.8-0.6-2.2 5.5-1.9 10.7-4.5 16.1-6.8 3.1-1.3 6.7-2.8 9.9-1 0.8 0.5 0.8 1.5 0.2 2.2z"/>
			<path id="&lt;Path&gt;" class="s8" d="m705.7 262.5c-5-0.3-10.7 3.6-15 5.8-3.3 1.7-7.6 5-11.4 5.2-1 0-1.1-1.4-0.2-1.7 4.9-1.7 9.5-5.1 14.1-7.5 3-1.6 9.2-5.7 12.9-4.4 1.3 0.5 1.2 2.7-0.4 2.6z"/>
			<path id="&lt;Compound Path&gt;" fill-rule="evenodd" class="s8" d="m731.7 254.1c-4.3 3.8-7.5 0.6-8.1-4.1q-0.1-0.3-0.1-0.5c-1 2.5-2.2 4.9-3.7 7.1-2 3-5.9 6.4-8.5 2.1-2.9-4.7 1.1-11.8 4.9-14.7 2.2-1.6 4.7-1.9 6.5-0.9 0.9-3.5 1.5-7 2.1-10.4 0.3-1.8 2.9-1 2.7 0.7-0.5 3.5-1 6.9-1.2 10.4-0.1 2.1-0.2 4.4 0.2 6.5 0.5 2.6 1.2 3.1 3.6 1.7 1.3-0.7 2.8 1.1 1.6 2.1zm-9.8-8.5q-2.2-2.4-4.5 0-1.2 1-2.1 2.4c-1 1.5-1.9 3.3-2.3 5.1-0.4 2-0.1 5.9 3.1 4 1-0.6 1.8-2.5 2.4-3.4 1.5-2.6 2.6-5.3 3.4-8.1z"/>
			<path id="&lt;Compound Path&gt;" fill-rule="evenodd" class="s8" d="m745 248.8c-2.6 2.8-8.1 9-11.7 3.7-2.3-3.5-0.5-9.7 2.6-12.3 2.6-2 5.2-0.8 4.8 2.5-0.5 3.2-2.8 6-5.8 6.9q0.2 0.8 0.6 1.4c2.2 2.8 6.1-2.7 7.6-4.1 1.3-1.1 3.1 0.6 1.9 1.9zm-10.2-0.6c2-0.8 3.3-2.6 3.8-4.7 0.1-0.4 0.5-2 0-2.3-0.3-0.2-1.6 1.2-1.8 1.5-1 1.2-1.9 3.5-2 5.5z"/>
			<path id="&lt;Compound Path&gt;" fill-rule="evenodd" class="s8" d="m761.4 247.5c-2 1.8-5.6 5.9-8.5 3.2-0.8-0.7-1.2-1.7-1.3-2.7-0.5 1.1-1 2.1-1.8 3-1.4 1.8-4.5 3.1-6.1 0.7-2.6-3.9 4.3-13.6 8.8-12.9 0.1 0 0.2 0.2 0.3 0.4q0 0 0 0.1c0.7-0.2 1.6 0.3 1.7 1.3 0.2 2.2-0.5 4.5-0.1 6.7 0.6 3.2 3.9-1 5.3-1.9 1.3-0.9 2.8 1.1 1.7 2.1zm-9.5-7.6q0.1-0.1 0.1-0.1c-0.1-0.4-0.4 0-1 0.4-0.5 0.3-1 0.7-1.4 1.1-0.8 0.9-1.6 1.9-2.2 2.9-0.6 1-3.3 5.5-1.7 6.4 2.7 1.5 5.3-9.2 6.2-10.7z"/>
			<path id="&lt;Path&gt;" class="s8" d="m762.7 250.1c-1.6-1-0.1-3.4 1.4-2.5q2.1 0.4 2.8-1.4 0.3-1-0.7-1.4c-0.6-0.6-1.4-1-2.1-1.5-0.8-0.5-1.5-0.9-1.8-1.8-1-2.8 1.7-6.1 4-7.2 0.6-0.3 1.3 0 1.3 0.7q0 0.6-0.1 1.2c-0.1 0.8-1 1-1.4 0.4-1.1 1.2-2.2 3-1.5 4.2 0.2 0.4 1.9 1 2.3 1.3 1.2 0.8 2.7 1.7 2.9 3.3 0.5 3.5-4.1 6.5-7.1 4.7z"/>
		</g>
		<g id="&lt;Group&gt;">
			<path id="&lt;Path&gt;" class="s8" d="m599.6 565.4c0.4 1.8-2.4 2.6-2.8 0.8-2.1-10.7 1.2-21.4 1.2-32-2 7.3-4.7 14.4-7.3 21.5-0.5 1.3-2.4 1.4-2.8 0-2.3-8.4-1.7-17.1-1.7-25.7-1.3 4.8-2.4 9.7-3.6 14.5-1.1 4.7-2.1 9.4-2.9 14.2-0.3 1.8-0.6 3.7-0.8 5.6 0 0.8 0.2 3.1-0.1 3 1.5 0.5 0.9 2.8-0.6 2.3-4.8-1.5-0.1-17.2 0.5-20.2 2-9.3 4-19 7.2-28 0.6-1.6 2.6-1.2 2.8 0.4 1 9.3-0.4 18.9 1 28.2 3-8.2 5.8-16.4 7.5-25 0.3-1.4 2.5-1.4 2.8 0 2.9 13.5-3.1 26.9-0.4 40.4z"/>
			<path id="&lt;Compound Path&gt;" fill-rule="evenodd" class="s8" d="m620.7 559.2c-1.2 2.6-3.8 4.3-5.8 1.3-0.9-1.3-1.4-2.8-1.8-4.3-0.8 2-1.8 3.8-3.4 5.1-1.9 1.6-4.6 1.2-5.3-1.4-0.8-2.9 1.2-6.6 2.7-8.9 1.4-2.2 3.5-5.1 6.4-5 0.3 0.1 0.6 0.3 0.7 0.6 0.3 1.3 0.2 2.6 0.1 4q0.3 0.2 0.4 0.6c0.6 1.6 0.9 3.3 1.4 4.9 0.3 0.8 0.6 2.1 1.2 2.8q0.1 0.2 0.2 0.3c0.3-0.3 0.7-1.3 0.8-1.5 0.9-1.6 3.2-0.2 2.4 1.5zm-8.7-8c0.2-0.7 0.8-1 1.4-1 0-1.5 0.2-3.2-1.5-1.9-0.9 0.6-1.6 1.6-2.3 2.5-1.3 1.9-2.4 4.1-2.8 6.4-0.1 0.5-0.4 2.1 0.3 2.5 0.8 0.4 2.1-1.9 2.3-2.4 1.1-1.9 1.9-4 2.6-6.1z"/>
			<path id="&lt;Path&gt;" class="s8" d="m631.5 547.5c-4.7 0.6-4.6 8.5-5.4 12-0.3 1.4-2.6 1.1-2.5-0.3 0.5-4.4 0-9 0.8-13.3q0 0.1 0 0.1c0.2-0.8 1.5-0.9 1.6-0.1q0.2 1.1 0.3 2.3c1.1-1.8 2.7-3.1 5.2-3.5 1.8-0.2 1.8 2.6 0 2.8z"/>
			<path id="&lt;Path&gt;" class="s8" d="m637.6 560.1c0 1.8-2.8 1.8-2.8 0-0.1-9.6 1.6-19.6 2.9-29.2q0.1 0 0.1 0c0.3-0.8 1.5-0.8 1.6 0.2 0.6 9.6-1.8 19.4-1.8 29z"/>
			<path id="&lt;Path&gt;" class="s8" d="m643.5 556.2c-2.4-0.5-4.7-1.4-6.9-2.6-0.8-0.5-0.8-1.5-0.3-2.2 2.4-2.5 3.6-6.2 6.3-8.5 0.9-0.8 1.8 0.5 1.3 1.2-1.4 2.6-2.9 5.2-4.6 7.7 1.6 0.7 3.2 1.3 4.9 1.6 1.9 0.3 1.1 3.1-0.7 2.8z"/>
			<path id="&lt;Compound Path&gt;" fill-rule="evenodd" class="s8" d="m659.5 550.1c-2.4 2.8-8.7 8.2-11.5 2.9-0.4-0.9-0.5-1.9-0.4-2.9q-0.3-0.2-0.6-0.5c-0.5-0.6 0.2-1.4 0.9-1.1q0 0 0 0.1c1-3.1 4-5.9 7-5.3 0.6 0.2 0.9 0.9 0.8 1.5-0.4 2.1-3 5.3-5.6 5.8 0 0.8 0.2 1.5 0.9 1.8 2 0.9 5.4-3 6.5-4.3 1.3-1.3 3.2 0.7 2 2zm-8.6-2c0.8-0.5 1.5-1.3 2-2.2-0.7 0.5-1.4 1.3-2 2.2z"/>
			<path id="&lt;Path&gt;" class="s8" d="m668.9 554.6c-3.2 2.4-5.7-0.7-6.7-3.7-1.5-4.9 0.7-10.1 1.7-15.1 0.1-1 0.3-1.9 0.3-3 0.1-1.2 1.7-1.1 1.8 0 0.4 3.3-0.5 6.4-1.1 9.6-0.1 0.5-1.4 12.6 2.6 9.9 1.5-1 2.8 1.3 1.4 2.3z"/>
			<path id="&lt;Path&gt;" class="s8" d="m668.2 542c-3-1.1-6.3 0.8-9.1 1.6-1.1 0.3-1.4-1.2-0.5-1.6 3.3-1.2 6.6-3.3 10.3-2.4 1.5 0.4 0.8 2.9-0.7 2.4z"/>
			<g id="&lt;Group&gt;">
				<path id="&lt;Path&gt;" class="s8" d="m676.1 549.4c-0.7 0.9-1.9 0.1-2-0.8q0-0.1 0-0.2 0 0 0-0.1 0 0 0 0.1 0-0.1 0-0.3-0.1-0.2 0-0.4 0-0.1 0-0.2 0-0.9-0.1-1.7c-0.1-1.4-0.3-2.6-0.8-3.8-0.4-0.8 0.9-1.3 1.3-0.6 0.8 1.5 1.2 3.1 1.5 4.8 0.1 0.9 0.8 2.4 0.1 3.2z"/>
				<path id="&lt;Path&gt;" class="s9" d="m674.1 548.4q0 0 0 0 0 0.1 0 0z"/>
			</g>
			<path id="&lt;Path&gt;" class="s8" d="m675.8 533.6q-0.1 0-0.3 0c-0.8 0.1-1.5-0.3-1.5-1.1 0-0.9 0.7-1.3 1.5-1.2q0.2 0 0.3 0c1.2 0.2 1.2 2.1 0 2.3z"/>
			<path id="&lt;Path&gt;" class="s8" d="m690.2 549c-2.4-1.6-1.7-4.6-2.6-7-2.4 1.4-4.1 4.5-5.1 6.9-0.5 1.3-2.7 1.3-2.6-0.3 0.2-2.3-0.1-4.5 0.1-6.7q0-0.1 0-0.1c0-0.5 0-0.7 0.1-1.2 0.2-0.9 1.6-0.7 1.6 0.2q0.1 1.6 0.3 3.2c1.4-2.3 3.3-4.3 5.9-5.2 0.6-0.2 1.2 0.2 1.6 0.7 0.8 1.1 1.1 2.4 1.3 3.7 0.2 1.2 0.1 2.7 1 3.6 1.2 1.1-0.3 3.1-1.6 2.2z"/>
			<path id="&lt;Compound Path&gt;" fill-rule="evenodd" class="s8" d="m698.2 565.9c-4.6 3.7-13.1 4.8-15.1-2.1-0.5-1.8 2.3-2.5 2.8-0.7 1.3 4.2 6.6 3.1 9.4 1.3 2.8-1.8 4.2-4.8 4.8-7.9 0.8-4.1 0.9-8.3 0.8-12.5-1.6 3.1-3.8 5.6-6.5 3.2-3.9-3.3 3-10.3 6.3-11.1q0.1-0.1 0.3 0c0.7-0.6 2 0 2.1 1.1 0.9 8.6 2.6 22.3-4.9 28.7zm2-27.2q-0.2-0.1-0.2-0.4c0.5-1.5-3 2.7-3 2.7-0.7 1-3.4 6.5 1 3.3 1.2-0.8 1.8-3.5 2.2-5.6zm-3.2 2.3q0 0 0 0z"/>
		</g>
		<g id="&lt;Group&gt;">
			<path id="&lt;Path&gt;" class="s8" d="m703.6 415c-7 2.2-13.9 4.5-20.9 6.8-0.9 0.4-1.8-0.5-1.9-1.4-0.3-8.9 2-18.2 3.4-27 0.9-4.9 1.6-9.9 2.5-14.8 0.7-3.4 2.7-7.5 1.7-10.9-0.3-1 1.2-1.7 1.6-0.8 1.3 2.4 0.7 5.1 0.1 7.6-0.9 4.4-1.6 8.7-2.2 13.1-1.6 10-4.3 20.6-4.2 30.8 6.3-2.3 12.6-4.9 19.2-5.9 1.6-0.2 2.3 2 0.7 2.5z"/>
			<path id="&lt;Compound Path&gt;" fill-rule="evenodd" class="s8" d="m714.4 413.9c-3.7-1.5-3.2-6.1-2-9.1 1-2.7 3.8-7.4 7.3-7.1 0.3 0 0.6 0.3 0.6 0.6q0 0.3 0 0.5c4.4 4.1 1.3 18.1-5.9 15.1zm3.8-13.2q-0.4-0.3-0.4-0.7-0.6 0.4-1 1c-1 1.1-1.6 2.5-2.2 3.8-0.7 1.7-1.9 5.6 0.4 6.7 4.3 2.1 5.9-8.5 3.2-10.8z"/>
			<path id="&lt;Path&gt;" class="s8" d="m735.2 408.3c-1.8 2-4.8 5.1-7.8 3.5-2.5-1.3-2.3-4.8-1.7-7.1 0.8-2.8 5.8-10.4 8.3-5.2 0.2 0.6-0.6 1-0.8 0.5-1.5-3.1-4.8 3.4-5.2 4.8-0.3 1.2-1 4.7 1 4.9 1.6 0.1 3.3-2.3 4.3-3.2 1.3-1.1 3 0.6 1.9 1.8z"/>
			<path id="&lt;Path&gt;" class="s8" d="m754.1 400.4c-1.4 3.1-4.3 8.1-8 8.7-3.2 0.5-3.8-1.8-3.7-4.3-2.6 2.8-6.1 5.8-7.5 2.2-2.4-6.3 6.6-14.8 11.8-9.1 0.7 0.7-0.3 1.6-0.9 1-3.3-2.8-7 0.1-8.3 3.4-0.1 0.5-0.9 3.4-0.3 3.8-0.2-0.1 0.9-0.8 0.9-0.8 2-1.2 3.6-3.8 5.2-5.7 0.7-0.8 2.4-0.1 2.3 1-0.1 1.1-0.5 2.3-0.5 3.4 0 0.8-0.2 2.1 1.1 2.1 0.4 0 1.2-0.9 1.5-1.2 1.7-1.6 3-3.8 4-5.8 0.9-1.6 3.1-0.2 2.4 1.3z"/>
			<path id="&lt;Path&gt;" class="s8" d="m766.7 405.3c-2.7 4.5-7 2.3-8.7-2-2.8-7 2-16.4 4.1-23.1 0.3-1.1 2.1-0.6 1.7 0.5-0.9 4-2.3 7.9-3.2 11.8-0.5 2.3-0.9 4.6-0.8 6.9 0.1 1.2 1.8 8.5 4.7 4.6 1-1.2 3.1-0.1 2.2 1.3z"/>
			<path id="&lt;Path&gt;" class="s8" d="m765 393.5c-3.5-0.7-7.1 2-10.7 1.8-0.3-0.1-0.6-0.2-0.6-0.6 0 0.3-0.2-0.2-0.2-0.3 0.1-0.3 0.3-0.4 0.5-0.4q0-0.1 0.2-0.2c0.4-0.1 0.9-0.2 1.3-0.3q1.7-0.5 3.4-1c2.1-0.7 4.5-1.6 6.7-1.3 1.5 0.2 0.9 2.6-0.6 2.3z"/>
			<path id="&lt;Path&gt;" class="s8" d="m772.7 399.4c0.1 1-1.6 1.4-2 0.5-0.4-0.9-0.3-2-0.4-3 0-0.9-0.3-2-0.2-2.9 0-0.3 0.4-0.7 0.8-0.4 0.7 0.5 0.8 1.8 1 2.6 0.3 1 0.6 2.1 0.8 3.2z"/>
			<path id="&lt;Path&gt;" class="s8" d="m771.2 388.8c-0.7 0.3-1.7-0.1-1.4-1.1 0.1-0.6 0.4-1.2 1.1-1.3q0.4-0.1 0.7 0.2v-0.1q0 0.1 0 0.1 0 0 0.1 0 0.1 0.1 0.2 0.2c0.1 0 0.4 0.4 0.2 0.1 0.6 0.7 0.1 2-0.9 1.9z"/>
			<path id="&lt;Compound Path&gt;" fill-rule="evenodd" class="s8" d="m784.7 394.8c0.1 2.9-2.4 5.3-5.2 5.5-2.4 0.2-3.2-2.1-2.6-4.1 0.3-1.3 1.1-2.8 2.1-3.9q0.2-0.3 0.6-0.5 0 0 0.1 0 0.4-0.4 1-0.6c0.2-0.1 0.4 0 0.6 0.1 1.9 0 3.4 1.3 3.4 3.5zm-3.7-0.6c-0.5 0.3-0.9 0.3-1.3 0.1q-0.3 0.6-0.5 1.2c-0.2 0.5-0.7 2.1-0.3 2.4 0.4 0.3 1.4-0.3 1.7-0.5 0.7-0.4 1.2-0.9 1.4-1.7 0.3-0.9 0.1-2.1-1-1.5z"/>
			<path id="&lt;Path&gt;" class="s8" d="m799.6 401.9c-1.6-0.5-2.5-1.6-2.9-3.3-0.3-1.6 0.3-3.8-0.4-5.3-1-2.2-3.5 1.4-4.1 2.5-1.1 1.8-2 3.8-2.5 5.8-0.3 1.3-2.3 0.8-2.1-0.6 0.5-2.1 0.5-4.3 0.5-6.5 0-1-0.5-3.2 0.2-4.1 0.5-0.7 1.9-0.3 1.5 0.7-0.3 0.7 0.1 2.2 0.1 3q0 0.3 0 0.6c1.4-2.4 3.3-4.4 5.6-4.5 5.6-0.2 1.3 8.2 4.8 9.3 1.5 0.5 0.9 2.9-0.7 2.4z"/>
		</g>
		<g id="&lt;Group&gt;">
			<path id="&lt;Path&gt;" class="s2" d="m300.4 160.4c-10.1-5.2-20.1-11-27.3-20.1-3.5-4.5-6.1-9.5-8.6-14.7-2-4.4-4.7-9.3-5-14.2 0-0.7 0.9-0.8 1.1-0.2 2.8 10.1 8.4 21.3 15.3 29.2 7 8 16.4 13.1 25.8 17.9 1.4 0.7 0.1 2.8-1.3 2.1z"/>
			<path id="&lt;Path&gt;" class="s2" d="m269.7 115c-4.2-1.7-8.5-3.2-12.7-5.1-0.7 1.7-0.9 3.6-1.1 5.4-0.1 1.2 0.1 2.7-0.6 3.7-0.1 0.1-0.3 0.2-0.4 0-1-1.2-0.7-3.4-0.6-4.9 0.1-2.1 0.4-4.2 1.3-6.2 0.2-0.4 0.8-0.6 1.2-0.5 4.6 1.8 9.3 3.4 13.9 5.4 1.2 0.6 0.3 2.7-1 2.2z"/>
		</g>
		<g id="&lt;Group&gt;">
			<path id="&lt;Path&gt;" class="s2" d="m242.2 276.5c-19.1-3.3-38.4-7.5-56.8-13.8-13.6-4.7-30.4-10.6-38.9-23-0.6-0.7 0.6-1.6 1.2-0.9q1 1 2 1.9 1 0.8 2 1.4c0.2 0.1 0.2 0.3 0.1 0.4 11.1 9.5 24.7 14.7 38.6 19 17.2 5.4 34.9 8.5 52.5 12.7 1.5 0.4 0.8 2.6-0.7 2.3z"/>
			<path id="&lt;Path&gt;" class="s2" d="m162.6 241.7c-5.7-0.5-11.3-2.2-17-2.2 0.7 2.5 1.5 5 2 7.6 0.1 0 0.3 0 0.3 0.3q-0.1 0.5-0.1 1 0.2 1.4 0.2 2.9c-0.1 0.9-1.6 1.3-1.8 0.2-1-4.4-2.2-8.6-3.6-12.9-0.3-0.9 0.5-1.6 1.3-1.7 6.2-0.7 12.5 1.3 18.7 2.1 1.7 0.2 1.7 2.9 0 2.7z"/>
		</g>
		<g id="&lt;Group&gt;">
			<path id="&lt;Path&gt;" class="s2" d="m161.1 436.6c-24.7 1.2-51.3-11.9-62.9-34.2-0.6-1.2 1.2-2.2 1.7-1 13 21.8 36.4 32.3 61.2 32.7 1.6 0.1 1.5 2.4 0 2.5z"/>
			<path id="&lt;Path&gt;" class="s2" d="m118.1 406.3c-6.4-0.5-12.8-2.7-18.9-4.6-0.2 1.6-0.5 3.3-0.6 4.9-0.1 1.4 0.2 3-0.2 4.4 0 0.1-0.2 0.2-0.3 0.2-3.5 0-1.4-9.3-1.4-11.3 0.1-0.9 0.9-1.5 1.7-1.3 6.8 1.5 13.2 3.9 20 4.9 1.6 0.3 1.2 2.9-0.3 2.8z"/>
		</g>
		<g id="&lt;Group&gt;">
			<path id="&lt;Path&gt;" class="s2" d="m555.2 552.7c-15.2-2.4-29.6-9.9-41.3-19.8-5.9-5-11.2-10.7-15.8-17-4.4-5.9-9.1-12.6-11.2-19.7-0.2-0.7 0.9-1.1 1.2-0.5q1 1.3 2 2.6c0 0.1 0 0.2-0.1 0.1q-0.1-0.1-0.2-0.1c3.4 5.2 6.3 10.8 10 15.8 4.6 6 9.8 11.5 15.6 16.4 11.8 10.1 25.5 16.1 40.5 19.6 1.7 0.4 1 2.8-0.7 2.6z"/>
			<path id="&lt;Path&gt;" class="s2" d="m560.1 553.2c-4 0-8.1 0-12.2 0.3-3.9 0.2-8 1.6-11.8 1.2-0.3 0-0.6-0.4-0.3-0.6 2.7-2.1 6.3-2.4 9.6-2.8 4.2-0.6 8.3-0.8 12.4-0.8-2.7-4.8-6.3-8.8-9.7-13.2-1.1-1.3 0.7-3.3 1.9-1.9 4.3 4.8 8.7 9.8 11.3 15.7 0.5 1 0 2.2-1.2 2.1z"/>
		</g>
		<g id="&lt;Group&gt;">
			<path id="&lt;Path&gt;" class="s2" d="m654.2 381.7c-10.5-2.9-20.2-8-29.6-13.5-9.5-5.6-19.1-11.2-28.3-17.4-8.6-5.7-16.8-12.1-24.4-19.3-6.2-6-13.7-13.6-15.6-22.3-0.2-0.8 1-1.3 1.3-0.6 9.7 17.8 25.6 30.5 42.4 41.4 17.2 11.1 35.3 22.9 54.9 29.1 1.7 0.5 1 3-0.7 2.6z"/>
			<path id="&lt;Path&gt;" class="s2" d="m655.9 380.3c0 0.6-0.4 1.3-1 1.4-3 0.5-5.8 1.8-8.8 2.4q-1.7 0.3-3.4 0.5c-0.6 0.1-1.7-0.1-2.2 0.1q-0.1 0-0.1 0c-0.4 0-0.4-0.5-0.1-0.6 1.7-0.5 3.5-1.4 5.3-1.9 2.6-0.8 4.9-2.3 7.4-3-0.4-3.2-2.8-5.7-4.1-8.6-0.8-1.7 1.3-2.9 2.3-1.4 2.3 3.2 4.8 7.1 4.7 11.1z"/>
		</g>
		<g id="&lt;Group&gt;">
			<path id="&lt;Path&gt;" class="s2" d="m660.4 253.1c-13.8 3.9-28.1 5.9-42.4 5.8-14.6 0-28.2-3.2-42.6-5.3-0.9-0.2-0.6-1.5 0.2-1.5q0 0 0 0c6.6-0.2 13 1.6 19.4 2.7 7.3 1.2 14.7 1.5 22.1 1.5 14.4 0.1 28.6-2.1 42.6-5.7 1.6-0.4 2.3 2.1 0.7 2.5z"/>
			<path id="&lt;Path&gt;" class="s2" d="m662.7 252.8c-1.9 4.8-5.4 8.6-9.1 12.1-1.4 1.3-3.4-0.8-2.1-2.1 3.1-2.8 5.9-5.8 7.9-9.5-4.7-1.3-9.5-3.4-13.5-5.9-0.7-0.4-0.1-1.4 0.5-1.2 5.2 1.3 10 3.9 15.4 4.9 0.7 0.1 1.2 1 0.9 1.7z"/>
		</g>
	</g>
</svg>