<?xml version="1.0" encoding="UTF-8"?>
<svg xmlns="http://www.w3.org/2000/svg" width="109" height="157" viewBox="0 0 109 157" fill="none">
  <path d="M14.1094 50.8876C14.3989 50.2449 12.7561 43.6567 12.07 46.1776C11.6043 47.8833 11.5413 50.9486 12.2525 53.1359C12.498 53.8817 13.5807 52.0558 14.1094 50.8876Z" fill="#EC4176"></path>
  <path d="M12.0128 45.981C11.9813 46.0326 11.9436 46.1245 11.8996 46.2819C11.459 47.9165 11.396 50.8257 12.0443 52.9387C12.3338 52.6636 12.894 51.7855 13.3472 50.7879C13.5108 50.1855 12.5667 46.499 12.0128 45.981ZM11.9562 53.6461C11.8366 53.6398 11.5911 53.5914 11.4841 53.2553C10.7603 51.0221 10.8169 47.8718 11.2953 46.1169C11.3771 45.8117 11.5282 45.3975 11.8807 45.3226C12.038 45.2911 12.2772 45.3176 12.529 45.6298C13.3032 46.5897 14.2032 50.4172 13.92 51.0384C13.7249 51.4771 12.7115 53.6461 11.9562 53.6461Z" fill="#EC4176"></path>
  <path d="M63.4895 156.329C52.0592 156.329 40.6226 153.817 31.9239 148.792C23.4267 143.888 18.75 137.35 18.75 130.383V118.875H19.3794V130.383C19.3794 137.116 23.9491 143.461 32.2386 148.246C49.4723 158.197 77.5132 158.197 94.7468 148.246C103.036 143.461 107.606 137.116 107.606 130.383C107.606 123.896 107.499 116.488 107.499 116.414L108.128 116.406C108.128 116.48 108.235 123.891 108.235 130.383C108.235 137.35 103.553 143.888 95.0616 148.792C86.3566 153.817 74.9262 156.329 63.4895 156.329Z" fill="#e3e3e3"></path>
  <path d="M63.4408 143.841C51.9601 143.841 40.4857 141.319 31.743 136.273C23.466 131.494 18.8523 125.117 18.7516 118.317C18.6509 111.301 23.2583 104.553 31.7367 99.3164L32.0703 99.8514C23.787 104.967 19.2803 111.522 19.381 118.307C19.4818 124.877 23.9822 131.064 32.0577 135.728C49.3669 145.718 77.5211 145.718 94.824 135.728C102.742 131.156 107.312 125.098 107.702 118.671C108.055 112.804 104.832 107.012 98.632 102.362L99.0097 101.859C105.386 106.64 108.697 112.624 108.331 118.709C107.929 125.354 103.246 131.591 95.1387 136.273C86.396 141.319 74.9216 143.841 63.4408 143.841Z" fill="#e3e3e3"></path>
  <path d="M20.0499 31.3988C19.9933 31.3988 19.9303 31.3906 19.8737 31.3736C19.6786 31.3164 19.5275 31.1697 19.4582 30.9783C19.4205 30.8795 15.9839 20.973 16.4496 9.57031L17.7022 9.62193C17.3308 18.8864 19.5779 27.1281 20.3773 29.7195L23.7762 27.0677L24.5504 28.0603L20.4402 31.2654C20.3269 31.3528 20.1884 31.3988 20.0499 31.3988Z" fill="#e3e3e3"></path>
  <path d="M23.3716 22.8628C20.9798 16.7152 16.5549 9.92876 16.5109 9.86079C16.3724 9.65433 16.3725 9.38747 16.5046 9.17913C16.6368 8.97079 16.8823 8.85874 17.1215 8.89273C20.3756 9.34718 24.3535 11.3941 28.9483 14.9755L28.1741 15.9687C24.4731 13.0853 21.1183 11.1971 18.3614 10.4367C19.7713 12.7234 22.7296 17.7374 24.5423 22.4071L23.3716 22.8628Z" fill="#e3e3e3"></path>
  <path d="M15.6897 101.275C13.3923 101.275 10.9752 100.88 8.87926 100.202C3.67391 98.5211 0.489021 95.4149 0.149131 91.6805C-0.939775 79.8152 4.26559 75.8819 5.03978 75.3645C8.49533 71.4413 11.0382 54.6514 11.2333 53.3031C11.0445 51.7994 9.23173 35.6962 18.7864 27.3438L19.611 28.2917C10.3144 36.4213 12.4733 53.0545 12.4922 53.2219C12.5047 53.2799 12.5047 53.339 12.4922 53.3963C12.3852 54.1554 9.78566 72.0393 5.91469 76.2734C5.87693 76.3181 5.82659 76.3565 5.77624 76.388C5.72588 76.4201 0.331659 79.8781 1.40168 91.5659C1.8171 96.1224 7.04133 98.2857 9.2632 99.0039C14.6259 100.733 20.4418 100.222 22.5126 97.8413C24.5205 95.5332 24.7786 93.5946 25.0996 90.0843C25.5528 85.1131 32.8226 78.0251 37.3041 74.7256C45.6692 68.5636 51.7054 59.8183 52.1019 59.238C52.5048 58.4393 60.3222 42.5135 51.2711 30.8484L52.2656 30.0773C62.0028 42.6275 53.2916 59.6786 53.2034 59.8492C53.1908 59.8699 53.1782 59.8901 53.1656 59.9096C53.109 60.0015 46.8399 69.266 38.0468 75.739C32.6967 79.6818 26.7046 86.3316 26.3521 90.1982C26.0185 93.8684 25.7227 96.072 23.4631 98.6677C21.8643 100.509 18.8872 101.275 15.6897 101.275Z" fill="#e3e3e3"></path>
  <path d="M11.1036 90.2795C10.9211 90.2795 10.7574 90.3116 10.6252 90.3884C10.3672 90.535 10.1846 90.8592 10.0965 91.3514C9.85105 92.6329 10.1091 93.9591 10.7763 94.8982C11.4246 95.8121 12.438 96.3793 13.785 96.5838C15.283 96.8111 16.4348 96.383 16.9384 95.4106C17.2909 94.7232 17.2342 93.8635 16.7999 93.4122C15.7173 92.2911 13.9989 91.1878 12.4191 90.6005C11.9596 90.4274 11.4875 90.2795 11.1036 90.2795ZM14.5654 97.2749C14.2948 97.2749 14.0052 97.2542 13.6905 97.2063C12.1673 96.9753 11.0155 96.3207 10.2602 95.262C9.49858 94.187 9.20275 92.6814 9.4734 91.2356C9.60558 90.552 9.8888 90.0831 10.3168 89.8402C10.9966 89.4537 11.8715 89.725 12.6394 90.0101C14.3262 90.6376 16.0949 91.7738 17.2531 92.976C17.8762 93.623 17.9769 94.7686 17.4923 95.6995C17.2342 96.2081 16.4537 97.2749 14.5654 97.2749Z" fill="#e3e3e3"></path>
  <path d="M21.9207 55.6524C22.0465 54.5062 27.724 51.7839 31.5949 53.0736C35.4596 54.3627 30.1283 59.1337 28.8632 59.6499C27.598 60.1654 21.2786 61.455 21.9207 55.6524Z" fill="#EC4176"></path>
  <path d="M28.8513 53.0762C26.5287 53.0762 24.0487 53.9807 22.6828 54.8524C21.9842 55.2993 21.7828 55.6115 21.7702 55.7141C21.5939 57.3104 21.9527 58.4597 22.8402 59.1306C24.4578 60.3555 27.391 59.7456 28.2784 59.3856C29.2352 58.9959 32.2501 56.3039 32.1935 54.6189C32.1746 54.0543 31.797 53.6553 31.029 53.3991C30.3493 53.1731 29.6066 53.0762 28.8513 53.0762ZM25.4837 60.4858C24.4326 60.4864 23.3186 60.2812 22.4625 59.6323C21.3862 58.8184 20.9393 57.4765 21.1408 55.6449C21.1848 55.2496 21.5939 54.8046 22.3429 54.3218C24.1242 53.1832 28.1085 51.7639 31.2241 52.8024C32.5145 53.231 32.804 54.0153 32.8229 54.5982C32.8921 56.6841 29.5877 59.5322 28.5176 59.9684C28.1022 60.1352 26.8496 60.4858 25.4837 60.4858Z" fill="#EC4176"></path>
  <path d="M96.7125 67.5087L96.1082 67.3375C99.2805 56.096 104.568 28.0469 85.1562 10.4261L85.5779 9.96094C105.247 27.8177 99.9163 56.1545 96.7125 67.5087Z" fill="#EC4176"></path>
  <path d="M63.6227 136.226C54.1813 136.226 44.7336 134.151 37.5393 129.998C29.9169 125.595 25.9578 119.48 26.6376 113.186C26.6061 113.092 26.5935 112.992 26.6187 112.895C26.6439 112.769 26.6754 112.646 26.7068 112.522L26.7635 112.279C26.8516 111.762 26.9964 111.19 27.1726 110.614C29.7344 101.056 34.6628 93.2567 39.0058 86.3758C43.4622 79.3175 47.3143 73.2208 47.0499 67.4528L48.3088 67.3955C48.592 73.5588 44.6392 79.8103 40.0695 87.0487C35.7705 93.8534 30.9051 101.566 28.3811 110.966C28.2112 111.516 28.0853 112.034 27.9972 112.531L27.928 112.824C27.9154 112.858 27.909 112.892 27.9028 112.926C27.9153 112.987 27.9216 113.05 27.9154 113.111C27.1726 118.959 30.9114 124.717 38.1687 128.907C52.2049 137.011 75.0467 137.011 89.0829 128.907C94.6219 125.707 98.0963 121.673 99.1223 117.242C99.1412 117.181 99.1601 117.125 99.1915 117.073C99.2734 116.883 100.199 114.395 98.5747 101.85C98.4929 100.972 98.4362 99.5182 98.3544 97.5072C97.7691 82.9385 96.2143 44.2389 80.2269 27.7115C70.6471 17.8106 59.7076 15.7071 47.7108 21.4581L47.1695 20.3227C59.5251 14.3953 71.2702 16.6487 81.127 26.8359C97.4543 43.7083 99.0216 82.756 99.6133 97.4563C99.6951 99.449 99.7517 100.889 99.8273 101.712C101.181 112.196 100.834 116.488 100.337 117.59C99.2104 122.344 95.5345 126.635 89.7123 129.998C82.518 134.149 73.0703 136.226 63.6227 136.226Z" fill="#e3e3e3"></path>
  <path d="M45.2299 41.2513L44.7074 40.1064C46.4824 39.2932 51.1843 36.6345 51.5682 34.1369C52.4179 27.3152 44.6131 19.0175 44.5312 18.9344L45.4439 18.0664C45.7838 18.4227 53.7397 26.8784 52.8145 34.31C52.248 38.006 45.5131 41.121 45.2299 41.2513Z" fill="#e3e3e3"></path>
  <path d="M36.4689 32.2423C39.956 34.6391 43.1534 37.9354 44.5507 39.4505C45.4508 36.4997 47.6538 27.5587 44.4752 19.3013C38.2313 21.7812 36.9976 29.0272 36.4689 32.2423ZM44.8088 41.3085C44.6326 41.3085 44.4563 41.2299 44.3368 41.0907C44.2927 41.0417 39.9874 36.1 35.4367 33.0605C35.229 32.9233 35.122 32.6778 35.1661 32.4336L35.2164 32.1032C35.7955 28.6067 37.1361 20.4191 44.6326 17.9039C44.9473 17.7988 45.2872 17.9537 45.4131 18.2583C49.8443 28.8918 45.5831 40.4166 45.4005 40.9019C45.3187 41.109 45.1362 41.2601 44.9222 41.2985C44.8844 41.3054 44.8466 41.3085 44.8088 41.3085Z" fill="#e3e3e3"></path>
  <path d="M35.1555 29.4782L34.375 28.4906C35.0107 27.9858 35.7661 27.3973 36.6095 26.7578L37.3711 27.7592C36.5402 28.3937 35.7912 28.9772 35.1555 29.4782Z" fill="#e3e3e3"></path>
  <path d="M24.8935 25.796C28.4057 27.6566 31.7165 29.6299 32.755 30.2574C33.4726 28.2382 37.3246 18.6653 47.3199 12.5775C63.4332 2.76347 75.0336 4.4132 82.0013 7.61257C69.4002 -1.18995 57.8817 -0.131255 50.165 2.52303C35.9588 7.40989 26.2845 20.1073 24.8935 25.796ZM32.925 31.0442C32.8683 31.0442 32.8117 31.0285 32.7613 30.9976C32.7235 30.9731 28.6764 28.5007 24.3837 26.2398C24.2641 26.1737 24.1949 26.034 24.2263 25.8955C25.6362 19.2469 36.3617 6.60422 49.9636 1.92759C58.5615 -1.03134 71.8046 -2.04723 86.0233 9.91248C86.1492 10.0207 86.1744 10.2108 86.0674 10.3443C85.9667 10.4777 85.7779 10.5079 85.6394 10.4116C79.792 6.33986 67.0776 1.27803 47.6472 13.115C36.6889 19.7857 33.2585 30.7112 33.2271 30.8208C33.2019 30.9145 33.1264 30.9888 33.0383 31.0234C33.0005 31.0373 32.9627 31.0442 32.925 31.0442Z" fill="#EC4176"></path>
</svg>
