<?xml version="1.0" encoding="UTF-8" standalone="no"?>
<!-- Created with Inkscape (http://www.inkscape.org/) -->

<svg
   width="82.547035mm"
   height="20.190609mm"
   viewBox="0 0 82.547036 20.190609"
   version="1.1"
   id="svg5"
   xmlns="http://www.w3.org/2000/svg"
   xmlns:svg="http://www.w3.org/2000/svg">
  <defs
     id="defs2" />
  <g
     id="layer1"
     transform="translate(-39.826494,-101.89439)">
    <path
       id="path14953"
       style="color:#000000;opacity:1;fill:#3737c8;stroke-width:0.290233;stroke-linecap:round;stroke-linejoin:round;-inkscape-stroke:none;paint-order:stroke fill markers"
       d="m 60.94828,101.90631 c -1.986434,0 -3.982318,0.9864 -5.492319,2.94332 -3.019911,3.91369 -3.019892,10.32111 -2e-6,14.23472 3.019936,3.9138 7.964343,3.9138 10.984272,0 0.792203,-1.02673 1.896522,-2.45778 2.868676,-3.71765 0.972369,1.25995 2.076966,2.69114 2.869102,3.7177 3.019914,3.9137 7.963909,3.91375 10.983705,0 3.019953,-3.91361 3.019984,-10.32107 0,-14.23474 -1.50982,-1.9568 -3.505336,-2.94329 -5.491776,-2.94329 -1.986442,0 -3.982009,0.98652 -5.491929,2.94329 -0.792133,1.02659 -1.896749,2.45787 -2.869117,3.71778 -0.972153,-1.25987 -2.076464,-2.69107 -2.868678,-3.71778 -1.509889,-1.95678 -3.505486,-2.94329 -5.49194,-2.94329 z m 2e-6,4.79744 c 1.037695,0 2.067314,0.50625 2.868703,1.54489 0.792116,1.02658 1.995465,2.58658 2.868713,3.71839 -0.873156,1.13155 -2.076502,2.691 -2.868698,3.71776 -1.60268,2.07713 -4.135088,2.07713 -5.737771,0 -1.602682,-2.07704 -1.602675,-5.35913 0,-7.43617 0.801245,-1.03845 1.831398,-1.54489 2.86908,-1.5449 z m 16.721679,0 c 1.037671,0 2.067866,0.50646 2.869061,1.54489 1.602747,2.07704 1.602755,5.35913 0,7.43615 -1.602616,2.0771 -4.135047,2.07713 -5.737754,0 -0.792344,-1.02688 -1.996022,-2.58635 -2.869138,-3.71787 0.873245,-1.13169 2.076948,-2.69164 2.869215,-3.71842 0.801342,-1.03862 1.831102,-1.54485 2.868696,-1.54486 z" />
    <path
       id="path1578"
       style="color:#000000;opacity:1;fill:#ffffff;stroke-width:0.29023;stroke-linecap:round;stroke-linejoin:round;-inkscape-stroke:none;paint-order:stroke fill markers"
       d="m 82.327266,105.93132 c -1.283278,-1.66321 -2.970204,-2.49496 -4.657288,-2.49495 -1.68705,-1e-5 -3.373994,0.8319 -4.657387,2.49507 -0.791969,1.02627 -1.994916,2.58507 -2.868253,3.71689 l 0.953476,1.23651 c 0.873287,-1.13175 2.076742,-2.69135 2.868849,-3.71791 1.025524,-1.32906 2.364326,-1.99348 3.703315,-1.99348 1.339018,0 2.678197,0.66442 3.703655,1.99348 2.05097,2.65796 2.05097,6.94149 0,9.59951 -2.050912,2.65845 -5.355995,2.65831 -7.407041,-1e-5 -1.022679,-1.32534 -3.148396,-4.07986 -3.703678,-4.7994 l 0.0032,-0.004 -0.953867,-1.23626 -0.0032,0.004 c -0.555312,-0.71938 -2.680812,-3.47413 -3.703516,-4.79945 -1.283284,-1.66319 -2.970182,-2.49494 -4.657266,-2.49494 -1.687081,0 -3.374332,0.83175 -4.657633,2.49494 -2.566598,3.32608 -2.566594,8.74526 2e-6,12.07172 2.566583,3.3262 6.748424,3.32609 9.314986,-1.5e-4 0.792373,-1.02702 1.996161,-2.58705 2.869254,-3.71871 l -0.954422,-1.23603 c -0.873149,1.13169 -2.076452,2.69154 -2.868682,3.71815 -2.051031,2.65835 -5.356065,2.65853 -7.407091,1e-4 -2.051024,-2.6581 -2.051016,-6.94144 0,-9.59961 1.025495,-1.32903 2.364637,-1.99331 3.703585,-1.99335 1.338984,0 2.677897,0.66454 3.703413,1.99355 1.02268,1.3255 3.147907,4.08005 3.703209,4.79986 l -7.9e-5,1.8e-4 0.95404,1.23652 8.2e-5,-1.3e-4 c 0.555315,0.71956 2.680963,3.47418 3.703664,4.79944 2.56663,3.32623 6.748135,3.32636 9.314682,1.7e-4 2.566573,-3.32648 2.566573,-8.74564 0,-12.07172 z" />
    <path
       style="opacity:0.32;fill:#000000;fill-opacity:1;stroke:none;stroke-width:0.199662;stroke-linecap:round;stroke-linejoin:round;stroke-dasharray:none;paint-order:stroke fill markers"
       d="m 68.406721,116.53589 -2.623248,-3.39967 0.903124,-1.17025 2.623112,3.39947 z"
       id="path28829" />
    <path
       style="opacity:0.32;fill:#000000;fill-opacity:1;stroke:none;stroke-width:0.199662;stroke-linecap:round;stroke-linejoin:round;stroke-dasharray:none;paint-order:stroke fill markers"
       d="m 71.931255,111.96818 -2.623257,-3.39989 0.903114,-1.1702 2.623142,3.39967 z"
       id="path33187" />
    <path
       style="fill:#3737c8;fill-opacity:1;fill-rule:nonzero;stroke:#ffffff;stroke-width:1.13771;stroke-linecap:round;stroke-linejoin:round;stroke-dasharray:none;stroke-opacity:1;paint-order:stroke fill markers"
       id="rect1015"
       width="2.2856953"
       height="17.800936"
       x="-43.225246"
       y="103.17044"
       d="m -41.459527,118.00823 a 2.1783085,2.1783085 0 0 1 0.0047,0.0328 c 0.15844,1.17242 -0.667622,2.25663 -1.84004,2.41507 l 0.589612,0.5153 v -14.83779 a 2.1783085,2.1783085 0 0 1 -0.0047,-0.0328 c -0.158439,-1.17241 0.667623,-2.25663 1.84004,-2.41507 l -0.589612,-0.51529 z m -2.281011,-11.76815 -0.0047,-0.0696 v 15.3422 a 3.272421,3.272421 0 0 0 0.589612,-0.026 c 1.746791,-0.23606 2.967411,-1.83814 2.731351,-3.58493 l 0.0047,0.0696 v -15.34221 a 3.272421,3.272421 0 0 0 -0.589612,0.026 c -1.746792,0.23606 -2.967411,1.83814 -2.731351,3.58493 z"
       transform="scale(-1,1)" />
    <g
       id="path1023">
      <path
         style="color:#000000;-inkscape-font-specification:'Calibri, Normal';fill:#ffffff;stroke-linecap:round;stroke-linejoin:round;-inkscape-stroke:none;paint-order:stroke fill markers"
         d="m 87.414062,101.89453 c -0.499999,0 -0.974885,0.19138 -1.345703,0.50977 -0.51958,0.44612 -0.679687,1.09981 -0.679687,1.68359 v 16.39649 c 0,0.21059 0.03965,0.44885 0.15039,0.68164 a 0.5820082,0.5820082 0 0 0 0,0.002 c 0.0073,0.0153 0.01561,0.0299 0.02344,0.0449 a 0.5820082,0.5820082 0 0 0 0.01172,0.0215 c 0.01,0.0173 0.02054,0.0339 0.03125,0.0508 0.176724,0.27812 0.420875,0.44801 0.632812,0.54687 a 0.5820082,0.5820082 0 0 0 0.002,0 c 0.01594,0.007 0.03266,0.0146 0.04883,0.0215 a 0.5820082,0.5820082 0 0 0 0.04687,0.0176 c 0.01357,0.004 0.02736,0.01 0.04102,0.0137 0.162628,0.0507 0.325413,0.0791 0.490234,0.10156 0.218725,0.0396 0.44895,0.0566 0.691407,0.0566 0.24874,0 0.483347,-0.0166 0.705078,-0.0566 0.166733,-0.0226 0.330898,-0.0514 0.496094,-0.10352 0.0057,-0.002 0.01185,-0.004 0.01758,-0.006 a 0.5820082,0.5820082 0 0 0 0.03711,-0.0117 c 0.01131,-0.004 0.02198,-0.009 0.0332,-0.0137 a 0.5820082,0.5820082 0 0 0 0.0059,-0.002 c 0.217856,-0.0915 0.490818,-0.25595 0.685546,-0.5625 0.161055,-0.25351 0.228516,-0.5382 0.228516,-0.80273 v -9.47266 l 3.677734,9.90625 0.0078,0.0234 0.0039,0.01 a 0.5820082,0.5820082 0 0 0 0.02734,0.0215 c 0.07577,0.19487 0.174995,0.37767 0.302734,0.51172 0.0081,0.009 0.01712,0.017 0.02539,0.0254 a 0.5820082,0.5820082 0 0 0 0.02148,0.0215 c 0.0095,0.009 0.01963,0.017 0.0293,0.0254 0.165247,0.14361 0.341149,0.23912 0.501953,0.30664 a 0.5820082,0.5820082 0 0 0 0.0098,0.004 c 0.0095,0.004 0.01978,0.008 0.0293,0.0117 a 0.5820082,0.5820082 0 0 0 0.03125,0.01 c 0.0099,0.003 0.0194,0.007 0.0293,0.01 0.161731,0.0504 0.326034,0.082 0.49414,0.10547 0.195874,0.0273 0.403608,0.0391 0.621094,0.0391 0.209528,0 0.408925,-0.0134 0.597656,-0.041 h 0.0059 c 0.157468,-0.0147 0.319904,-0.0383 0.486328,-0.0898 l 0.0078,-0.002 c 0.004,-0.001 0.0078,-0.003 0.01172,-0.004 a 0.5820082,0.5820082 0 0 0 0.01758,-0.006 c 0.0073,-0.003 0.01618,-0.005 0.02344,-0.008 a 0.5820082,0.5820082 0 0 0 0.0078,-0.004 c 0.171412,-0.0654 0.355575,-0.1604 0.539063,-0.32617 0.176675,-0.15554 0.324404,-0.36021 0.417968,-0.58984 a 0.5820082,0.5820082 0 0 0 0.0039,-0.008 l 3.605471,-9.28906 a 0.5820082,0.5820082 0 0 0 0.0391,-0.21094 0.5820082,0.5820082 0 0 0 0,-0.004 l -0.0117,-2.81055 a 0.5820082,0.5820082 0 0 0 -0.80469,-0.38672 l 0.75196,-1.88672 a 0.5820082,0.5820082 0 0 0 0.041,-0.21875 l -0.006,-1.7539 a 0.5820082,0.5820082 0 0 0 0.42774,0.084 l -0.0215,0.0586 a 0.5820082,0.5820082 0 0 0 -0.01,0.0254 l -0.002,0.004 a 0.5820082,0.5820082 0 0 0 -0.0293,0.18164 l -0.008,2.04492 0.002,-0.0801 h 0.12109 a 0.5820082,0.5820082 0 0 0 -0.11133,0.10937 0.5820082,0.5820082 0 0 0 0.006,0.0137 h -0.0176 v 0.45703 a 0.5820082,0.5820082 0 0 0 0.32421,0.47852 0.5820082,0.5820082 0 0 0 -0.32617,0.32617 v 0.4961 a 0.5820082,0.5820082 0 0 0 0,0.002 v 11.87891 c 0,0.2633 0.067,0.54843 0.22852,0.80273 0.17719,0.27886 0.42326,0.44824 0.63476,0.54687 a 0.5820082,0.5820082 0 0 0 0.002,0 c 0.0159,0.007 0.0307,0.0146 0.0469,0.0215 a 0.5820082,0.5820082 0 0 0 0.0566,0.0195 c 0.008,0.003 0.017,0.005 0.0254,0.008 0.16665,0.0525 0.33759,0.0824 0.50977,0.10547 0.21783,0.0373 0.44467,0.0547 0.67969,0.0547 0.23598,0 0.46008,-0.0144 0.67382,-0.0527 0.17409,-0.0232 0.34589,-0.0546 0.51368,-0.10742 0.006,-0.002 0.0119,-0.002 0.0176,-0.004 a 0.5820082,0.5820082 0 0 0 0.0352,-0.0137 c 0.0113,-0.004 0.0239,-0.009 0.0352,-0.0137 a 0.5820082,0.5820082 0 0 0 0.006,-0.002 c 0.21911,-0.0921 0.48917,-0.25657 0.68359,-0.5625 0.16084,-0.25309 0.23047,-0.53828 0.23047,-0.80273 v -11.83204 a 0.5820082,0.5820082 0 0 0 -0.57422,-0.58203 l -1.02148,-0.0156 a 0.5820082,0.5820082 0 0 0 -0.58985,0.58203 v 11.16992 c -0.004,2e-5 -0.003,0 -0.008,0 v -11.1875 A 0.5820082,0.5820082 0 0 0 103.283,108.0373 l -0.4707,-0.006 a 0.5820082,0.5820082 0 0 0 -0.27344,-0.42969 0.5820082,0.5820082 0 0 0 0.22461,-0.22265 l 0.51953,-0.008 a 0.5820082,0.5820082 0 0 0 0.57227,-0.58203 v -2.36914 a 0.5820082,0.5820082 0 0 0 -0.28906,-0.28906 h 0.29687 v 2.64062 a 0.5820082,0.5820082 0 0 0 0.58985,0.58204 l 1.02148,-0.0137 a 0.5820082,0.5820082 0 0 0 0.57422,-0.58203 v -2.67187 c 0,-0.29462 -0.04,-0.60517 -0.16406,-0.91016 -0.0952,-0.24217 -0.23898,-0.48099 -0.44336,-0.68555 -0.17734,-0.1912 -0.40482,-0.30778 -0.63672,-0.40039 a 0.5820082,0.5820082 0 0 0 -0.0391,-0.0488 c -0.007,-0.003 -0.0145,-0.001 -0.0215,-0.004 l 0.002,-0.004 -0.043,-0.0156 -0.002,0.008 c -0.0102,-0.003 -0.0171,-0.0145 -0.0273,-0.0176 a 0.5820082,0.5820082 0 0 0 -0.0215,0.0117 c -0.2149,-0.0722 -0.43428,-0.125 -0.65429,-0.125 h -1.43164 c -0.12812,0 -0.24913,0.009 -0.36133,0.0215 a 0.5820082,0.5820082 0 0 0 -0.0391,0.043 0.5820082,0.5820082 0 0 0 -0.0762,-0.0293 c -0.0285,0.004 -0.0618,0.012 -0.0937,0.0176 l -0.041,0.006 c -0.006,10e-4 -0.0112,0.003 -0.0176,0.004 a 0.5820082,0.5820082 0 0 0 -0.0371,0.0566 0.5820082,0.5820082 0 0 0 -0.0937,-0.0273 c -0.0108,0.003 -0.0191,0.005 -0.0293,0.008 l -0.0176,0.006 c -0.0218,0.006 -0.0452,0.0116 -0.0645,0.0176 -0.002,5.8e-4 -1.5e-4,-5.4e-4 -0.002,0 -0.004,0.001 -0.008,0.003 -0.0117,0.004 -2.2e-4,8e-5 2.1e-4,0.002 0,0.002 -0.005,0.002 -0.0215,0.006 -0.0156,0.004 a 0.5820082,0.5820082 0 0 0 -0.0176,0.006 l -0.0117,0.004 a 0.5820082,0.5820082 0 0 0 -0.004,0.002 c -0.004,0.002 -0.0218,0.006 -0.0215,0.006 a 0.5820082,0.5820082 0 0 0 -0.004,0.01 0.5820082,0.5820082 0 0 0 -0.0176,-0.004 c -0.0324,0.0108 -0.0676,0.0261 -0.10156,0.0391 l -0.0625,0.0234 c -0.01,0.004 -0.0178,0.008 -0.0273,0.0117 a 0.5820082,0.5820082 0 0 0 -0.0215,0.0547 0.5820082,0.5820082 0 0 0 -0.084,-0.002 c -0.0258,0.013 -0.0506,0.0308 -0.0762,0.0449 l -0.004,0.002 c -0.0725,0.0401 -0.14488,0.0792 -0.21484,0.12891 a 0.5820082,0.5820082 0 0 0 -0.0215,0.0977 0.5820082,0.5820082 0 0 0 -0.14062,0.0273 c -0.0118,0.01 -0.0216,0.0211 -0.0332,0.0312 l -0.20703,0.20507 c -0.01,0.0108 -0.0217,0.0203 -0.0312,0.0312 a 0.5820082,0.5820082 0 0 0 0,0.004 0.5820082,0.5820082 0 0 0 -0.004,0.002 c -0.008,0.009 -0.0136,0.0199 -0.0215,0.0293 l -0.002,-0.002 -0.17383,0.23047 c -0.006,0.009 -0.0133,0.0182 -0.0195,0.0273 a 0.5820082,0.5820082 0 0 0 0.0234,0.12695 0.5820082,0.5820082 0 0 0 -0.14063,0.0566 c -0.15137,0.25661 -0.275096,0.54451 -0.384763,0.84961 a 0.5820082,0.5820082 0 0 0 -0.0078,0.008 l -4.11914,10.35742 -3.951172,-10.35547 c -0.0957,-0.29479 -0.211511,-0.57536 -0.359375,-0.83399 -0.174402,-0.30501 -0.403839,-0.57359 -0.685547,-0.78711 -0.281358,-0.21322 -0.599963,-0.36025 -0.931641,-0.44726 -0.320239,-0.0841 -0.657286,-0.11719 -1.005859,-0.11719 z m 16.361328,2.00977 a 0.5820082,0.5820082 0 0 0 0.14258,0.15625 c -0.0153,-0.0114 -0.0287,-0.0163 -0.041,-0.0274 -0.002,-0.004 -0.0189,-0.0248 -0.0176,-0.0215 a 0.5820082,0.5820082 0 0 0 0.006,0.0137 c -0.006,-0.006 -0.0171,-0.009 -0.0215,-0.0137 l -0.002,-0.002 c -0.0273,-0.0323 -0.0488,-0.0684 -0.0664,-0.10547 z m 0.16797,0.20703 a 0.5820082,0.5820082 0 0 0 0.0293,0.0117 c -0.005,-0.001 -0.003,8.1e-4 -0.01,-0.002 l -0.0117,-0.004 c -0.003,-0.001 -0.005,-0.005 -0.008,-0.006 z m -16.369141,0.0195 h 0.296875 a 0.5820082,0.5820082 0 0 0 -0.289063,0.28906 v 15.38477 c -0.0039,4e-5 -0.0038,-3e-5 -0.0078,0 z m 16.394531,0 h 0.0117 a 0.5820082,0.5820082 0 0 0 0.0215,0.0234 c -0.0119,-0.007 -0.0222,-0.0154 -0.0332,-0.0234 z m 0.0801,0.0176 a 0.5820082,0.5820082 0 0 0 0.0371,0.0137 c -0.009,-0.002 -0.0166,-0.003 -0.0254,-0.006 l -0.004,-0.002 c -0.002,-5.6e-4 -0.006,-0.005 -0.008,-0.006 z m -15.302736,1.1582 0.802734,2.16211 a 0.5820082,0.5820082 0 0 0 -0.802734,0.13477 z m 4.964843,10.03125 1.058594,2.77539 a 0.5820082,0.5820082 0 0 0 0.544922,0.375 h 0.751953 a 0.5820082,0.5820082 0 0 0 0.330078,-0.22461 l -0.595703,1.53125 c -0.05594,0.006 -0.113809,0.0117 -0.220703,0.0117 -0.101578,0 -0.153372,-0.007 -0.214844,-0.0117 z m 1.644532,1.04297 a 0.5820082,0.5820082 0 0 0 0.6875,0.008 l -0.34961,0.87696 z m 0.732422,3.37891 c 0,0 -1.1e-5,0.004 0,0.004 -0.01962,0.003 -0.03306,0.004 -0.04492,0.008 z m -0.002,0.32617 h 0.002 c 0.05928,0.12135 0.11914,0.24414 0.11914,0.24414 a 0.5820082,0.5820082 0 0 0 0,-0.008 c 2.7e-5,1.2e-4 0.002,0.006 0.002,0.006 0,0 0,0.002 0,0.002 a 0.5820082,0.5820082 0 0 0 0.0039,0.01 c 0.0083,0.0154 0.146187,0.27292 0.214843,0.40039 -0.01357,0.008 -0.02235,0.0134 -0.03711,0.0215 -0.05417,-0.12875 -0.163642,-0.38326 -0.175781,-0.41211 a 0.5820082,0.5820082 0 0 0 0.126953,0.42969 0.5820082,0.5820082 0 0 0 0.02539,-0.004 c -0.0091,0.005 -0.01506,0.01 -0.02344,0.0137 -0.0057,0.003 -0.01049,0.008 -0.01563,0.01 -0.0012,4.9e-4 -0.0027,0.001 -0.0039,0.002 -4.59e-4,1.8e-4 -0.0015,-1.7e-4 -0.002,0 -0.06367,0.0195 -0.161687,0.0376 -0.271485,0.0469 a 0.5820082,0.5820082 0 0 0 -0.03711,0.004 c -0.0062,9.1e-4 -0.01707,10e-4 -0.02344,0.002 a 0.5820082,0.5820082 0 0 0 0.351563,-0.0723 c -1.64e-4,-5.5e-4 1.66e-4,-0.001 0,-0.002 -0.04151,-0.14011 -0.134766,-0.44922 -0.134766,-0.44922 -1.7e-5,1e-5 -0.06058,-0.12286 -0.121094,-0.24414 z M 95.636719,120.25 a 0.5820082,0.5820082 0 0 0 0.328125,0.59961 c -0.03928,-0.0196 -0.08016,-0.0391 -0.08008,-0.0391 1.34e-4,9e-5 -0.140707,-0.13488 -0.140625,-0.13477 8.2e-5,1.1e-4 -0.09574,-0.20129 -0.0957,-0.20117 3.2e-5,1.2e-4 -0.0117,-0.22473 -0.01172,-0.22461 z m -9.078125,0.25977 a 0.5820082,0.5820082 0 0 0 0.232422,0.27539 c -0.01869,-0.005 -0.05094,-0.009 -0.06641,-0.0137 -0.06018,-0.0294 -0.106782,-0.0644 -0.134765,-0.10742 -4.46e-4,-6.8e-4 -0.0015,-0.001 -0.002,-0.002 -0.02062,-0.0445 -0.0266,-0.0943 -0.0293,-0.15234 z m 2.039062,0 c -0.0037,0.0581 -0.01313,0.10845 -0.04102,0.15234 -0.02438,0.0384 -0.08334,0.0801 -0.150391,0.10937 -0.0082,0.003 -0.02608,0.005 -0.03516,0.008 a 0.5820082,0.5820082 0 0 0 0.226562,-0.26953 z m 16.279294,0 c -0.004,0.0577 -0.013,0.10821 -0.041,0.15234 -0.0247,0.0388 -0.0825,0.0825 -0.14844,0.11133 -0.008,0.003 -0.0258,0.005 -0.0352,0.008 a 0.5820082,0.5820082 0 0 0 0.22461,-0.27148 z m -2.03515,0.002 a 0.5820082,0.5820082 0 0 0 0.22656,0.27344 c -0.0133,-0.004 -0.0372,-0.006 -0.0488,-0.01 -0.0623,-0.0302 -0.11103,-0.0678 -0.13867,-0.11133 -0.0271,-0.0427 -0.0351,-0.0947 -0.0391,-0.15234 z m -6.193363,0.20508 -0.04297,0.0469 -0.06055,0.041 a 0.5820082,0.5820082 0 0 0 0.06445,-0.0801 0.5820082,0.5820082 0 0 0 0.03906,-0.008 z m -0.208984,0.043 c 0.01178,0.0219 0.04296,0.082 0.04297,0.082 -0.0063,0.003 -0.0157,0.008 -0.01563,0.008 4.7e-5,-2e-5 -0.03324,0.0156 -0.0332,0.0156 0,0 -0.02912,-0.0674 -0.04102,-0.0957 a 0.5820082,0.5820082 0 0 0 0.04687,-0.01 z m -0.06641,0.12695 c -0.0354,0.0104 -0.135372,0.0235 -0.134766,0.0234 1.6e-5,0 -0.0056,4e-5 -0.0059,0 0.04506,-0.008 0.09885,-0.0107 0.140625,-0.0234 z m -8.273438,0.043 c 6.25e-4,-8e-5 0.0013,8e-5 0.002,0 l -0.01367,0.002 c 0.0039,-4.7e-4 0.0078,-10e-4 0.01172,-0.002 z"
         id="path1073" />
      <path
         style="color:#000000;-inkscape-font-specification:'Calibri, Normal';fill:#373bc8;stroke-width:1.1639;stroke-linecap:round;stroke-linejoin:round;-inkscape-stroke:none;paint-order:stroke fill markers"
         d="m 103.99779,102.47592 -1.43144,5.1e-4 c -0.10147,0 -0.20024,0.007 -0.29766,0.0176 l -0.004,1.08159 h 5.2e-4 c 0.0849,-0.0166 0.18323,-0.0269 0.30075,-0.0269 h 1.43092 c 0.0728,0 0.13407,0.0127 0.18449,0.0331 a 0.41573423,0.43626756 0 0 1 0.0222,0.0103 0.26392883,0.27696442 0 0 1 0.0207,0.005 c 0.0373,0.0112 0.0533,0.0254 0.0625,0.0362 a 0.09495223,0.09964197 0 0 1 0.014,0.0217 0.14965045,0.15704176 0 0 1 0.0243,0.0181 c 0.0194,0.0183 0.0486,0.0554 0.0775,0.13126 a 0.64907457,0.6811327 0 0 1 0.003,0.007 0.25338492,0.26589973 0 0 1 0.002,0.005 c 0.0184,0.045 0.0377,0.12577 0.0377,0.27079 v 2.6851 l 1.02165,-0.015 v -2.67064 c 0,-0.24077 -0.0338,-0.48127 -0.12041,-0.6935 -0.0736,-0.18874 -0.17847,-0.3623 -0.32349,-0.50384 -0.14421,-0.15823 -0.3202,-0.26492 -0.51728,-0.32401 l 0.0429,0.0155 c -0.17715,-0.0715 -0.36104,-0.1049 -0.55087,-0.1049 z m -16.583487,5.1e-4 c -0.364031,0 -0.685117,0.12758 -0.966866,0.36949 -0.352696,0.30283 -0.47594,0.75603 -0.47594,1.24127 v 16.39641 c 0,0.14252 0.02501,0.28957 0.09302,0.43253 a 0.86805159,0.91092511 0 0 0 0.01395,0.0279 0.7691064,0.80709296 0 0 0 0.01809,0.03 c 0.102962,0.16204 0.249327,0.26548 0.38809,0.33021 a 1.1306226,1.1864647 0 0 0 0.03152,0.014 1.5599169,1.636962 0 0 0 0.02946,0.009 c 0.124123,0.0391 0.26884,0.0664 0.42478,0.0868 0.173058,0.0313 0.372534,0.046 0.588595,0.046 0.223775,0 0.426092,-0.0144 0.600997,-0.046 0.15606,-0.0204 0.300935,-0.0476 0.425297,-0.0868 a 1.5528508,1.6295469 0 0 0 0.02067,-0.006 1.1499407,1.2067369 0 0 0 0.02222,-0.009 c 0.143768,-0.0604 0.309183,-0.16493 0.419096,-0.33796 0.09677,-0.15232 0.138493,-0.32198 0.138493,-0.49041 V 107.7743 l 4.816243,12.97337 -0.0088,-0.0248 c 0.04604,0.14511 0.120002,0.26105 0.214974,0.36071 a 1.0444795,1.0960669 0 0 0 0.01654,0.0171 0.9787356,1.0270759 0 0 0 0.01809,0.016 c 0.104767,0.0916 0.226537,0.15911 0.347265,0.2098 a 1.7446949,1.8308663 0 0 0 0.02119,0.008 1.6512277,1.7327827 0 0 0 0.0217,0.007 c 0.120198,0.0378 0.259828,0.0662 0.40721,0.0868 0.158387,0.0221 0.342524,0.032 0.540535,0.032 0.189965,0 0.366278,-0.0106 0.518315,-0.0331 0.141364,-0.0119 0.280736,-0.0344 0.403076,-0.0729 a 1.3005883,1.364825 0 0 0 0.01344,-0.004 1.181973,1.2403513 0 0 0 0.01447,-0.005 c 0.114225,-0.0436 0.256763,-0.11951 0.362252,-0.21601 0.114027,-0.0998 0.201629,-0.22066 0.264584,-0.37517 l 3.605471,-9.28936 v -5.1e-4 l -0.0124,-2.81017 -4.527371,11.66596 -0.0016,0.001 -0.0083,0.009 c 1.4e-4,-0.001 -0.0013,-0.002 -0.0047,-0.001 -1.91e-4,4e-5 -8.98e-4,4.8e-4 -0.001,5.2e-4 -0.04189,0.013 -0.106636,0.0256 -0.213941,0.0331 a 2.2155649,2.3249928 0 0 1 -0.01964,0.001 1.4164914,1.4864527 0 0 1 -0.0186,0.003 c -0.09307,0.0139 -0.213974,0.0222 -0.374138,0.0222 -0.16963,0 -0.300952,-0.008 -0.405143,-0.0233 -0.102086,-0.0143 -0.172197,-0.0301 -0.225826,-0.0455 -0.0044,-0.002 -0.0082,-0.003 -0.01188,-0.005 l -5.900932,-15.89618 h -0.873332 v 15.91065 c -0.03797,0.007 -0.07863,0.0145 -0.130225,0.0212 a 3.4066107,3.574865 0 0 1 -0.01654,0.002 1.0278026,1.0785663 0 0 1 -0.01447,0.003 c -0.09867,0.0194 -0.242932,0.032 -0.443901,0.032 -0.191464,0 -0.331193,-0.0122 -0.431498,-0.032 a 1.1132642,1.1682489 0 0 1 -0.01395,-0.003 3.4339704,3.603576 0 0 1 -0.01654,-0.002 c -0.0412,-0.005 -0.0714,-0.0114 -0.10387,-0.017 v -16.24707 c 0,-0.28635 0.06889,-0.38401 0.101286,-0.41186 0.103401,-0.0888 0.211253,-0.12661 0.319877,-0.12661 h 1.365291 c 0.250165,0 0.450358,0.0243 0.611849,0.0667 0.153284,0.0402 0.277548,0.10145 0.376205,0.17622 0.09867,0.0748 0.183611,0.17113 0.254765,0.29559 0.08259,0.14442 0.159419,0.32276 0.228926,0.54157 a 3.7254902,3.9094941 0 0 1 0.0052,0.015 l 5.058089,13.26224 h 0.751375 l 4.673614,-11.74502 -0.0114,-2.64531 c -0.13569,0.23002 -0.25533,0.5004 -0.36018,0.80046 l 0.008,-0.0222 -4.672582,11.74347 -4.491716,-11.77706 c -0.08619,-0.26549 -0.188738,-0.50959 -0.311609,-0.7245 -0.138921,-0.24296 -0.316325,-0.44934 -0.532784,-0.6134 -0.216467,-0.16405 -0.460222,-0.27726 -0.727087,-0.34727 -0.258659,-0.0679 -0.548831,-0.0987 -0.858862,-0.0987 z m 14.760337,0.03 c -0.0408,0.006 -0.0815,0.0126 -0.12144,0.0207 z m -0.23047,0.046 c -0.0287,0.007 -0.0573,0.0154 -0.0853,0.0243 -0.003,8.8e-4 -0.006,0.002 -0.009,0.003 -0.005,0.002 -0.0105,0.003 -0.015,0.004 -0.011,0.003 -0.0216,0.007 -0.0326,0.0108 z m -0.16899,0.0512 c -0.0484,0.0162 -0.0959,0.034 -0.14211,0.0543 z m -0.14469,0.0558 0.006,1.35754 5.2e-4,-5.2e-4 z m -0.076,0.0372 c -0.076,0.0383 -0.14943,0.0819 -0.21963,0.13178 l 0.0842,-0.0357 0.005,-0.003 z m -0.34365,0.2279 c -0.0732,0.0614 -0.14208,0.13007 -0.20723,0.20464 z M 101,103.1333 c -0.0619,0.0712 -0.12022,0.14829 -0.17519,0.22944 z m 1.39319,1.28571 -0.13074,0.33745 -0.001,0.003 -0.007,2.04483 1.01906,-0.015 v -2.3704 z m -0.13849,2.42724 -0.002,0.45889 h 10e-4 z m -0.003,1.26194 v 0.49661 l 5.1e-4,-0.49661 z m 0,0.49661 v 11.88041 c 0,0.16843 0.0412,0.33806 0.13797,0.49041 0.10296,0.16204 0.24984,0.26549 0.38861,0.33021 a 1.1306226,1.1864647 0 0 0 0.0315,0.014 1.5599169,1.636962 0 0 0 0.0295,0.009 c 0.12413,0.0391 0.26832,0.0669 0.42426,0.0873 0.17878,0.0312 0.37631,0.0455 0.5886,0.0455 0.21911,0 0.42408,-0.0142 0.59014,-0.0455 0.15547,-0.0204 0.29928,-0.0483 0.42323,-0.0873 a 1.5530896,1.6297975 0 0 0 0.0207,-0.006 1.1497787,1.2065669 0 0 0 0.0222,-0.009 c 0.14377,-0.0604 0.30918,-0.16552 0.4191,-0.33848 0.0968,-0.15232 0.13849,-0.32147 0.13849,-0.4899 l 5.2e-4,-11.83338 -1.02165,-0.015 v 11.69386 c -0.0381,0.007 -0.0785,0.0144 -0.13022,0.0212 a 3.4069847,3.5752575 0 0 1 -0.0202,0.002 0.89249515,0.93657595 0 0 1 -0.0171,0.004 c -0.0912,0.0191 -0.22176,0.031 -0.42529,0.031 -0.18053,0 -0.32371,-0.0129 -0.43615,-0.0336 a 1.4670391,1.5394969 0 0 1 -0.0124,-0.002 3.4339704,3.603576 0 0 1 -0.0129,-0.002 c -0.0465,-0.006 -0.0819,-0.0127 -0.11731,-0.0191 v -11.71298 z"
         id="path1075" />
    </g>
    <g
       aria-label="X"
       transform="matrix(1.0339072,0,0,0.93858513,0.17858932,3.4451957)"
       id="text1170"
       style="font-size:30.4202px;font-family:Calibri;-inkscape-font-specification:'Calibri, Normal';opacity:1;fill:#3737c8;fill-opacity:1;stroke:#ffffff;stroke-width:1.05066;stroke-linecap:round;stroke-linejoin:round;stroke-dasharray:none;paint-order:stroke fill markers;stop-color:#000000;stop-opacity:1">
      <path
         d="m 116.71834,124.90494 0.003,0.0173 0.004,0.0171 c 1.8e-4,7.5e-4 -1.2e-4,-9e-4 -1.2e-4,-9e-4 0,0 -6e-4,-0.006 -6e-4,-0.006 0,0 -1.7e-4,-0.01 -1.7e-4,-0.01 0,0 0.0444,-0.11524 0.0444,-0.11524 0,0 0.007,-0.008 0.007,-0.008 0,0 0.006,-0.006 0.006,-0.006 l 0.0237,-0.0197 c 0,0 -0.0611,0.0233 -0.20115,0.0366 a 1.7072458,1.7072458 0 0 1 -0.0126,0.001 2.0549516,2.0549516 0 0 1 -0.0127,0.002 c -0.169,0.0254 -0.40592,0.0394 -0.7322,0.0394 -0.30952,0 -0.53528,-0.01 -0.6907,-0.0268 a 2.3776495,2.3776495 0 0 1 -0.0128,-0.001 2.4450965,2.4450965 0 0 1 -0.0129,-6.9e-4 c -0.15253,-0.008 -0.24458,-0.028 -0.29609,-0.0467 l 0.014,0.005 c -0.0684,-0.0273 -0.0998,-0.0488 -0.11103,-0.0582 l 0.0602,0.0601 c -0.0159,-0.0191 -0.0388,-0.0534 -0.065,-0.11239 a 0.8972567,0.8972567 0 0 1 -0.008,-0.0178 l -4.69834,-8.40156 -4.73608,8.38175 c -0.0326,0.0586 -0.0618,0.0956 -0.0848,0.11861 0,0 -0.0224,0.0178 -0.0805,0.039 l 0.0255,-0.008 c -0.0534,0.0161 -0.14423,0.0312 -0.30652,0.0402 a 3.9009188,3.9009188 0 0 1 -0.0132,7.1e-4 2.596842,2.596842 0 0 1 -0.0128,0.001 c -0.15685,0.0174 -0.37177,0.0268 -0.66099,0.0268 -0.31607,0 -0.54188,-0.014 -0.69889,-0.0388 a 1.7707487,1.7707487 0 0 1 -0.0117,-0.002 3.9004764,3.9004764 0 0 1 -0.0125,-0.001 c -0.11309,-0.0119 -0.14027,-0.0198 -0.14027,-0.0198 l 0.0443,0.0443 c 0,0 0.0356,0.0795 0.0356,0.0795 0,0 2e-5,8.6e-4 2e-5,5.6e-4 1e-5,-3.5e-4 5e-5,-0.001 1.8e-4,-0.003 1.6e-4,-0.002 4.4e-4,-0.004 9.5e-4,-0.008 l -0.007,0.0345 c 0.0144,-0.0624 0.065,-0.18446 0.18383,-0.3856 l 5.385,-9.07668 -5.14606,-8.78037 0.007,0.0126 c -0.11273,-0.20667 -0.17411,-0.34551 -0.201,-0.4329 l 0.0104,0.0397 c -8.5e-4,-0.004 -0.001,-0.007 -0.002,-0.008 -1.3e-4,-9e-4 -2.3e-4,-0.002 -2.3e-4,-0.002 0,0 9e-5,0.003 9e-5,0.003 0,0 -2.4e-4,0.007 -2.4e-4,0.007 0,0 -9.5e-4,0.009 -9.5e-4,0.009 0,0 -0.002,0.0105 -0.002,0.0105 0,0 -0.0715,0.12178 -0.0594,0.10115 a 0.29700664,0.29700664 0 0 0 0.0109,-8.8e-4 c 0,0 0.0153,-0.002 0.1298,-0.013 0.17776,-0.0178 0.43025,-0.0274 0.77011,-0.0274 0.28923,0 0.50964,0.009 0.67855,0.0271 a 3.1397343,3.1397343 0 0 1 0.0122,0.001 3.3033678,3.3033678 0 0 1 0.0123,6.2e-4 c 0.16706,0.009 0.25308,0.0261 0.30956,0.0466 l 0.0182,0.007 0.0187,0.005 c 0.0368,0.01 -0.0215,-0.032 -0.0215,-0.032 a 0.01073945,0.01073945 0 0 1 0.004,0.007 3.0573653,3.0573653 0 0 1 0.0171,0.0203 c 0.0433,0.0519 0.0924,0.11434 0.14826,0.18881 l -0.0315,-0.0479 4.53908,7.90256 4.50713,-7.90383 -0.01,0.0164 c 0.0405,-0.0648 0.0775,-0.1159 0.11108,-0.1562 a 0.96106133,0.96106133 0 0 1 0.0119,-0.014 0.02707513,0.02707513 0 0 1 0.009,-0.0136 c 0,0 -0.0359,0.0276 -0.0262,0.0244 l 0.0131,-0.004 0.0128,-0.005 c 0.0353,-0.0141 0.11301,-0.0331 0.25396,-0.0415 a 2.075649,2.075649 0 0 1 0.0136,-7.6e-4 2.2117305,2.2117305 0 0 1 0.0136,-0.002 c 0.14521,-0.0171 0.34921,-0.0265 0.62826,-0.0265 0.29558,0 0.51029,0.0137 0.66918,0.0388 a 1.9438656,1.9438656 0 0 1 0.0128,0.002 5.7053895,5.7053895 0 0 1 0.0138,0.001 c 0.12615,0.0126 0.15269,0.0195 0.15269,0.0195 l 0.0102,0.009 0.0107,0.008 c 0,0 -0.0694,-0.10929 -0.0694,-0.10929 0,0 -0.002,-0.01 -0.002,-0.01 0,0 -9.4e-4,-0.008 -9.4e-4,-0.008 0,0 -2.3e-4,-0.005 -2.3e-4,-0.005 0,0 3e-5,-0.001 -2e-5,-4.2e-4 -6e-5,8.6e-4 -2.2e-4,0.003 8e-5,7.7e-4 -0.008,0.0534 -0.0471,0.16657 -0.15592,0.36599 l 0.008,-0.0133 -5.13083,8.71936 5.33919,9.13771 c 0.11727,0.19845 0.15593,0.30727 0.1628,0.35194 z m -4.54963,-9.72635 -7.4e-4,0.47633 4.99459,-8.48782 a 4.4803314,4.4803314 0 0 0 0.004,-0.007 c 0.12889,-0.23628 0.22859,-0.46971 0.26071,-0.67876 0.0392,-0.27458 -0.0251,-0.55115 -0.28101,-0.75018 l 0.021,0.0173 c -0.17643,-0.15439 -0.44513,-0.22446 -0.67913,-0.24785 l 0.0267,0.003 c -0.21739,-0.0344 -0.4978,-0.0504 -0.81618,-0.0504 -0.29528,0 -0.54679,0.0104 -0.73826,0.0329 l 0.0273,-0.002 c -0.19573,0.0115 -0.38541,0.0421 -0.54814,0.10714 l 0.0259,-0.009 c -0.17844,0.0595 -0.32604,0.15904 -0.44211,0.32148 l 0.0213,-0.0276 c -0.0654,0.0785 -0.12744,0.16603 -0.186,0.2597 a 2.9517788,2.9517788 0 0 0 -0.005,0.008 l -4.10411,7.19708 0.81731,-0.001 -4.14339,-7.21367 a 7.7610311,7.7610311 0 0 0 -0.0175,-0.0234 c -0.063,-0.084 -0.12274,-0.16019 -0.17852,-0.22709 l 0.0215,0.0278 c -0.13073,-0.18295 -0.31118,-0.27837 -0.49677,-0.32903 l 0.0369,0.0117 c -0.16137,-0.0587 -0.37242,-0.0909 -0.58164,-0.10198 l 0.0245,0.002 c -0.20739,-0.0218 -0.47219,-0.0323 -0.77711,-0.0323 -0.35331,0 -0.64545,0.0102 -0.86381,0.032 -0.24675,0.0247 -0.51352,0.0956 -0.70198,0.28411 l 0.023,-0.0215 c -0.25309,0.22131 -0.28118,0.50195 -0.22474,0.76511 a 1.2588551,1.2588551 0 0 0 0.005,0.0205 1.4998328,1.4998328 0 0 0 0.006,0.0192 c 0.0523,0.17008 0.14939,0.37782 0.27432,0.60686 a 7.1566494,7.1566494 0 0 0 0.004,0.006 l 5.00927,8.54698 0.001,-0.47832 -5.24378,8.83864 c -0.13814,0.23383 -0.24599,0.45838 -0.29104,0.65342 a 1.1017453,1.1017453 0 0 0 -0.004,0.017 1.0740492,1.0740492 0 0 0 -0.003,0.0174 c -0.0364,0.23665 0.006,0.48845 0.18533,0.69347 a 0.83093168,0.83093168 0 0 0 0.0187,0.0207 0.6517148,0.6517148 0 0 0 0.0256,0.0236 c 0.17094,0.14959 0.43616,0.22385 0.66183,0.2476 l -0.0242,-0.003 c 0.21929,0.0346 0.5084,0.0504 0.84589,0.0504 0.30491,0 0.56531,-0.0104 0.76495,-0.0326 l -0.026,0.002 c 0.19419,-0.0108 0.38067,-0.0352 0.52528,-0.0786 a 1.1301624,1.1301624 0 0 0 0.0134,-0.004 1.5177091,1.5177091 0 0 0 0.0121,-0.004 c 0.15131,-0.055 0.30441,-0.13797 0.42459,-0.25816 0.0958,-0.0958 0.17543,-0.20728 0.24031,-0.32404 l 4.3224,-7.64961 -0.82088,-0.002 4.27784,7.64961 -0.0194,-0.0387 c 0.053,0.11928 0.11926,0.23355 0.20238,0.33323 a 1.1343145,1.1343145 0 0 0 0.0272,0.0314 1.0024421,1.0024421 0 0 0 0.0329,0.0287 c 0.10761,0.0897 0.23461,0.15732 0.36427,0.20917 a 1.870686,1.870686 0 0 0 0.007,0.003 1.2233647,1.2233647 0 0 0 0.007,0.003 c 0.16635,0.0605 0.36147,0.0905 0.56543,0.10191 l -0.0258,-0.002 c 0.20106,0.0223 0.47042,0.0326 0.79466,0.0326 0.34708,0 0.6449,-0.0157 0.872,-0.0498 l -0.0253,0.003 c 0.24192,-0.023 0.50873,-0.0897 0.69005,-0.23075 a 0.71195956,0.71195956 0 0 0 0.013,-0.0103 0.86428614,0.86428614 0 0 0 0.0108,-0.009 c 0.23174,-0.20596 0.29979,-0.48964 0.23508,-0.76982 l 0.007,0.0344 c -0.0327,-0.2128 -0.14262,-0.45056 -0.28164,-0.68582 z"
         id="path1222"
         style="fill:#3737c8;fill-opacity:1;stroke-width:1.05066;stroke-dasharray:none" />
    </g>
    <path
       style="fill:none;stroke:#ffffff;stroke-width:0.264583px;stroke-linecap:butt;stroke-linejoin:miter;stroke-opacity:1"
       d="m 101.41906,102.79271 -0.0421,0.0179"
       id="path1768" />
    <path
       style="fill:#3737c8;fill-opacity:1;fill-rule:nonzero;stroke:#ffffff;stroke-width:1.13771;stroke-linecap:round;stroke-linejoin:round;stroke-dasharray:none;stroke-opacity:1;paint-order:stroke fill markers"
       id="path3278"
       width="2.310071"
       height="14.087955"
       x="118.66066"
       y="-55.026871"
       d="m 120.50569,-43.90741 a 2.2468062,2.2468062 0 0 1 0.004,0.02841 c 0.15712,1.209316 -0.69951,2.321795 -1.90883,2.478919 l 0.52496,0.461163 v -11.11946 a 2.2468062,2.2468062 0 0 1 -0.004,-0.02841 c -0.15712,-1.209316 0.69951,-2.321795 1.90883,-2.478919 l -0.52496,-0.461163 z m -2.30619,-8.059543 -0.004,-0.05992 v 11.574147 a 3.2253258,3.2253258 0 0 0 0.52496,-0.02503 c 1.72335,-0.223912 2.93523,-1.797726 2.71131,-3.52108 l 0.004,0.05992 v -11.574147 a 3.2253258,3.2253258 0 0 0 -0.52496,0.02503 c -1.72335,0.223912 -2.93523,1.797726 -2.71131,3.52108 z"
       transform="rotate(90)" />
    <rect
       style="fill:#ffffff;stroke:#ffffff;stroke-width:0.141527;stroke-linecap:round;stroke-linejoin:round;stroke-dasharray:none;paint-order:stroke fill markers;stop-color:#000000"
       id="rect3288"
       width="10.196789"
       height="0.82100999"
       x="42.757061"
       y="119.40513" />
    <rect
       style="fill:#ffffff;stroke:#ffffff;stroke-width:0.0322734;stroke-linecap:round;stroke-linejoin:round;paint-order:stroke fill markers;stop-color:#000000"
       id="rect310"
       width="1.560547"
       height="1.9011194"
       x="94.799828"
       y="117.90549" />
    <rect
       style="fill:#ffffff;stroke:#ffffff;stroke-width:0.117912;stroke-linecap:round;stroke-linejoin:round;paint-order:stroke fill markers;stop-color:#000000"
       id="rect418"
       width="0.62127393"
       height="3.0541327"
       x="56.407135"
       y="163.7581"
       transform="matrix(0.71629542,-0.69779716,0.32416276,0.94600133,0,0)" />
    <rect
       style="fill:#ffffff;stroke:#ffffff;stroke-width:0.042869;stroke-linecap:round;stroke-linejoin:round;paint-order:stroke fill markers;stop-color:#000000"
       id="rect420"
       width="0.82321358"
       height="15.673969"
       x="87.045059"
       y="104.13076" />
    <circle
       style="fill:#ffffff;stroke:#ffffff;stroke-width:0.0283104;stroke-linecap:round;stroke-linejoin:round;paint-order:stroke fill markers;stop-color:#000000"
       id="path474"
       cx="53.024612"
       cy="119.91776"
       r="0.29613903" />
    <rect
       style="fill:#ffffff;stroke:#ffffff;stroke-width:0.0177232;stroke-linecap:round;stroke-linejoin:round;paint-order:stroke fill markers;stop-color:#000000"
       id="rect476"
       width="1.0504555"
       height="11.97034"
       x="41.557171"
       y="105.75925" />
    <rect
       style="fill:#ffffff;stroke:#ffffff;stroke-width:0.0283104;stroke-linecap:round;stroke-linejoin:round;paint-order:stroke fill markers;stop-color:#000000"
       id="rect478"
       width="0.18708867"
       height="0.74835467"
       x="41.988853"
       y="105.16844" />
    <rect
       style="fill:#ffffff;stroke:#ffffff;stroke-width:0.0589845;stroke-linecap:round;stroke-linejoin:round;paint-order:stroke fill markers;stop-color:#000000"
       id="rect480"
       width="0.24341008"
       height="1.6405308"
       x="154.01207"
       y="31.78726"
       transform="matrix(0.83437122,0.55120293,-0.83437122,0.55120293,0,0)" />
    <rect
       style="fill:#ffffff;stroke:#ffffff;stroke-width:0.13687;stroke-linecap:round;stroke-linejoin:round;paint-order:stroke fill markers;stop-color:#000000"
       id="rect482"
       width="0.50720853"
       height="3.0495808"
       x="103.58602"
       y="103.87348" />
    <rect
       style="fill:#ffffff;stroke:#ffffff;stroke-width:0.0261332;stroke-linecap:round;stroke-linejoin:round;paint-order:stroke fill markers;stop-color:#000000"
       id="rect484"
       width="0.82182902"
       height="2.5517597"
       x="101.05991"
       y="104.12239" />
    <rect
       style="fill:#ffffff;stroke:#ffffff;stroke-width:0.0582591;stroke-linecap:round;stroke-linejoin:round;paint-order:stroke fill markers;stop-color:#000000"
       id="rect486"
       width="1.4709868"
       height="4.302856"
       x="107.01419"
       y="-105.99105"
       transform="rotate(90)" />
    <rect
       style="fill:#ffffff;stroke:#ffffff;stroke-width:0.0351204;stroke-linecap:round;stroke-linejoin:round;paint-order:stroke fill markers;stop-color:#000000"
       id="rect488"
       width="0.37776473"
       height="12.05031"
       x="103.65074"
       y="107.94085" />
    <rect
       style="fill:#ffffff;stroke:#ffffff;stroke-width:0.0172667;stroke-linecap:round;stroke-linejoin:round;paint-order:stroke fill markers;stop-color:#000000"
       id="rect494"
       width="0.66389924"
       height="8.7861433"
       x="34.673931"
       y="142.50278"
       transform="matrix(0.88876619,-0.45836083,0.54282369,0.83984668,0,0)" />
    <rect
       style="fill:#ffffff;stroke:#ffffff;stroke-width:0.0429024;stroke-linecap:round;stroke-linejoin:round;paint-order:stroke fill markers;stop-color:#000000"
       id="rect496"
       width="1.2616467"
       height="2.013473"
       x="44.281765"
       y="150.67422"
       transform="matrix(0.88359982,-0.46824284,0.48690694,0.87345385,0,0)" />
    <rect
       style="fill:#ffffff;stroke:#ffffff;stroke-width:0.0194103;stroke-linecap:round;stroke-linejoin:round;paint-order:stroke fill markers;stop-color:#000000"
       id="rect498"
       width="0.74096674"
       height="9.948225"
       x="-157.17998"
       y="35.573589"
       transform="matrix(-0.88324353,-0.46891457,-0.53174195,0.84690643,0,0)" />
    <rect
       style="fill:#ffffff;stroke:#ffffff;stroke-width:0.0201362;stroke-linecap:round;stroke-linejoin:round;paint-order:stroke fill markers;stop-color:#000000"
       id="rect500"
       width="0.76926732"
       height="10.312388"
       x="-37.671391"
       y="-162.96727"
       transform="matrix(-0.88384025,0.46778885,-0.5329165,-0.84616783,0,0)" />
    <rect
       style="fill:#ffffff;stroke:#ffffff;stroke-width:0.0201362;stroke-linecap:round;stroke-linejoin:round;paint-order:stroke fill markers;stop-color:#000000"
       id="rect502"
       width="0.76926732"
       height="10.312388"
       x="155.72293"
       y="-56.052654"
       transform="matrix(0.88384025,0.46778885,0.5329165,-0.84616783,0,0)" />
  </g>
</svg>
